%TF.GenerationSoftware,KiCad,Pcbnew,9.0.7*%
%TF.CreationDate,2026-05-06T17:43:38-03:00*%
%TF.ProjectId,pcb_comms_board,7063625f-636f-46d6-9d73-5f626f617264,rev?*%
%TF.SameCoordinates,Original*%
%TF.FileFunction,Profile,NP*%
%FSLAX46Y46*%
G04 Gerber Fmt 4.6, Leading zero omitted, Abs format (unit mm)*
G04 Created by KiCad (PCBNEW 9.0.7) date 2026-05-06 17:43:38*
%MOMM*%
%LPD*%
G01*
G04 APERTURE LIST*
%TA.AperFunction,Profile*%
%ADD10C,0.050000*%
%TD*%
G04 APERTURE END LIST*
D10*
X190000000Y-46150000D02*
G75*
G02*
X191200000Y-47350000I0J-1200000D01*
G01*
X102400000Y-136350000D02*
G75*
G02*
X101200000Y-135150000I0J1200000D01*
G01*
X155000000Y-133350000D02*
G75*
G02*
X156200000Y-134550000I0J-1200000D01*
G01*
X104200000Y-100150000D02*
X104200000Y-82550000D01*
X137400000Y-49150000D02*
X155000000Y-49150000D01*
X136200000Y-47950000D02*
X136200000Y-47350000D01*
X191200000Y-47350000D02*
X191200000Y-135150000D01*
X156200000Y-47350000D02*
X156200000Y-47950000D01*
X135000000Y-46150000D02*
G75*
G02*
X136200000Y-47350000I0J-1200000D01*
G01*
X137400000Y-49150000D02*
G75*
G02*
X136200000Y-47950000I0J1200000D01*
G01*
X136200000Y-134550000D02*
G75*
G02*
X137400000Y-133350000I1200000J0D01*
G01*
X102400000Y-101350000D02*
X103000000Y-101350000D01*
X101200000Y-80150000D02*
X101200000Y-47350000D01*
X191200000Y-135150000D02*
G75*
G02*
X190000000Y-136350000I-1200000J0D01*
G01*
X135000000Y-46150000D02*
X102400000Y-46150000D01*
X137400000Y-133350000D02*
X155000000Y-133350000D01*
X103000000Y-81350000D02*
G75*
G02*
X104200000Y-82550000I0J-1200000D01*
G01*
X156200000Y-47950000D02*
G75*
G02*
X155000000Y-49150000I-1200000J0D01*
G01*
X136200000Y-135150000D02*
X136200000Y-134550000D01*
X156200000Y-47350000D02*
G75*
G02*
X157400000Y-46150000I1200000J0D01*
G01*
X136200000Y-135150000D02*
G75*
G02*
X135000000Y-136350000I-1200000J0D01*
G01*
X135000000Y-136350000D02*
X102400000Y-136350000D01*
X101200000Y-135150000D02*
X101200000Y-102550000D01*
X102400000Y-81350000D02*
G75*
G02*
X101200000Y-80150000I0J1200000D01*
G01*
X103000000Y-81350000D02*
X102400000Y-81350000D01*
X101200000Y-47350000D02*
G75*
G02*
X102400000Y-46150000I1200000J0D01*
G01*
X101200000Y-102550000D02*
G75*
G02*
X102400000Y-101350000I1200000J0D01*
G01*
X104200000Y-100150000D02*
G75*
G02*
X103000000Y-101350000I-1200000J0D01*
G01*
X156200000Y-134550000D02*
X156200000Y-135150000D01*
X157400000Y-46150000D02*
X190000000Y-46150000D01*
X157400000Y-136350000D02*
G75*
G02*
X156200000Y-135150000I0J1200000D01*
G01*
X190000000Y-136350000D02*
X157400000Y-136350000D01*
M02*
