%TF.GenerationSoftware,KiCad,Pcbnew,9.0.7*%
%TF.CreationDate,2026-05-06T17:43:38-03:00*%
%TF.ProjectId,pcb_comms_board,7063625f-636f-46d6-9d73-5f626f617264,rev?*%
%TF.SameCoordinates,Original*%
%TF.FileFunction,Copper,L1,Top*%
%TF.FilePolarity,Positive*%
%FSLAX46Y46*%
G04 Gerber Fmt 4.6, Leading zero omitted, Abs format (unit mm)*
G04 Created by KiCad (PCBNEW 9.0.7) date 2026-05-06 17:43:38*
%MOMM*%
%LPD*%
G01*
G04 APERTURE LIST*
G04 Aperture macros list*
%AMRoundRect*
0 Rectangle with rounded corners*
0 $1 Rounding radius*
0 $2 $3 $4 $5 $6 $7 $8 $9 X,Y pos of 4 corners*
0 Add a 4 corners polygon primitive as box body*
4,1,4,$2,$3,$4,$5,$6,$7,$8,$9,$2,$3,0*
0 Add four circle primitives for the rounded corners*
1,1,$1+$1,$2,$3*
1,1,$1+$1,$4,$5*
1,1,$1+$1,$6,$7*
1,1,$1+$1,$8,$9*
0 Add four rect primitives between the rounded corners*
20,1,$1+$1,$2,$3,$4,$5,0*
20,1,$1+$1,$4,$5,$6,$7,0*
20,1,$1+$1,$6,$7,$8,$9,0*
20,1,$1+$1,$8,$9,$2,$3,0*%
%AMFreePoly0*
4,1,23,0.500000,-0.750000,0.000000,-0.750000,0.000000,-0.745722,-0.065263,-0.745722,-0.191342,-0.711940,-0.304381,-0.646677,-0.396677,-0.554381,-0.461940,-0.441342,-0.495722,-0.315263,-0.495722,-0.250000,-0.500000,-0.250000,-0.500000,0.250000,-0.495722,0.250000,-0.495722,0.315263,-0.461940,0.441342,-0.396677,0.554381,-0.304381,0.646677,-0.191342,0.711940,-0.065263,0.745722,0.000000,0.745722,
0.000000,0.750000,0.500000,0.750000,0.500000,-0.750000,0.500000,-0.750000,$1*%
%AMFreePoly1*
4,1,23,0.000000,0.745722,0.065263,0.745722,0.191342,0.711940,0.304381,0.646677,0.396677,0.554381,0.461940,0.441342,0.495722,0.315263,0.495722,0.250000,0.500000,0.250000,0.500000,-0.250000,0.495722,-0.250000,0.495722,-0.315263,0.461940,-0.441342,0.396677,-0.554381,0.304381,-0.646677,0.191342,-0.711940,0.065263,-0.745722,0.000000,-0.745722,0.000000,-0.750000,-0.500000,-0.750000,
-0.500000,0.750000,0.000000,0.750000,0.000000,0.745722,0.000000,0.745722,$1*%
G04 Aperture macros list end*
%TA.AperFunction,SMDPad,CuDef*%
%ADD10FreePoly0,90.000000*%
%TD*%
%TA.AperFunction,SMDPad,CuDef*%
%ADD11FreePoly1,90.000000*%
%TD*%
%TA.AperFunction,SMDPad,CuDef*%
%ADD12R,1.020000X1.780000*%
%TD*%
%TA.AperFunction,SMDPad,CuDef*%
%ADD13R,1.498600X1.104900*%
%TD*%
%TA.AperFunction,SMDPad,CuDef*%
%ADD14RoundRect,0.250001X-1.074999X0.462499X-1.074999X-0.462499X1.074999X-0.462499X1.074999X0.462499X0*%
%TD*%
%TA.AperFunction,SMDPad,CuDef*%
%ADD15R,0.500000X1.100000*%
%TD*%
%TA.AperFunction,SMDPad,CuDef*%
%ADD16RoundRect,0.250000X0.450000X-0.350000X0.450000X0.350000X-0.450000X0.350000X-0.450000X-0.350000X0*%
%TD*%
%TA.AperFunction,SMDPad,CuDef*%
%ADD17RoundRect,0.250000X-0.350000X-0.450000X0.350000X-0.450000X0.350000X0.450000X-0.350000X0.450000X0*%
%TD*%
%TA.AperFunction,SMDPad,CuDef*%
%ADD18RoundRect,0.237500X0.237500X-0.300000X0.237500X0.300000X-0.237500X0.300000X-0.237500X-0.300000X0*%
%TD*%
%TA.AperFunction,SMDPad,CuDef*%
%ADD19RoundRect,0.250000X-0.475000X0.337500X-0.475000X-0.337500X0.475000X-0.337500X0.475000X0.337500X0*%
%TD*%
%TA.AperFunction,SMDPad,CuDef*%
%ADD20R,2.960000X1.270000*%
%TD*%
%TA.AperFunction,SMDPad,CuDef*%
%ADD21R,0.812800X0.254000*%
%TD*%
%TA.AperFunction,SMDPad,CuDef*%
%ADD22R,0.254000X0.812800*%
%TD*%
%TA.AperFunction,SMDPad,CuDef*%
%ADD23R,5.689600X5.689600*%
%TD*%
%TA.AperFunction,SMDPad,CuDef*%
%ADD24RoundRect,0.237500X-0.300000X-0.237500X0.300000X-0.237500X0.300000X0.237500X-0.300000X0.237500X0*%
%TD*%
%TA.AperFunction,SMDPad,CuDef*%
%ADD25RoundRect,0.250000X0.275000X0.350000X-0.275000X0.350000X-0.275000X-0.350000X0.275000X-0.350000X0*%
%TD*%
%TA.AperFunction,SMDPad,CuDef*%
%ADD26RoundRect,0.250000X-0.450000X0.350000X-0.450000X-0.350000X0.450000X-0.350000X0.450000X0.350000X0*%
%TD*%
%TA.AperFunction,ComponentPad*%
%ADD27C,1.508000*%
%TD*%
%TA.AperFunction,ComponentPad*%
%ADD28C,1.920000*%
%TD*%
%TA.AperFunction,SMDPad,CuDef*%
%ADD29RoundRect,0.250000X0.337500X0.475000X-0.337500X0.475000X-0.337500X-0.475000X0.337500X-0.475000X0*%
%TD*%
%TA.AperFunction,SMDPad,CuDef*%
%ADD30RoundRect,0.250000X-0.275000X-0.350000X0.275000X-0.350000X0.275000X0.350000X-0.275000X0.350000X0*%
%TD*%
%TA.AperFunction,SMDPad,CuDef*%
%ADD31RoundRect,0.237500X0.300000X0.237500X-0.300000X0.237500X-0.300000X-0.237500X0.300000X-0.237500X0*%
%TD*%
%TA.AperFunction,SMDPad,CuDef*%
%ADD32RoundRect,0.250000X0.350000X0.450000X-0.350000X0.450000X-0.350000X-0.450000X0.350000X-0.450000X0*%
%TD*%
%TA.AperFunction,ComponentPad*%
%ADD33C,3.600000*%
%TD*%
%TA.AperFunction,ConnectorPad*%
%ADD34C,5.600000*%
%TD*%
%TA.AperFunction,SMDPad,CuDef*%
%ADD35RoundRect,0.250000X-0.350000X0.275000X-0.350000X-0.275000X0.350000X-0.275000X0.350000X0.275000X0*%
%TD*%
%TA.AperFunction,SMDPad,CuDef*%
%ADD36RoundRect,0.250000X-0.337500X-0.475000X0.337500X-0.475000X0.337500X0.475000X-0.337500X0.475000X0*%
%TD*%
%TA.AperFunction,SMDPad,CuDef*%
%ADD37R,2.470000X1.880000*%
%TD*%
%TA.AperFunction,SMDPad,CuDef*%
%ADD38R,1.880000X2.470000*%
%TD*%
%TA.AperFunction,SMDPad,CuDef*%
%ADD39R,6.600000X1.800000*%
%TD*%
%TA.AperFunction,SMDPad,CuDef*%
%ADD40R,8.000000X1.800000*%
%TD*%
%TA.AperFunction,SMDPad,CuDef*%
%ADD41RoundRect,0.237500X-0.237500X0.300000X-0.237500X-0.300000X0.237500X-0.300000X0.237500X0.300000X0*%
%TD*%
%TA.AperFunction,SMDPad,CuDef*%
%ADD42RoundRect,0.250001X1.074999X-0.462499X1.074999X0.462499X-1.074999X0.462499X-1.074999X-0.462499X0*%
%TD*%
%TA.AperFunction,SMDPad,CuDef*%
%ADD43RoundRect,0.250000X0.475000X-0.337500X0.475000X0.337500X-0.475000X0.337500X-0.475000X-0.337500X0*%
%TD*%
%TA.AperFunction,SMDPad,CuDef*%
%ADD44RoundRect,0.250000X-0.362500X-0.700000X0.362500X-0.700000X0.362500X0.700000X-0.362500X0.700000X0*%
%TD*%
%TA.AperFunction,ComponentPad*%
%ADD45R,1.700000X1.700000*%
%TD*%
%TA.AperFunction,ComponentPad*%
%ADD46C,1.700000*%
%TD*%
%TA.AperFunction,SMDPad,CuDef*%
%ADD47RoundRect,0.150000X0.625000X-0.150000X0.625000X0.150000X-0.625000X0.150000X-0.625000X-0.150000X0*%
%TD*%
%TA.AperFunction,SMDPad,CuDef*%
%ADD48RoundRect,0.250000X0.650000X-0.350000X0.650000X0.350000X-0.650000X0.350000X-0.650000X-0.350000X0*%
%TD*%
%TA.AperFunction,SMDPad,CuDef*%
%ADD49RoundRect,0.250000X-1.412500X-0.550000X1.412500X-0.550000X1.412500X0.550000X-1.412500X0.550000X0*%
%TD*%
%TA.AperFunction,SMDPad,CuDef*%
%ADD50R,1.050000X0.800000*%
%TD*%
%TA.AperFunction,SMDPad,CuDef*%
%ADD51R,1.380000X0.450000*%
%TD*%
%TA.AperFunction,ComponentPad*%
%ADD52C,2.145000*%
%TD*%
%TA.AperFunction,SMDPad,CuDef*%
%ADD53R,1.550000X1.425000*%
%TD*%
%TA.AperFunction,SMDPad,CuDef*%
%ADD54R,1.900000X0.875000*%
%TD*%
%TA.AperFunction,SMDPad,CuDef*%
%ADD55R,0.250000X0.250000*%
%TD*%
%TA.AperFunction,SMDPad,CuDef*%
%ADD56R,0.950000X2.750000*%
%TD*%
%TA.AperFunction,SMDPad,CuDef*%
%ADD57R,3.250000X2.750000*%
%TD*%
%TA.AperFunction,SMDPad,CuDef*%
%ADD58RoundRect,0.237500X0.287500X0.237500X-0.287500X0.237500X-0.287500X-0.237500X0.287500X-0.237500X0*%
%TD*%
%TA.AperFunction,SMDPad,CuDef*%
%ADD59R,0.750000X0.850000*%
%TD*%
%TA.AperFunction,SMDPad,CuDef*%
%ADD60RoundRect,0.237500X-0.237500X0.250000X-0.237500X-0.250000X0.237500X-0.250000X0.237500X0.250000X0*%
%TD*%
%TA.AperFunction,SMDPad,CuDef*%
%ADD61R,1.104900X1.498600*%
%TD*%
%TA.AperFunction,SMDPad,CuDef*%
%ADD62RoundRect,0.250000X0.450000X-0.325000X0.450000X0.325000X-0.450000X0.325000X-0.450000X-0.325000X0*%
%TD*%
%TA.AperFunction,SMDPad,CuDef*%
%ADD63R,0.800000X0.400000*%
%TD*%
%TA.AperFunction,SMDPad,CuDef*%
%ADD64R,1.200000X0.600000*%
%TD*%
%TA.AperFunction,ViaPad*%
%ADD65C,0.700000*%
%TD*%
%TA.AperFunction,Conductor*%
%ADD66C,0.400000*%
%TD*%
%TA.AperFunction,Conductor*%
%ADD67C,0.250000*%
%TD*%
%TA.AperFunction,Conductor*%
%ADD68C,0.150000*%
%TD*%
%TA.AperFunction,Conductor*%
%ADD69C,0.200000*%
%TD*%
%TA.AperFunction,Conductor*%
%ADD70C,0.700000*%
%TD*%
G04 APERTURE END LIST*
D10*
%TO.P,SB3,1,A*%
%TO.N,Net-(J1-Pin_4)*%
X148860000Y-67720000D03*
D11*
%TO.P,SB3,2,B*%
%TO.N,JTDO_SWO_TO_STM32*%
X148860000Y-66420000D03*
%TD*%
D12*
%TO.P,L8,1,1*%
%TO.N,RFI_P*%
X168220000Y-85630000D03*
%TO.P,L8,2,2*%
%TO.N,RFI_N*%
X166440000Y-85630000D03*
%TD*%
D13*
%TO.P,CR1,1*%
%TO.N,+5V*%
X116490000Y-76813450D03*
%TO.P,CR1,2*%
%TO.N,/IO_CONN/VBUS*%
X116490000Y-73930550D03*
%TD*%
D14*
%TO.P,L10,1,1*%
%TO.N,+3V3*%
X113130000Y-93492500D03*
%TO.P,L10,2,2*%
%TO.N,/APRS_RADIO/3V3_DRA*%
X113130000Y-96467500D03*
%TD*%
D15*
%TO.P,D3,1,K*%
%TO.N,STM32_NRST*%
X150680000Y-81705000D03*
%TO.P,D3,2,A*%
%TO.N,GND*%
X150680000Y-84055000D03*
%TD*%
D16*
%TO.P,R8,1*%
%TO.N,STM32_TO_DRA_ENA*%
X120440000Y-102770000D03*
%TO.P,R8,2*%
%TO.N,/APRS_RADIO/3V3_DRA*%
X120440000Y-100770000D03*
%TD*%
D17*
%TO.P,R10,1*%
%TO.N,VBAT_IN*%
X113020000Y-62890000D03*
%TO.P,R10,2*%
%TO.N,OCP_NFAULT*%
X115020000Y-62890000D03*
%TD*%
D18*
%TO.P,C11,1*%
%TO.N,/MCU/VLXSMPS*%
X158260000Y-62752500D03*
%TO.P,C11,2*%
%TO.N,GND*%
X158260000Y-61027500D03*
%TD*%
D16*
%TO.P,R2,1*%
%TO.N,/APRS_RADIO/MIC_IN1*%
X151555000Y-124872500D03*
%TO.P,R2,2*%
%TO.N,/APRS_RADIO/3V3_DRA1*%
X151555000Y-122872500D03*
%TD*%
D19*
%TO.P,C20,1*%
%TO.N,/APRS_RADIO/3V3_DRA1*%
X153805000Y-122835000D03*
%TO.P,C20,2*%
%TO.N,GND*%
X153805000Y-124910000D03*
%TD*%
D20*
%TO.P,JTAG,1,Pin_1*%
%TO.N,JTMS_SWDIO_TO_STM32*%
X144760000Y-64780000D03*
%TO.P,JTAG,2,Pin_2*%
%TO.N,GND*%
X141180000Y-67320000D03*
%TO.P,JTAG,3,Pin_3*%
%TO.N,JTCK_SWCLK_TO_STM32*%
X144760000Y-69860000D03*
%TO.P,JTAG,4,Pin_4*%
%TO.N,Net-(J1-Pin_4)*%
X141180000Y-72400000D03*
%TO.P,JTAG,5,Pin_5*%
%TO.N,STM32_NRST*%
X144760000Y-74940000D03*
%TO.P,JTAG,6,Pin_6*%
%TO.N,Net-(J1-Pin_6)*%
X141180000Y-77480000D03*
%TD*%
D21*
%TO.P,STM,1,PB3*%
%TO.N,JTDO_SWO_TO_STM32*%
X159196200Y-67620000D03*
%TO.P,STM,2,PB4*%
%TO.N,SPI1_MISO*%
X159196200Y-68119999D03*
%TO.P,STM,3,PB5*%
%TO.N,SPI1_MOSI*%
X159196200Y-68620001D03*
%TO.P,STM,4,PB6*%
%TO.N,DRA_RX_UART1_TX*%
X159196200Y-69120000D03*
%TO.P,STM,5,PB7*%
%TO.N,DRA_TX_UART1_RX*%
X159196200Y-69619999D03*
%TO.P,STM,6,PB8*%
%TO.N,unconnected-(U2-PB8-Pad6)*%
X159196200Y-70120000D03*
%TO.P,STM,7,PA0*%
%TO.N,SPI1_CS*%
X159196200Y-70620000D03*
%TO.P,STM,8,PA1*%
%TO.N,SPI1_SCK*%
X159196200Y-71120001D03*
%TO.P,STM,9,PA2*%
%TO.N,UART2_TX*%
X159196200Y-71620000D03*
%TO.P,STM,10,PA3*%
%TO.N,UART_RX*%
X159196200Y-72119999D03*
%TO.P,STM,11,VDD*%
%TO.N,+3V3*%
X159196200Y-72620001D03*
%TO.P,STM,12,PA4*%
%TO.N,unconnected-(U2-PA4-Pad12)*%
X159196200Y-73120000D03*
D22*
%TO.P,STM,13,PA5*%
%TO.N,unconnected-(U2-PA5-Pad13)*%
X159900600Y-73824400D03*
%TO.P,STM,14,PA6*%
%TO.N,STM32_TO_DRA_ENA*%
X160400599Y-73824400D03*
%TO.P,STM,15,PA7*%
%TO.N,STM32_TO_DRA_PTT*%
X160900601Y-73824400D03*
%TO.P,STM,16,PA8*%
%TO.N,DRA_SQ_TO_STM32*%
X161400600Y-73824400D03*
%TO.P,STM,17,PA9*%
%TO.N,RF_CRL_TO_STM32*%
X161900599Y-73824400D03*
%TO.P,STM,18,NRST*%
%TO.N,STM32_NRST*%
X162400600Y-73824400D03*
%TO.P,STM,19,PH3-BOOT0*%
%TO.N,/MCU/STM32_BOOT*%
X162900600Y-73824400D03*
%TO.P,STM,20,RFI_P*%
%TO.N,RFI_P*%
X163400601Y-73824400D03*
%TO.P,STM,21,RFI_N*%
%TO.N,RFI_N*%
X163900600Y-73824400D03*
%TO.P,STM,22,RFO_LP*%
%TO.N,unconnected-(U2-RFO_LP-Pad22)*%
X164400599Y-73824400D03*
%TO.P,STM,23,RFO_HP*%
%TO.N,RFO_HP*%
X164900601Y-73824400D03*
%TO.P,STM,24,VR_PA*%
%TO.N,VR_PA*%
X165400600Y-73824400D03*
D21*
%TO.P,STM,25,VDDPA*%
%TO.N,+3V3*%
X166105000Y-73120000D03*
%TO.P,STM,26,OSC_IN*%
%TO.N,/MCU/STM32_OSC_IN*%
X166105000Y-72620001D03*
%TO.P,STM,27,OSC_OUT*%
%TO.N,/MCU/STM32_OSC_OUT*%
X166105000Y-72119999D03*
%TO.P,STM,28,VDDRF*%
%TO.N,+3V3*%
X166105000Y-71620000D03*
%TO.P,STM,29,VDDRF1V55*%
%TO.N,/MCU/VDDRF1V55*%
X166105000Y-71120001D03*
%TO.P,STM,30,PB0-VDD_TCXO*%
%TO.N,unconnected-(U2-PB0-VDD_TCXO-Pad30)*%
X166105000Y-70620000D03*
%TO.P,STM,31,PB2*%
%TO.N,unconnected-(U2-PB2-Pad31)*%
X166105000Y-70120000D03*
%TO.P,STM,32,PB12*%
%TO.N,unconnected-(U2-PB12-Pad32)*%
X166105000Y-69619999D03*
%TO.P,STM,33,PA10*%
%TO.N,STM32_DAC_TO_DRA*%
X166105000Y-69120000D03*
%TO.P,STM,34,PA11*%
%TO.N,DRA_TO_STM32_ADC*%
X166105000Y-68620001D03*
%TO.P,STM,35,PA12*%
%TO.N,unconnected-(U2-PA12-Pad35)*%
X166105000Y-68119999D03*
%TO.P,STM,36,PA13*%
%TO.N,JTMS_SWDIO_TO_STM32*%
X166105000Y-67620000D03*
D22*
%TO.P,STM,37,VBAT*%
%TO.N,unconnected-(U2-VBAT-Pad37)*%
X165400600Y-66915600D03*
%TO.P,STM,38,PC13*%
%TO.N,OCP_NFAULT*%
X164900601Y-66915600D03*
%TO.P,STM,39,PC14-OSC32_IN*%
%TO.N,unconnected-(U2-PC14-OSC32_IN-Pad39)*%
X164400599Y-66915600D03*
%TO.P,STM,40,PC15-OSC32_OUT*%
%TO.N,unconnected-(U2-PC15-OSC32_OUT-Pad40)*%
X163900600Y-66915600D03*
%TO.P,STM,41,VDDA*%
%TO.N,/MCU/VDDA*%
X163400601Y-66915600D03*
%TO.P,STM,42,PA14*%
%TO.N,JTCK_SWCLK_TO_STM32*%
X162900600Y-66915600D03*
%TO.P,STM,43,PA15*%
%TO.N,unconnected-(U2-PA15-Pad43)*%
X162400600Y-66915600D03*
%TO.P,STM,44,VDD*%
%TO.N,+3V3*%
X161900599Y-66915600D03*
%TO.P,STM,45,VFBSMPS*%
%TO.N,/MCU/VDDRF1V55*%
X161400600Y-66915600D03*
%TO.P,STM,46,VDDSMPS*%
%TO.N,+3V3*%
X160900601Y-66915600D03*
%TO.P,STM,47,VLXSMPS*%
%TO.N,/MCU/VLXSMPS*%
X160400599Y-66915600D03*
%TO.P,STM,48,VSSSMPS*%
%TO.N,GND*%
X159900600Y-66915600D03*
D23*
%TO.P,STM,49,GND*%
X162650600Y-70370000D03*
%TD*%
D16*
%TO.P,R12,1*%
%TO.N,DRA_SQ_TO_STM32*%
X120927500Y-126545000D03*
%TO.P,R12,2*%
%TO.N,Net-(U3-SQ)*%
X120927500Y-124545000D03*
%TD*%
D19*
%TO.P,C8,1*%
%TO.N,VBAT_IN*%
X107930000Y-58672500D03*
%TO.P,C8,2*%
%TO.N,GND*%
X107930000Y-60747500D03*
%TD*%
D24*
%TO.P,C24,1*%
%TO.N,RFI_P*%
X166525000Y-87620000D03*
%TO.P,C24,2*%
%TO.N,/RF/RF1*%
X168250000Y-87620000D03*
%TD*%
D25*
%TO.P,L12,1,1*%
%TO.N,/APRS_RADIO/ANT1*%
X149552500Y-103820000D03*
%TO.P,L12,2,2*%
%TO.N,/APRS_RADIO/ANT2*%
X147252500Y-103820000D03*
%TD*%
D19*
%TO.P,C37,1*%
%TO.N,/APRS_RADIO/AF_OUT*%
X120250000Y-115882500D03*
%TO.P,C37,2*%
%TO.N,/APRS_RADIO/AF_OUT2*%
X120250000Y-117957500D03*
%TD*%
D18*
%TO.P,C1,1*%
%TO.N,GND*%
X155147500Y-74927500D03*
%TO.P,C1,2*%
%TO.N,+3V3*%
X155147500Y-73202500D03*
%TD*%
D24*
%TO.P,C21,1*%
%TO.N,/RF/RF_NODO1*%
X175662500Y-77920000D03*
%TO.P,C21,2*%
%TO.N,GND*%
X177387500Y-77920000D03*
%TD*%
D19*
%TO.P,C46,1*%
%TO.N,/APRS_RADIO/3V3_DRA*%
X118110000Y-93732500D03*
%TO.P,C46,2*%
%TO.N,GND*%
X118110000Y-95807500D03*
%TD*%
D26*
%TO.P,R11,1*%
%TO.N,Net-(U3-SQ)*%
X118702500Y-124570000D03*
%TO.P,R11,2*%
%TO.N,/APRS_RADIO/3V3_DRA*%
X118702500Y-126570000D03*
%TD*%
D16*
%TO.P,R7,1*%
%TO.N,GND*%
X107780000Y-109050000D03*
%TO.P,R7,2*%
%TO.N,STM32_TO_DRA_PTT*%
X107780000Y-107050000D03*
%TD*%
D26*
%TO.P,R5,1*%
%TO.N,/APRS_RADIO/3V3_DRA1*%
X156130000Y-122897500D03*
%TO.P,R5,2*%
%TO.N,/APRS_RADIO/3V3_DRA*%
X156130000Y-124897500D03*
%TD*%
D24*
%TO.P,C34,1*%
%TO.N,/MCU/VDDRF1V55*%
X169240000Y-68970000D03*
%TO.P,C34,2*%
%TO.N,GND*%
X170965000Y-68970000D03*
%TD*%
%TO.P,C32,1*%
%TO.N,+3V3*%
X169250000Y-70475000D03*
%TO.P,C32,2*%
%TO.N,GND*%
X170975000Y-70475000D03*
%TD*%
D18*
%TO.P,C2,1*%
%TO.N,GND*%
X156750000Y-74930000D03*
%TO.P,C2,2*%
%TO.N,+3V3*%
X156750000Y-73205000D03*
%TD*%
D27*
%TO.P,SMA1,1*%
%TO.N,/RF/SMA1*%
X183925000Y-85275000D03*
D28*
%TO.P,SMA1,G1*%
%TO.N,GND*%
X181525000Y-82875000D03*
%TO.P,SMA1,G2*%
X181525000Y-87675000D03*
%TO.P,SMA1,G3*%
X186325000Y-87675000D03*
%TO.P,SMA1,G4*%
X186325000Y-82875000D03*
%TD*%
D16*
%TO.P,R20,1*%
%TO.N,/RF/SWITCH_TO_CRL*%
X165125000Y-92287500D03*
%TO.P,R20,2*%
%TO.N,RF_CRL_TO_STM32*%
X165125000Y-90287500D03*
%TD*%
D29*
%TO.P,C52,1*%
%TO.N,/APRS_RADIO/DRA_ANT*%
X149465000Y-109995000D03*
%TO.P,C52,2*%
%TO.N,GND*%
X147390000Y-109995000D03*
%TD*%
D25*
%TO.P,L3,1,1*%
%TO.N,VR_PA*%
X169220000Y-81370000D03*
%TO.P,L3,2,2*%
%TO.N,/RF/RFO_TO_CAP*%
X166920000Y-81370000D03*
%TD*%
D18*
%TO.P,C28,1*%
%TO.N,GND*%
X177575000Y-87000000D03*
%TO.P,C28,2*%
%TO.N,/RF/SMA1*%
X177575000Y-85275000D03*
%TD*%
%TO.P,C6,1*%
%TO.N,/MCU/VDDA*%
X168132500Y-64205000D03*
%TO.P,C6,2*%
%TO.N,GND*%
X168132500Y-62480000D03*
%TD*%
D19*
%TO.P,C36,1*%
%TO.N,/APRS_RADIO/DRA_PTT2*%
X115550000Y-107092500D03*
%TO.P,C36,2*%
%TO.N,GND*%
X115550000Y-109167500D03*
%TD*%
%TO.P,C12,1*%
%TO.N,STM32_NRST*%
X147900000Y-81802500D03*
%TO.P,C12,2*%
%TO.N,GND*%
X147900000Y-83877500D03*
%TD*%
D30*
%TO.P,L11,1,1*%
%TO.N,/APRS_RADIO/DRA_ANT_NO_FILTER*%
X147252500Y-99720000D03*
%TO.P,L11,2,2*%
%TO.N,/APRS_RADIO/ANT1*%
X149552500Y-99720000D03*
%TD*%
D18*
%TO.P,C10,1*%
%TO.N,/MCU/VLXSMPS*%
X156512500Y-62785000D03*
%TO.P,C10,2*%
%TO.N,GND*%
X156512500Y-61060000D03*
%TD*%
D31*
%TO.P,C31,1*%
%TO.N,GND*%
X176672500Y-66550000D03*
%TO.P,C31,2*%
%TO.N,/MCU/STM32_OSC_OUT*%
X174947500Y-66550000D03*
%TD*%
D32*
%TO.P,R9,1*%
%TO.N,GND*%
X118120000Y-71680000D03*
%TO.P,R9,2*%
%TO.N,/OCP/D6_TO_R9*%
X116120000Y-71680000D03*
%TD*%
D33*
%TO.P,H2,1*%
%TO.N,N/C*%
X186200000Y-51350000D03*
D34*
X186200000Y-51350000D03*
%TD*%
D35*
%TO.P,L7,1,1*%
%TO.N,/RF/SMA1*%
X175900000Y-88175000D03*
%TO.P,L7,2,2*%
%TO.N,/RF/RFIN2*%
X175900000Y-90475000D03*
%TD*%
D36*
%TO.P,C47,1*%
%TO.N,+5V*%
X135342500Y-82570000D03*
%TO.P,C47,2*%
%TO.N,GND*%
X137417500Y-82570000D03*
%TD*%
D37*
%TO.P,DRA818V,1,SQ*%
%TO.N,Net-(U3-SQ)*%
X125280000Y-124600000D03*
%TO.P,DRA818V,2*%
%TO.N,N/C*%
X125280000Y-120150000D03*
%TO.P,DRA818V,3,AF_OUT*%
%TO.N,/APRS_RADIO/AF_OUT*%
X125280000Y-115700000D03*
%TO.P,DRA818V,4*%
%TO.N,N/C*%
X125280000Y-111250000D03*
%TO.P,DRA818V,5,PTT*%
%TO.N,/APRS_RADIO/DRA_PTT*%
X125280000Y-106800000D03*
%TO.P,DRA818V,6,PD*%
%TO.N,STM32_TO_DRA_ENA*%
X125280000Y-102350000D03*
%TO.P,DRA818V,7,H/L*%
%TO.N,GND*%
X125280000Y-97900000D03*
D38*
%TO.P,DRA818V,8,VBAT*%
%TO.N,/APRS_RADIO/3V3_DRA*%
X127205000Y-94125000D03*
%TO.P,DRA818V,9,GND*%
%TO.N,GND*%
X131805000Y-94125000D03*
%TO.P,DRA818V,10,GND*%
X136405000Y-94125000D03*
%TO.P,DRA818V,11*%
%TO.N,N/C*%
X141005000Y-94125000D03*
D37*
%TO.P,DRA818V,12,ANT*%
%TO.N,/APRS_RADIO/DRA_ANT_NO_FILTER*%
X142930000Y-97900000D03*
%TO.P,DRA818V,13*%
%TO.N,N/C*%
X142930000Y-102350000D03*
%TO.P,DRA818V,14*%
X142930000Y-106800000D03*
%TO.P,DRA818V,15*%
X142930000Y-111250000D03*
%TO.P,DRA818V,16,RXD*%
%TO.N,DRA_RX_UART1_TX*%
X142930000Y-115700000D03*
%TO.P,DRA818V,17,TXD*%
%TO.N,DRA_TX_UART1_RX*%
X142930000Y-120150000D03*
%TO.P,DRA818V,18,MIC_IN*%
%TO.N,/APRS_RADIO/MIC_IN*%
X142930000Y-124600000D03*
D39*
%TO.P,DRA818V,P2*%
%TO.N,N/C*%
X127905000Y-128375000D03*
D40*
%TO.P,DRA818V,P3*%
X139605000Y-128375000D03*
%TD*%
D36*
%TO.P,C30,1*%
%TO.N,RFI_N*%
X166335000Y-83350000D03*
%TO.P,C30,2*%
%TO.N,GND*%
X168410000Y-83350000D03*
%TD*%
D41*
%TO.P,C26,1*%
%TO.N,GND*%
X178410000Y-68527500D03*
%TO.P,C26,2*%
%TO.N,/MCU/STM32_OSC_IN*%
X178410000Y-70252500D03*
%TD*%
D36*
%TO.P,C18,1*%
%TO.N,VR_PA*%
X166360000Y-77230000D03*
%TO.P,C18,2*%
%TO.N,GND*%
X168435000Y-77230000D03*
%TD*%
%TO.P,C39,1*%
%TO.N,+5V*%
X115492500Y-80160000D03*
%TO.P,C39,2*%
%TO.N,GND*%
X117567500Y-80160000D03*
%TD*%
D42*
%TO.P,L1,1,1*%
%TO.N,STM32_DAC_TO_DRA*%
X147360000Y-130077500D03*
%TO.P,L1,2,2*%
%TO.N,/APRS_RADIO/MIC_IN1*%
X147360000Y-127102500D03*
%TD*%
D43*
%TO.P,C41,1*%
%TO.N,/APRS_RADIO/MIC_IN1*%
X146880000Y-124960000D03*
%TO.P,C41,2*%
%TO.N,/APRS_RADIO/MIC_IN*%
X146880000Y-122885000D03*
%TD*%
%TO.P,C35,1*%
%TO.N,/RF/SWITCH_TO_CRL*%
X169725000Y-92337500D03*
%TO.P,C35,2*%
%TO.N,GND*%
X169725000Y-90262500D03*
%TD*%
D44*
%TO.P,FB2,1*%
%TO.N,+3V3*%
X165462500Y-58600000D03*
%TO.P,FB2,2*%
%TO.N,/MCU/VDDA*%
X168787500Y-58600000D03*
%TD*%
D29*
%TO.P,C50,1*%
%TO.N,/APRS_RADIO/ANT1*%
X149477500Y-101770000D03*
%TO.P,C50,2*%
%TO.N,GND*%
X147402500Y-101770000D03*
%TD*%
D18*
%TO.P,C7,1*%
%TO.N,/MCU/VDDA*%
X166490000Y-64222500D03*
%TO.P,C7,2*%
%TO.N,GND*%
X166490000Y-62497500D03*
%TD*%
D45*
%TO.P,J2,1,Pin_1*%
%TO.N,unconnected-(J2-Pin_1-Pad1)*%
X122060000Y-51950000D03*
D46*
%TO.P,J2,2,Pin_2*%
%TO.N,unconnected-(J2-Pin_2-Pad2)*%
X122060000Y-54490000D03*
%TO.P,J2,3,Pin_3*%
%TO.N,GND*%
X124600000Y-51950000D03*
%TO.P,J2,4,Pin_4*%
X124600000Y-54490000D03*
%TO.P,J2,5,Pin_5*%
%TO.N,VBAT_IN*%
X127140000Y-51950000D03*
%TO.P,J2,6,Pin_6*%
X127140000Y-54490000D03*
%TO.P,J2,7,Pin_7*%
%TO.N,GND*%
X129680000Y-51950000D03*
%TO.P,J2,8,Pin_8*%
X129680000Y-54490000D03*
%TO.P,J2,9,Pin_9*%
%TO.N,unconnected-(J2-Pin_9-Pad9)*%
X132220000Y-51950000D03*
%TO.P,J2,10,Pin_10*%
%TO.N,unconnected-(J2-Pin_10-Pad10)*%
X132220000Y-54490000D03*
%TO.P,J2,11,Pin_11*%
%TO.N,GND*%
X134760000Y-51950000D03*
%TO.P,J2,12,Pin_12*%
X134760000Y-54490000D03*
%TO.P,J2,13,Pin_13*%
X137300000Y-51950000D03*
%TO.P,J2,14,Pin_14*%
X137300000Y-54490000D03*
%TO.P,J2,15,Pin_15*%
%TO.N,unconnected-(J2-Pin_15-Pad15)*%
X139840000Y-51950000D03*
%TO.P,J2,16,Pin_16*%
%TO.N,unconnected-(J2-Pin_16-Pad16)*%
X139840000Y-54490000D03*
%TO.P,J2,17,Pin_17*%
%TO.N,GND*%
X142380000Y-51950000D03*
%TO.P,J2,18,Pin_18*%
X142380000Y-54490000D03*
%TO.P,J2,19,Pin_19*%
%TO.N,unconnected-(J2-Pin_19-Pad19)*%
X144920000Y-51950000D03*
%TO.P,J2,20,Pin_20*%
%TO.N,unconnected-(J2-Pin_20-Pad20)*%
X144920000Y-54490000D03*
%TO.P,J2,21,Pin_21*%
%TO.N,GND*%
X147460000Y-51950000D03*
%TO.P,J2,22,Pin_22*%
X147460000Y-54490000D03*
%TO.P,J2,23,Pin_23*%
%TO.N,SPI1_SCK*%
X150000000Y-51950000D03*
%TO.P,J2,24,Pin_24*%
%TO.N,SPI1_MISO*%
X150000000Y-54490000D03*
%TO.P,J2,25,Pin_25*%
%TO.N,SPI1_MOSI*%
X152540000Y-51950000D03*
%TO.P,J2,26,Pin_26*%
%TO.N,SPI1_CS*%
X152540000Y-54490000D03*
%TO.P,J2,27,Pin_27*%
%TO.N,GND*%
X155080000Y-51950000D03*
%TO.P,J2,28,Pin_28*%
X155080000Y-54490000D03*
%TO.P,J2,29,Pin_29*%
%TO.N,OCP_EN*%
X157620000Y-51950000D03*
%TO.P,J2,30,Pin_30*%
%TO.N,unconnected-(J2-Pin_30-Pad30)*%
X157620000Y-54490000D03*
%TO.P,J2,31,Pin_31*%
%TO.N,unconnected-(J2-Pin_31-Pad31)*%
X160160000Y-51950000D03*
%TO.P,J2,32,Pin_32*%
%TO.N,unconnected-(J2-Pin_32-Pad32)*%
X160160000Y-54490000D03*
%TO.P,J2,33,Pin_33*%
%TO.N,unconnected-(J2-Pin_33-Pad33)*%
X162700000Y-51950000D03*
%TO.P,J2,34,Pin_34*%
%TO.N,unconnected-(J2-Pin_34-Pad34)*%
X162700000Y-54490000D03*
%TO.P,J2,35,Pin_35*%
%TO.N,unconnected-(J2-Pin_35-Pad35)*%
X165240000Y-51950000D03*
%TO.P,J2,36,Pin_36*%
%TO.N,GND*%
X165240000Y-54490000D03*
%TO.P,J2,37,Pin_37*%
X167780000Y-51950000D03*
%TO.P,J2,38,Pin_38*%
X167780000Y-54490000D03*
%TO.P,J2,39,Pin_39*%
X170320000Y-51950000D03*
%TO.P,J2,40,Pin_40*%
X170320000Y-54490000D03*
%TD*%
D47*
%TO.P,GPS,1,Pin_1*%
%TO.N,unconnected-(J9-Pin_1-Pad1)*%
X111365000Y-89320000D03*
%TO.P,GPS,2,Pin_2*%
%TO.N,unconnected-(J9-Pin_2-Pad2)*%
X111365000Y-88320000D03*
%TO.P,GPS,3,Pin_3*%
%TO.N,UART2_TX*%
X111365000Y-87320000D03*
%TO.P,GPS,4,Pin_4*%
%TO.N,UART_RX*%
X111365000Y-86320000D03*
%TO.P,GPS,5,Pin_5*%
%TO.N,+3V3*%
X111365000Y-85320000D03*
%TO.P,GPS,6,Pin_6*%
%TO.N,GND*%
X111365000Y-84320000D03*
D48*
%TO.P,GPS,MP*%
%TO.N,N/C*%
X108840000Y-90620000D03*
X108840000Y-83020000D03*
%TD*%
D24*
%TO.P,C33,1*%
%TO.N,+3V3*%
X169210000Y-73570000D03*
%TO.P,C33,2*%
%TO.N,GND*%
X170935000Y-73570000D03*
%TD*%
D43*
%TO.P,C44,1*%
%TO.N,DRA_TO_STM32_ADC*%
X117840000Y-117980000D03*
%TO.P,C44,2*%
%TO.N,/APRS_RADIO/AF_OUT2*%
X117840000Y-115905000D03*
%TD*%
D49*
%TO.P,C9,1*%
%TO.N,+3V3*%
X122002500Y-60540000D03*
%TO.P,C9,2*%
%TO.N,GND*%
X127077500Y-60540000D03*
%TD*%
D36*
%TO.P,C19,1*%
%TO.N,/RF/RF_NODO1*%
X175485000Y-80140000D03*
%TO.P,C19,2*%
%TO.N,/RF/RF_C19_TO_L5*%
X177560000Y-80140000D03*
%TD*%
D50*
%TO.P,S1,1,1*%
%TO.N,+3V3*%
X179300000Y-97250000D03*
%TO.P,S1,2,C*%
%TO.N,Net-(S1-C)*%
X179300000Y-100750000D03*
%TO.P,S1,3,3*%
%TO.N,GND*%
X183300000Y-99000000D03*
%TD*%
D33*
%TO.P,H3,1*%
%TO.N,N/C*%
X106200000Y-131350000D03*
D34*
X106200000Y-131350000D03*
%TD*%
D51*
%TO.P,USB,1,VBUS*%
%TO.N,/IO_CONN/VBUS*%
X111960000Y-73890000D03*
%TO.P,USB,2,D-*%
%TO.N,unconnected-(J7-D--Pad2)*%
X111960000Y-73240000D03*
%TO.P,USB,3,D+*%
%TO.N,unconnected-(J7-D+-Pad3)*%
X111960000Y-72590000D03*
%TO.P,USB,4,ID*%
%TO.N,unconnected-(J7-ID-Pad4)*%
X111960000Y-71940000D03*
%TO.P,USB,5,GND*%
%TO.N,GND*%
X111960000Y-71290000D03*
D52*
%TO.P,USB,MH1,MH1*%
X109300000Y-76540000D03*
%TO.P,USB,MH2,MH2*%
X109300000Y-68640000D03*
D53*
%TO.P,USB,MP1,MP1*%
X111875000Y-75077000D03*
%TO.P,USB,MP2,MP2*%
X111875000Y-70103000D03*
D54*
%TO.P,USB,MP3,MP3*%
X109300000Y-73778000D03*
%TO.P,USB,MP4,MP4*%
X109300000Y-71402000D03*
%TD*%
D42*
%TO.P,L9,1,1*%
%TO.N,/APRS_RADIO/DRA_PTT2*%
X118540000Y-109460000D03*
%TO.P,L9,2,2*%
%TO.N,/APRS_RADIO/DRA_PTT*%
X118540000Y-106485000D03*
%TD*%
D19*
%TO.P,C42,1*%
%TO.N,/APRS_RADIO/DRA_PTT*%
X121602500Y-106795000D03*
%TO.P,C42,2*%
%TO.N,GND*%
X121602500Y-108870000D03*
%TD*%
D55*
%TO.P,IC4,1,RF2*%
%TO.N,/RF/RF2*%
X172465000Y-87380000D03*
%TO.P,IC4,2,GND*%
%TO.N,GND*%
X172065000Y-87380000D03*
%TO.P,IC4,3,RF1*%
%TO.N,/RF/RF1*%
X171665000Y-87380000D03*
%TO.P,IC4,4,VDD*%
%TO.N,/RF/VDD_SWITCH_RF*%
X171665000Y-87780000D03*
%TO.P,IC4,5,RFIN*%
%TO.N,/RF/RFIN*%
X172065000Y-87780000D03*
%TO.P,IC4,6,CTRL*%
%TO.N,/RF/SWITCH_TO_CRL*%
X172465000Y-87780000D03*
%TD*%
D56*
%TO.P,IC1,1,GND*%
%TO.N,GND*%
X128360000Y-82490000D03*
%TO.P,IC1,2,VOUT_1*%
%TO.N,+3V3*%
X130660000Y-82490000D03*
%TO.P,IC1,3,VIN*%
%TO.N,+5V*%
X132960000Y-82490000D03*
D57*
%TO.P,IC1,4,VOUT_2*%
%TO.N,+3V3*%
X130660000Y-77290000D03*
%TD*%
D58*
%TO.P,L5,1,1*%
%TO.N,/RF/RF_C19_TO_L5*%
X174235000Y-83200000D03*
%TO.P,L5,2,2*%
%TO.N,/RF/RF2*%
X172485000Y-83200000D03*
%TD*%
D19*
%TO.P,C49,1*%
%TO.N,/APRS_RADIO/3V3_DRA*%
X120310000Y-93732500D03*
%TO.P,C49,2*%
%TO.N,GND*%
X120310000Y-95807500D03*
%TD*%
D16*
%TO.P,R3,1*%
%TO.N,DRA_TO_STM32_ADC*%
X114102500Y-126495000D03*
%TO.P,R3,2*%
%TO.N,GND*%
X114102500Y-124495000D03*
%TD*%
D19*
%TO.P,C45,1*%
%TO.N,/APRS_RADIO/3V3_DRA*%
X115970000Y-93752500D03*
%TO.P,C45,2*%
%TO.N,GND*%
X115970000Y-95827500D03*
%TD*%
D43*
%TO.P,C23,1*%
%TO.N,/RF/VDD_SWITCH_RF*%
X161325000Y-88025000D03*
%TO.P,C23,2*%
%TO.N,GND*%
X161325000Y-85950000D03*
%TD*%
D12*
%TO.P,L4,1,1*%
%TO.N,/RF/RFO_TO_CAP*%
X171555000Y-80040000D03*
%TO.P,L4,2,2*%
%TO.N,/RF/RF_NODO1*%
X173335000Y-80040000D03*
%TD*%
D26*
%TO.P,R6,1*%
%TO.N,/APRS_RADIO/DRA_PTT2*%
X113250000Y-107130000D03*
%TO.P,R6,2*%
%TO.N,/APRS_RADIO/3V3_DRA*%
X113250000Y-109130000D03*
%TD*%
D43*
%TO.P,C27,1*%
%TO.N,/RF/SWITCH_TO_CRL*%
X167455000Y-92307500D03*
%TO.P,C27,2*%
%TO.N,GND*%
X167455000Y-90232500D03*
%TD*%
D30*
%TO.P,L2,1,1*%
%TO.N,/MCU/VLXSMPS*%
X156160000Y-58140000D03*
%TO.P,L2,2,2*%
%TO.N,/MCU/VDDRF1V55*%
X158460000Y-58140000D03*
%TD*%
D43*
%TO.P,C25,1*%
%TO.N,/RF/VDD_SWITCH_RF*%
X163755000Y-88007500D03*
%TO.P,C25,2*%
%TO.N,GND*%
X163755000Y-85932500D03*
%TD*%
D59*
%TO.P,Y3,1,IN/OUT*%
%TO.N,/MCU/STM32_OSC_IN*%
X176080000Y-70270000D03*
%TO.P,Y3,2,GND_1*%
%TO.N,GND*%
X176080000Y-68920000D03*
%TO.P,Y3,3,OUT/IN*%
%TO.N,/MCU/STM32_OSC_OUT*%
X175030000Y-68920000D03*
%TO.P,Y3,4,GND_2*%
%TO.N,GND*%
X175030000Y-70270000D03*
%TD*%
D60*
%TO.P,L6,1,1*%
%TO.N,RFO_HP*%
X165240000Y-79157500D03*
%TO.P,L6,2,2*%
%TO.N,/RF/RFO_TO_CAP*%
X165240000Y-80982500D03*
%TD*%
D18*
%TO.P,C16,1*%
%TO.N,/MCU/VDDRF1V55*%
X159897500Y-62760000D03*
%TO.P,C16,2*%
%TO.N,GND*%
X159897500Y-61035000D03*
%TD*%
D24*
%TO.P,C17,1*%
%TO.N,/RF/RFO_TO_CAP*%
X171610000Y-77750000D03*
%TO.P,C17,2*%
%TO.N,/RF/RF_NODO1*%
X173335000Y-77750000D03*
%TD*%
D36*
%TO.P,C38,1*%
%TO.N,/APRS_RADIO/DRA_ANT_NO_FILTER*%
X147420000Y-97620000D03*
%TO.P,C38,2*%
%TO.N,GND*%
X149495000Y-97620000D03*
%TD*%
D18*
%TO.P,C29,1*%
%TO.N,GND*%
X174175000Y-92195000D03*
%TO.P,C29,2*%
%TO.N,/RF/RFIN2*%
X174175000Y-90470000D03*
%TD*%
D61*
%TO.P,CR2,1*%
%TO.N,+3V3*%
X134248550Y-63360000D03*
%TO.P,CR2,2*%
%TO.N,Net-(J1-Pin_6)*%
X137131450Y-63360000D03*
%TD*%
D43*
%TO.P,C40,1*%
%TO.N,/APRS_RADIO/MIC_IN1*%
X149180000Y-124947500D03*
%TO.P,C40,2*%
%TO.N,GND*%
X149180000Y-122872500D03*
%TD*%
D24*
%TO.P,C22,1*%
%TO.N,/RF/RF2*%
X172485000Y-84790000D03*
%TO.P,C22,2*%
%TO.N,GND*%
X174210000Y-84790000D03*
%TD*%
D19*
%TO.P,C43,1*%
%TO.N,+3V3*%
X116550000Y-100732500D03*
%TO.P,C43,2*%
%TO.N,GND*%
X116550000Y-102807500D03*
%TD*%
D43*
%TO.P,C13,1*%
%TO.N,/RF/RFIN2*%
X171955000Y-92307500D03*
%TO.P,C13,2*%
%TO.N,/RF/RFIN*%
X171955000Y-90232500D03*
%TD*%
D26*
%TO.P,R14,1*%
%TO.N,/OCP/ILIM*%
X117190000Y-60040000D03*
%TO.P,R14,2*%
%TO.N,GND*%
X117190000Y-62040000D03*
%TD*%
D62*
%TO.P,D6,1,K*%
%TO.N,/OCP/D6_TO_R9*%
X115850000Y-69580000D03*
%TO.P,D6,2,A*%
%TO.N,+3V3*%
X115850000Y-67530000D03*
%TD*%
D19*
%TO.P,C48,1*%
%TO.N,+3V3*%
X118262500Y-67535000D03*
%TO.P,C48,2*%
%TO.N,GND*%
X118262500Y-69610000D03*
%TD*%
D33*
%TO.P,H4,1*%
%TO.N,N/C*%
X106200000Y-51350000D03*
D34*
X106200000Y-51350000D03*
%TD*%
D36*
%TO.P,C15,1*%
%TO.N,VR_PA*%
X167020000Y-79405000D03*
%TO.P,C15,2*%
%TO.N,GND*%
X169095000Y-79405000D03*
%TD*%
D16*
%TO.P,R19,1*%
%TO.N,/RF/VDD_SWITCH_RF*%
X159011250Y-87943750D03*
%TO.P,R19,2*%
%TO.N,+3V3*%
X159011250Y-85943750D03*
%TD*%
D29*
%TO.P,C51,1*%
%TO.N,/APRS_RADIO/ANT2*%
X149502500Y-105870000D03*
%TO.P,C51,2*%
%TO.N,GND*%
X147427500Y-105870000D03*
%TD*%
D63*
%TO.P,Q1,1,B*%
%TO.N,STM32_TO_DRA_PTT*%
X109780000Y-107500000D03*
%TO.P,Q1,2,E*%
%TO.N,GND*%
X109780000Y-108500000D03*
%TO.P,Q1,3,C*%
%TO.N,/APRS_RADIO/DRA_PTT2*%
X111380000Y-108000000D03*
%TD*%
D64*
%TO.P,IC2,1,IN*%
%TO.N,VBAT_IN*%
X112680000Y-58660000D03*
%TO.P,IC2,2,GND*%
%TO.N,GND*%
X112680000Y-59610000D03*
%TO.P,IC2,3,EN*%
%TO.N,OCP_EN*%
X112680000Y-60560000D03*
%TO.P,IC2,4,FAULT*%
%TO.N,OCP_NFAULT*%
X115180000Y-60560000D03*
%TO.P,IC2,5,ILIM*%
%TO.N,/OCP/ILIM*%
X115180000Y-59610000D03*
%TO.P,IC2,6,OUT*%
%TO.N,+3V3*%
X115180000Y-58660000D03*
%TD*%
D26*
%TO.P,R1,1*%
%TO.N,/MCU/STM32_BOOT*%
X176940000Y-98420000D03*
%TO.P,R1,2*%
%TO.N,Net-(S1-C)*%
X176940000Y-100420000D03*
%TD*%
D24*
%TO.P,C14,1*%
%TO.N,/MCU/VDDRF1V55*%
X160207500Y-58120000D03*
%TO.P,C14,2*%
%TO.N,GND*%
X161932500Y-58120000D03*
%TD*%
D27*
%TO.P,SMA2,1*%
%TO.N,/APRS_RADIO/DRA_ANT*%
X182560000Y-114480000D03*
D28*
%TO.P,SMA2,G1*%
%TO.N,GND*%
X180160000Y-112080000D03*
%TO.P,SMA2,G2*%
X180160000Y-116880000D03*
%TO.P,SMA2,G3*%
X184960000Y-116880000D03*
%TO.P,SMA2,G4*%
X184960000Y-112080000D03*
%TD*%
D26*
%TO.P,R4,1*%
%TO.N,DRA_TO_STM32_ADC*%
X116477500Y-124495000D03*
%TO.P,R4,2*%
%TO.N,/APRS_RADIO/3V3_DRA*%
X116477500Y-126495000D03*
%TD*%
D41*
%TO.P,C3,1*%
%TO.N,GND*%
X162600000Y-61062500D03*
%TO.P,C3,2*%
%TO.N,+3V3*%
X162600000Y-62787500D03*
%TD*%
D33*
%TO.P,H1,1*%
%TO.N,N/C*%
X186200000Y-131350000D03*
D34*
X186200000Y-131350000D03*
%TD*%
D25*
%TO.P,L13,1,1*%
%TO.N,/APRS_RADIO/ANT2*%
X149577500Y-107945000D03*
%TO.P,L13,2,2*%
%TO.N,/APRS_RADIO/DRA_ANT*%
X147277500Y-107945000D03*
%TD*%
D65*
%TO.N,GND*%
X170005000Y-113055000D03*
X161000000Y-113050000D03*
X160755000Y-83870000D03*
X115550000Y-110622500D03*
X156755000Y-87870000D03*
X119710000Y-71610000D03*
X160650600Y-68370000D03*
X159925000Y-63990000D03*
X173005000Y-115905000D03*
X151730000Y-106750000D03*
X168135000Y-61320000D03*
X159000000Y-115900000D03*
X178000000Y-113050000D03*
X150452500Y-113430000D03*
X158755000Y-83870000D03*
X162755000Y-80870000D03*
X151727500Y-98745000D03*
X176655000Y-75770000D03*
X157359478Y-129178410D03*
X169005000Y-113055000D03*
X163005000Y-115905000D03*
X145727500Y-109745000D03*
X136417500Y-91565000D03*
X157000000Y-115900000D03*
X157755000Y-89870000D03*
X174005000Y-115905000D03*
X158630000Y-66090000D03*
X151160000Y-114140000D03*
X166005000Y-115905000D03*
X167660000Y-74770000D03*
X172005000Y-113055000D03*
X156475000Y-60020000D03*
X152060000Y-109840000D03*
X168660000Y-74770000D03*
X168755000Y-94870000D03*
X109772500Y-109570000D03*
X154520000Y-88780000D03*
X179710000Y-68352500D03*
X179655000Y-94770000D03*
X149727500Y-95745000D03*
X151727500Y-95745000D03*
X143520000Y-117580000D03*
X145727500Y-99745000D03*
X158755000Y-89870000D03*
X155000000Y-115900000D03*
X162600000Y-60120000D03*
X116630000Y-104190000D03*
X156755000Y-86870000D03*
X179655000Y-79770000D03*
X162755000Y-75870000D03*
X171000000Y-115900000D03*
X164005000Y-115905000D03*
X164650600Y-68370000D03*
X110930000Y-67230000D03*
X145727500Y-96745000D03*
X179650000Y-81775000D03*
X156755000Y-88870000D03*
X115270000Y-84280000D03*
X162755000Y-89870000D03*
X156000000Y-113050000D03*
X162755000Y-83870000D03*
X154250000Y-67045000D03*
X162913364Y-63976259D03*
X145727500Y-107745000D03*
X179650000Y-88775000D03*
X158000000Y-115900000D03*
X164650600Y-72370000D03*
X172655000Y-75770000D03*
X157935855Y-82188834D03*
X145727500Y-111745000D03*
X147010230Y-58099551D03*
X158190000Y-74330000D03*
X145727500Y-101745000D03*
X164650600Y-70370000D03*
X145727500Y-108745000D03*
X163510000Y-58130000D03*
X173655000Y-75770000D03*
X163755000Y-94870000D03*
X146727500Y-111745000D03*
X166005000Y-113055000D03*
X148727500Y-95745000D03*
X177655000Y-75770000D03*
X162755000Y-79870000D03*
X168005000Y-113055000D03*
X159755000Y-83870000D03*
X118970000Y-80120000D03*
X162755000Y-91870000D03*
X176655000Y-94770000D03*
X156755000Y-83870000D03*
X166660000Y-74770000D03*
X111630000Y-79080000D03*
X178655000Y-75770000D03*
X156755000Y-84870000D03*
X171000000Y-113050000D03*
X169660000Y-75770000D03*
X179650000Y-93775000D03*
X112860000Y-128050000D03*
X159950000Y-60110000D03*
X151727500Y-102745000D03*
X174655000Y-94770000D03*
X167005000Y-115905000D03*
X168660000Y-75770000D03*
X148730000Y-111760000D03*
X119760000Y-69680000D03*
X114110000Y-123130000D03*
X160650600Y-70370000D03*
X139260000Y-68380000D03*
X151730000Y-104750000D03*
X154215000Y-112000000D03*
X162650600Y-72370000D03*
X179655000Y-78770000D03*
X178005000Y-115905000D03*
X167973682Y-70632126D03*
X175005000Y-113055000D03*
X139030000Y-113250000D03*
X145440612Y-87530148D03*
X118090000Y-97250000D03*
X160650600Y-72370000D03*
X168250000Y-65760000D03*
X129980000Y-60500000D03*
X170005000Y-115905000D03*
X175655000Y-75770000D03*
X139090000Y-82560000D03*
X149720000Y-112700000D03*
X166755000Y-94870000D03*
X164005000Y-113055000D03*
X171655000Y-75770000D03*
X126390000Y-82490000D03*
X175655000Y-94770000D03*
X172205000Y-70470000D03*
X167755000Y-94870000D03*
X161755000Y-83870000D03*
X162650600Y-70370000D03*
X145727500Y-100745000D03*
X149137500Y-121347500D03*
X168005000Y-115905000D03*
X174005000Y-113055000D03*
X151727500Y-99745000D03*
X151730000Y-103750000D03*
X156750000Y-76220000D03*
X172317500Y-73600000D03*
X160755000Y-89870000D03*
X162000000Y-115900000D03*
X158728297Y-76080943D03*
X157288056Y-79455729D03*
X161000000Y-115900000D03*
X151732500Y-107755000D03*
X147931889Y-63500436D03*
X154000000Y-115900000D03*
X165755000Y-94870000D03*
X120230000Y-97190000D03*
X174255000Y-70270000D03*
X145727500Y-102745000D03*
X171240000Y-65620000D03*
X107792500Y-110360000D03*
X173655000Y-94770000D03*
X147870000Y-70070000D03*
X122720000Y-97745000D03*
X145727500Y-105745000D03*
X162000000Y-113050000D03*
X114640000Y-101980000D03*
X151875000Y-114860000D03*
X179655000Y-77770000D03*
X167660000Y-75770000D03*
X162755000Y-94870000D03*
X107960000Y-62100000D03*
X151727500Y-96745000D03*
X154381752Y-85043750D03*
X184610000Y-99000000D03*
X162755000Y-81870000D03*
X165005000Y-113055000D03*
X147727500Y-95745000D03*
X163005000Y-113055000D03*
X176899620Y-96470380D03*
X156909450Y-81063603D03*
X147727500Y-111745000D03*
X115990000Y-97240000D03*
X179650000Y-89775000D03*
X152792500Y-110570000D03*
X159000000Y-113050000D03*
X145727500Y-95745000D03*
X145727500Y-106745000D03*
X118620000Y-128130000D03*
X150727500Y-95745000D03*
X163984709Y-60130000D03*
X169005000Y-115905000D03*
X179655000Y-80770000D03*
X177946250Y-66550000D03*
X154950000Y-112730000D03*
X107590000Y-105470000D03*
X151727500Y-100745000D03*
X157755000Y-83870000D03*
X146440000Y-83830000D03*
X156755000Y-89870000D03*
X141230000Y-65580000D03*
X162755000Y-77870000D03*
X170655000Y-94770000D03*
X158185380Y-77855380D03*
X155160000Y-76180000D03*
X172005000Y-115905000D03*
X162755000Y-76870000D03*
X115470000Y-64500000D03*
X162755000Y-93870000D03*
X165005000Y-115905000D03*
X163225202Y-64800202D03*
X174655000Y-75770000D03*
X158260000Y-60090000D03*
X172655000Y-94770000D03*
X151782858Y-72669549D03*
X164755000Y-94870000D03*
X160000000Y-115900000D03*
X151727500Y-101745000D03*
X156000000Y-115900000D03*
X176005000Y-115905000D03*
X179650000Y-90775000D03*
X145727500Y-98745000D03*
X113080000Y-84320000D03*
X176905000Y-68920000D03*
X114140000Y-71310000D03*
X172150000Y-68975000D03*
X177005000Y-115905000D03*
X145727500Y-103745000D03*
X113740000Y-85030000D03*
X166532500Y-61360000D03*
X162755000Y-82870000D03*
X157000000Y-113050000D03*
X159755000Y-89870000D03*
X179655000Y-76770000D03*
X117190000Y-63490000D03*
X177655000Y-94770000D03*
X162755000Y-92870000D03*
X165800721Y-65498920D03*
X153827500Y-126387500D03*
X170655000Y-75770000D03*
X121580000Y-110410000D03*
X151727500Y-97745000D03*
X178655000Y-94770000D03*
X179650000Y-91775000D03*
X171655000Y-94770000D03*
X162650600Y-68370000D03*
X145727500Y-104745000D03*
X167005000Y-113055000D03*
X146754240Y-89907701D03*
X179655000Y-75770000D03*
X177005000Y-113055000D03*
X157340000Y-126470000D03*
X179650000Y-92775000D03*
X151730000Y-105750000D03*
X158000000Y-113050000D03*
X175005000Y-115905000D03*
X166660000Y-75770000D03*
X108460000Y-95350000D03*
X111290000Y-59620000D03*
X166680386Y-65793057D03*
X146727500Y-95745000D03*
X151740000Y-108760000D03*
X152610000Y-115590000D03*
X140950000Y-74650000D03*
X160000000Y-113050000D03*
X150400000Y-71400000D03*
X161755000Y-89870000D03*
X155550000Y-68450000D03*
X131857500Y-91355000D03*
X153500000Y-111280000D03*
X176005000Y-113055000D03*
X169755000Y-94870000D03*
X150590000Y-67320000D03*
X145727500Y-110745000D03*
X173005000Y-113055000D03*
X162755000Y-78870000D03*
X172180000Y-60260000D03*
%TO.N,SPI1_CS*%
X147910000Y-58120000D03*
%TO.N,OCP_EN*%
X110990000Y-60560000D03*
%TO.N,STM32_NRST*%
X157777038Y-81302955D03*
X153560000Y-84450000D03*
%TO.N,/MCU/VDDRF1V55*%
X171300000Y-61080000D03*
X163610000Y-59230000D03*
%TO.N,DRA_TO_STM32_ADC*%
X114210000Y-128000000D03*
X168800000Y-66590000D03*
%TO.N,Net-(J1-Pin_6)*%
X138970000Y-67300000D03*
X140160000Y-75380000D03*
%TO.N,/APRS_RADIO/3V3_DRA*%
X116480000Y-128020000D03*
X156120000Y-126480000D03*
%TO.N,OCP_NFAULT*%
X116440000Y-64480000D03*
X164910000Y-65370000D03*
%TO.N,JTCK_SWCLK_TO_STM32*%
X162725601Y-65705000D03*
X147848829Y-69170247D03*
%TO.N,JTMS_SWDIO_TO_STM32*%
X147960000Y-64400000D03*
X167410000Y-66320000D03*
%TO.N,/MCU/STM32_BOOT*%
X158550000Y-82880000D03*
X175780000Y-96450000D03*
%TO.N,STM32_DAC_TO_DRA*%
X170450000Y-65180000D03*
X157400000Y-130077500D03*
%TO.N,RF_CRL_TO_STM32*%
X154425000Y-90175000D03*
X156750709Y-80177710D03*
%TO.N,JTDO_SWO_TO_STM32*%
X157973392Y-66926608D03*
X150590000Y-66420000D03*
%TO.N,STM32_TO_DRA_PTT*%
X145870000Y-89740000D03*
X158623374Y-77054545D03*
%TO.N,STM32_TO_DRA_ENA*%
X145090000Y-88450000D03*
X158720000Y-75170000D03*
%TO.N,DRA_SQ_TO_STM32*%
X147560000Y-91370000D03*
X157776994Y-78700120D03*
%TO.N,+3V3*%
X109810000Y-95440000D03*
X167675000Y-73575000D03*
X114620000Y-100690000D03*
X167544596Y-71494999D03*
X160673163Y-64490256D03*
X162200000Y-64525000D03*
%TO.N,UART_RX*%
X152745000Y-72875000D03*
X113730000Y-86320000D03*
%TO.N,UART2_TX*%
X151060000Y-72130000D03*
X115980000Y-85340000D03*
%TO.N,DRA_TX_UART1_RX*%
X156131350Y-69137049D03*
X142200000Y-117550000D03*
%TO.N,DRA_RX_UART1_TX*%
X154875000Y-67775000D03*
X140200000Y-113220000D03*
%TD*%
D66*
%TO.N,GND*%
X107960000Y-62100000D02*
X107930000Y-62070000D01*
X170935000Y-73570000D02*
X172287500Y-73570000D01*
X183300000Y-99000000D02*
X184610000Y-99000000D01*
X159940000Y-60120000D02*
X159940000Y-60817500D01*
X174210000Y-84790000D02*
X175635000Y-84790000D01*
X109780000Y-109562500D02*
X109772500Y-109570000D01*
X116630000Y-102887500D02*
X116550000Y-102807500D01*
X147390000Y-109995000D02*
X145977500Y-109995000D01*
X110599000Y-75077000D02*
X109300000Y-73778000D01*
X110710000Y-67230000D02*
X109300000Y-68640000D01*
X129940000Y-60540000D02*
X129980000Y-60500000D01*
X161325000Y-85950000D02*
X163737500Y-85950000D01*
X145727500Y-101745000D02*
X147377500Y-101745000D01*
D67*
X158630000Y-66090000D02*
X158780000Y-65940000D01*
D66*
X151602500Y-97620000D02*
X151727500Y-97745000D01*
X155147500Y-74927500D02*
X155147500Y-76167500D01*
X156750000Y-76220000D02*
X156750000Y-74930000D01*
D67*
X177946250Y-66550000D02*
X176847500Y-66550000D01*
D66*
X110930000Y-67230000D02*
X110710000Y-67230000D01*
X172200000Y-70475000D02*
X172205000Y-70470000D01*
X136417500Y-94112500D02*
X136405000Y-94125000D01*
X160755000Y-83870000D02*
X160755000Y-85380000D01*
X163500000Y-58120000D02*
X163510000Y-58130000D01*
X109412000Y-71290000D02*
X111960000Y-71290000D01*
X167455000Y-90232500D02*
X169695000Y-90232500D01*
X118930000Y-80160000D02*
X118970000Y-80120000D01*
X162755000Y-89870000D02*
X163375000Y-89250000D01*
D68*
X176520000Y-80810000D02*
X176520000Y-78787500D01*
D66*
X168435000Y-75995000D02*
X168660000Y-75770000D01*
X166532500Y-61360000D02*
X166532500Y-62280000D01*
X155147500Y-76167500D02*
X155160000Y-76180000D01*
X149495000Y-97620000D02*
X151602500Y-97620000D01*
X177575000Y-87000000D02*
X177875000Y-87000000D01*
D68*
X172065000Y-86405000D02*
X169010000Y-83350000D01*
X169010000Y-83350000D02*
X168410000Y-83350000D01*
D66*
X147852500Y-83830000D02*
X147900000Y-83877500D01*
X122720000Y-97745000D02*
X125125000Y-97745000D01*
X119760000Y-69680000D02*
X118332500Y-69680000D01*
X114120000Y-71290000D02*
X114140000Y-71310000D01*
X109300000Y-78260000D02*
X110120000Y-79080000D01*
X172145000Y-68970000D02*
X172150000Y-68975000D01*
X170965000Y-68970000D02*
X172145000Y-68970000D01*
X119640000Y-71680000D02*
X118120000Y-71680000D01*
X176905000Y-68920000D02*
X176080000Y-68920000D01*
X170975000Y-70475000D02*
X172200000Y-70475000D01*
X162107500Y-58120000D02*
X163500000Y-58120000D01*
X111875000Y-75750000D02*
X111875000Y-75077000D01*
X169095000Y-77890000D02*
X168435000Y-77230000D01*
D68*
X175740000Y-81590000D02*
X176520000Y-80810000D01*
D66*
X111290000Y-59620000D02*
X112670000Y-59620000D01*
X167290000Y-89250000D02*
X167455000Y-89415000D01*
X168135000Y-61320000D02*
X168135000Y-62302500D01*
X115990000Y-97240000D02*
X115990000Y-95847500D01*
X114110000Y-123130000D02*
X114110000Y-124487500D01*
X113080000Y-84320000D02*
X111365000Y-84320000D01*
X115550000Y-109167500D02*
X115550000Y-110622500D01*
X121602500Y-108870000D02*
X121602500Y-110387500D01*
X156475000Y-60020000D02*
X156475000Y-60847500D01*
X168135000Y-62302500D02*
X168132500Y-62305000D01*
X117567500Y-80160000D02*
X118930000Y-80160000D01*
D68*
X168410000Y-83350000D02*
X169960000Y-83350000D01*
D66*
X141230000Y-67270000D02*
X141180000Y-67320000D01*
X109300000Y-71402000D02*
X109412000Y-71290000D01*
X109300000Y-76540000D02*
X111085000Y-76540000D01*
X118090000Y-97250000D02*
X118090000Y-95827500D01*
X112670000Y-59620000D02*
X112680000Y-59610000D01*
X117190000Y-62040000D02*
X117190000Y-63490000D01*
X127077500Y-60540000D02*
X129940000Y-60540000D01*
X147377500Y-101745000D02*
X147402500Y-101770000D01*
X119710000Y-71610000D02*
X119640000Y-71680000D01*
X179655000Y-77770000D02*
X177537500Y-77770000D01*
D67*
X158780000Y-65940000D02*
X159472590Y-65940000D01*
D66*
X111960000Y-71290000D02*
X114120000Y-71290000D01*
D67*
X179710000Y-68352500D02*
X178410000Y-68352500D01*
D66*
X115990000Y-95847500D02*
X115970000Y-95827500D01*
X156475000Y-60847500D02*
X156512500Y-60885000D01*
X167455000Y-89415000D02*
X167455000Y-90232500D01*
X146440000Y-83830000D02*
X147852500Y-83830000D01*
X147900000Y-83877500D02*
X150502500Y-83877500D01*
X125125000Y-97745000D02*
X125280000Y-97900000D01*
X110120000Y-79080000D02*
X111630000Y-79080000D01*
X163375000Y-89250000D02*
X167290000Y-89250000D01*
X116630000Y-104190000D02*
X116630000Y-102887500D01*
X174655000Y-92675000D02*
X174175000Y-92195000D01*
X137417500Y-82570000D02*
X139080000Y-82570000D01*
X153827500Y-126387500D02*
X153827500Y-124932500D01*
D68*
X176520000Y-78787500D02*
X177387500Y-77920000D01*
D66*
X160755000Y-85380000D02*
X161325000Y-85950000D01*
X149137500Y-122830000D02*
X149180000Y-122872500D01*
X153827500Y-124932500D02*
X153805000Y-124910000D01*
D67*
X159472590Y-65940000D02*
X159900600Y-66368010D01*
D66*
X145852500Y-105870000D02*
X145727500Y-105745000D01*
X110353000Y-70103000D02*
X111875000Y-70103000D01*
X131805000Y-91407500D02*
X131857500Y-91355000D01*
X175635000Y-84790000D02*
X179655000Y-80770000D01*
X107792500Y-110360000D02*
X107792500Y-109062500D01*
X109300000Y-69050000D02*
X110353000Y-70103000D01*
X168435000Y-77230000D02*
X168435000Y-75995000D01*
X149137500Y-121347500D02*
X149137500Y-122830000D01*
X136417500Y-91565000D02*
X136417500Y-94112500D01*
X107930000Y-62070000D02*
X107930000Y-60747500D01*
X120230000Y-95887500D02*
X120310000Y-95807500D01*
X159940000Y-60817500D02*
X159897500Y-60860000D01*
X141230000Y-65580000D02*
X141230000Y-67270000D01*
X177875000Y-87000000D02*
X179650000Y-88775000D01*
X126390000Y-82490000D02*
X128360000Y-82490000D01*
X107792500Y-109062500D02*
X107780000Y-109050000D01*
X163737500Y-85950000D02*
X163755000Y-85932500D01*
X177537500Y-77770000D02*
X177387500Y-77920000D01*
X150502500Y-83877500D02*
X150680000Y-84055000D01*
D68*
X172065000Y-87380000D02*
X172065000Y-86405000D01*
D66*
X114110000Y-124487500D02*
X114102500Y-124495000D01*
X118332500Y-69680000D02*
X118262500Y-69610000D01*
X111875000Y-75077000D02*
X110599000Y-75077000D01*
X109780000Y-108500000D02*
X109780000Y-109562500D01*
X145977500Y-109995000D02*
X145727500Y-109745000D01*
X174655000Y-94770000D02*
X174655000Y-92675000D01*
X147427500Y-105870000D02*
X145852500Y-105870000D01*
X169095000Y-79405000D02*
X169095000Y-77890000D01*
X162600000Y-60120000D02*
X162600000Y-61062500D01*
X109300000Y-76540000D02*
X109300000Y-78260000D01*
X139080000Y-82570000D02*
X139090000Y-82560000D01*
X166532500Y-62280000D02*
X166490000Y-62322500D01*
X131805000Y-94125000D02*
X131805000Y-91407500D01*
X111085000Y-76540000D02*
X111875000Y-75750000D01*
X109300000Y-68640000D02*
X109300000Y-69050000D01*
X121602500Y-110387500D02*
X121580000Y-110410000D01*
D67*
X159900600Y-66368010D02*
X159900600Y-66915600D01*
D66*
X120230000Y-97190000D02*
X120230000Y-95887500D01*
X159950000Y-60110000D02*
X159940000Y-60120000D01*
D68*
X169960000Y-83350000D02*
X171720000Y-81590000D01*
D66*
X118090000Y-95827500D02*
X118110000Y-95807500D01*
X158260000Y-60090000D02*
X158260000Y-60852500D01*
D68*
X171720000Y-81590000D02*
X175740000Y-81590000D01*
D66*
X174255000Y-70270000D02*
X175030000Y-70270000D01*
D68*
%TO.N,SPI1_MISO*%
X158282899Y-68119999D02*
X150000000Y-59837100D01*
X159196200Y-68119999D02*
X158282899Y-68119999D01*
X150000000Y-59837100D02*
X150000000Y-54490000D01*
%TO.N,SPI1_SCK*%
X146334000Y-54023595D02*
X147137595Y-53220000D01*
X159196200Y-71120001D02*
X155370001Y-71120001D01*
X155370001Y-71120001D02*
X151700000Y-67450000D01*
X151700000Y-67450000D02*
X151700000Y-66000000D01*
X146334000Y-60634000D02*
X146334000Y-54023595D01*
X151700000Y-66000000D02*
X146334000Y-60634000D01*
X148730000Y-53220000D02*
X150000000Y-51950000D01*
X147137595Y-53220000D02*
X148730000Y-53220000D01*
D69*
%TO.N,SPI1_CS*%
X147910000Y-60420000D02*
X153075000Y-65585000D01*
X156190000Y-70620000D02*
X159196200Y-70620000D01*
X153075000Y-65585000D02*
X153075000Y-67505000D01*
X153075000Y-67505000D02*
X156190000Y-70620000D01*
X147910000Y-58120000D02*
X147910000Y-60420000D01*
D68*
%TO.N,SPI1_MOSI*%
X157510001Y-68620001D02*
X148874000Y-59984000D01*
X149667595Y-53230000D02*
X151260000Y-53230000D01*
X148874000Y-54023595D02*
X149667595Y-53230000D01*
X148874000Y-59984000D02*
X148874000Y-54023595D01*
X159196200Y-68620001D02*
X157510001Y-68620001D01*
X151260000Y-53230000D02*
X152540000Y-51950000D01*
D69*
%TO.N,OCP_EN*%
X110990000Y-60560000D02*
X112680000Y-60560000D01*
D70*
%TO.N,VBAT_IN*%
X110620000Y-62890000D02*
X113020000Y-62890000D01*
X124310000Y-57320000D02*
X127140000Y-54490000D01*
X109095000Y-58660000D02*
X112680000Y-58660000D01*
X109610000Y-60352500D02*
X109610000Y-61910000D01*
X109640000Y-61910000D02*
X110620000Y-62890000D01*
X114020000Y-57320000D02*
X124310000Y-57320000D01*
X107930000Y-58672500D02*
X109610000Y-60352500D01*
X107930000Y-58672500D02*
X109082500Y-58672500D01*
X109082500Y-58672500D02*
X109095000Y-58660000D01*
X109610000Y-61910000D02*
X109640000Y-61910000D01*
X112680000Y-58660000D02*
X114020000Y-57320000D01*
%TO.N,/APRS_RADIO/3V3_DRA1*%
X151555000Y-122872500D02*
X153767500Y-122872500D01*
X156067500Y-122835000D02*
X156130000Y-122897500D01*
X153767500Y-122872500D02*
X153805000Y-122835000D01*
X153805000Y-122835000D02*
X156067500Y-122835000D01*
%TO.N,/MCU/VDDA*%
X169975000Y-63150000D02*
X168920000Y-64205000D01*
X168920000Y-64205000D02*
X168132500Y-64205000D01*
D67*
X166490000Y-64222500D02*
X164757500Y-64222500D01*
D70*
X166507500Y-64205000D02*
X166490000Y-64222500D01*
D67*
X163400601Y-65579399D02*
X163400601Y-66915600D01*
D70*
X168132500Y-64205000D02*
X166507500Y-64205000D01*
D67*
X164757500Y-64222500D02*
X163400601Y-65579399D01*
D70*
X168787500Y-58600000D02*
X169975000Y-59787500D01*
X169975000Y-59787500D02*
X169975000Y-63150000D01*
D69*
%TO.N,STM32_NRST*%
X161160000Y-78520000D02*
X158377045Y-81302955D01*
X153020000Y-84450000D02*
X150680000Y-82110000D01*
X153560000Y-84450000D02*
X153020000Y-84450000D01*
X158377045Y-81302955D02*
X157777038Y-81302955D01*
X150680000Y-82110000D02*
X150680000Y-81705000D01*
X147900000Y-81802500D02*
X150582500Y-81802500D01*
X150582500Y-81802500D02*
X150680000Y-81705000D01*
X147900000Y-81802500D02*
X147900000Y-78080000D01*
X147900000Y-78080000D02*
X144760000Y-74940000D01*
X162400600Y-73824400D02*
X162400600Y-74692300D01*
X162400600Y-74692300D02*
X161160000Y-75932900D01*
X161160000Y-75932900D02*
X161160000Y-78520000D01*
D70*
%TO.N,/MCU/VDDRF1V55*%
X163600000Y-59220000D02*
X161307500Y-59220000D01*
X172141000Y-61921000D02*
X172141000Y-66069000D01*
D67*
X161400600Y-64263100D02*
X159897500Y-62760000D01*
X168330000Y-68970000D02*
X169240000Y-68970000D01*
D70*
X163610000Y-59230000D02*
X163600000Y-59220000D01*
D67*
X167299000Y-70001000D02*
X168330000Y-68970000D01*
X161050000Y-58962500D02*
X160207500Y-58120000D01*
D70*
X171300000Y-61080000D02*
X172141000Y-61921000D01*
D67*
X161400600Y-66915600D02*
X161400600Y-64263100D01*
D70*
X172141000Y-66069000D02*
X169240000Y-68970000D01*
D67*
X159897500Y-62760000D02*
X161050000Y-61607500D01*
X166105000Y-71120001D02*
X166790399Y-71120001D01*
X166790399Y-71120001D02*
X167299000Y-70611400D01*
D70*
X158460000Y-58140000D02*
X160187500Y-58140000D01*
X169280000Y-68970000D02*
X169240000Y-68970000D01*
X161307500Y-59220000D02*
X160207500Y-58120000D01*
D67*
X167299000Y-70611400D02*
X167299000Y-70001000D01*
X161050000Y-61607500D02*
X161050000Y-58962500D01*
%TO.N,VR_PA*%
X165400600Y-73824400D02*
X165400600Y-76270600D01*
D70*
X168985000Y-81370000D02*
X169220000Y-81370000D01*
X167020000Y-79405000D02*
X167020000Y-77890000D01*
D67*
X165400600Y-76270600D02*
X166360000Y-77230000D01*
D70*
X167020000Y-79405000D02*
X168985000Y-81370000D01*
X167020000Y-77890000D02*
X166360000Y-77230000D01*
D69*
%TO.N,RFI_P*%
X165210000Y-87110000D02*
X165210000Y-83660000D01*
X166525000Y-87620000D02*
X165720000Y-87620000D01*
X165210000Y-83660000D02*
X163400601Y-81850601D01*
X166525000Y-87325000D02*
X168220000Y-85630000D01*
X163400601Y-81850601D02*
X163400601Y-73824400D01*
X166525000Y-87620000D02*
X166525000Y-87325000D01*
X165720000Y-87620000D02*
X165210000Y-87110000D01*
D68*
%TO.N,/MCU/STM32_OSC_IN*%
X176080000Y-70550000D02*
X176080000Y-70270000D01*
X166105000Y-72620001D02*
X172854999Y-72620001D01*
X176160000Y-70270000D02*
X176177500Y-70252500D01*
X176177500Y-70252500D02*
X178410000Y-70252500D01*
X175610000Y-71020000D02*
X176080000Y-70550000D01*
X176080000Y-70270000D02*
X176160000Y-70270000D01*
X174455000Y-71020000D02*
X175610000Y-71020000D01*
X172854999Y-72620001D02*
X174455000Y-71020000D01*
D69*
%TO.N,RFI_N*%
X165747500Y-83350000D02*
X166335000Y-83350000D01*
X166257500Y-83270000D02*
X166307500Y-83220000D01*
X166335000Y-83350000D02*
X166335000Y-85525000D01*
X163900600Y-73824400D02*
X163900600Y-81503100D01*
X166335000Y-85525000D02*
X166440000Y-85630000D01*
X163900600Y-81503100D02*
X165747500Y-83350000D01*
D68*
%TO.N,/MCU/STM32_OSC_OUT*%
X174947500Y-66550000D02*
X174947500Y-68837500D01*
X166105000Y-72119999D02*
X171780001Y-72119999D01*
X174947500Y-68837500D02*
X175030000Y-68920000D01*
X173630000Y-70270000D02*
X173630000Y-69250000D01*
X174755000Y-68645000D02*
X175030000Y-68920000D01*
X171780001Y-72119999D02*
X173630000Y-70270000D01*
X174235000Y-68645000D02*
X174755000Y-68645000D01*
X173630000Y-69250000D02*
X174235000Y-68645000D01*
D69*
%TO.N,DRA_TO_STM32_ADC*%
X116102500Y-124495000D02*
X114102500Y-126495000D01*
X117840000Y-117980000D02*
X117680000Y-118140000D01*
X114102500Y-127892500D02*
X114210000Y-128000000D01*
X117680000Y-123292500D02*
X116477500Y-124495000D01*
X114102500Y-126495000D02*
X114102500Y-127892500D01*
X116477500Y-124495000D02*
X116102500Y-124495000D01*
D67*
X168800000Y-66610399D02*
X168800000Y-66590000D01*
X166790398Y-68620001D02*
X168800000Y-66610399D01*
X166105000Y-68620001D02*
X166790398Y-68620001D01*
D69*
X117680000Y-118140000D02*
X117680000Y-123292500D01*
%TO.N,/APRS_RADIO/DRA_PTT2*%
X118540000Y-109460000D02*
X116172500Y-107092500D01*
X113717500Y-107075000D02*
X113725000Y-107067500D01*
X119100000Y-109022500D02*
X119100000Y-108917500D01*
X113250000Y-107130000D02*
X115512500Y-107130000D01*
X115512500Y-107130000D02*
X115550000Y-107092500D01*
X111380000Y-108000000D02*
X112380000Y-108000000D01*
X116172500Y-107092500D02*
X115550000Y-107092500D01*
X119102500Y-109020000D02*
X119100000Y-109022500D01*
X112380000Y-108000000D02*
X113250000Y-107130000D01*
D70*
%TO.N,+5V*%
X120482500Y-85150000D02*
X131570000Y-85150000D01*
X132960000Y-83760000D02*
X132960000Y-82490000D01*
X131570000Y-85150000D02*
X132960000Y-83760000D01*
X115492500Y-77637500D02*
X115492500Y-80160000D01*
X115492500Y-80160000D02*
X120482500Y-85150000D01*
X135262500Y-82490000D02*
X135342500Y-82570000D01*
X132960000Y-82490000D02*
X135262500Y-82490000D01*
X116316550Y-76813450D02*
X115492500Y-77637500D01*
D69*
%TO.N,/APRS_RADIO/AF_OUT2*%
X117840000Y-115905000D02*
X118197500Y-115905000D01*
X118197500Y-115905000D02*
X120250000Y-117957500D01*
%TO.N,/APRS_RADIO/AF_OUT*%
X120250000Y-115882500D02*
X125097500Y-115882500D01*
X125097500Y-115882500D02*
X125280000Y-115700000D01*
X125280000Y-114867500D02*
X125280000Y-115700000D01*
%TO.N,/APRS_RADIO/MIC_IN1*%
X149167500Y-124960000D02*
X149180000Y-124947500D01*
X151480000Y-124947500D02*
X151555000Y-124872500D01*
X146880000Y-124960000D02*
X146880000Y-126622500D01*
X146905000Y-124985000D02*
X146880000Y-124960000D01*
X146880000Y-126622500D02*
X147360000Y-127102500D01*
X149180000Y-124947500D02*
X151480000Y-124947500D01*
X146880000Y-124960000D02*
X149167500Y-124960000D01*
D66*
%TO.N,/IO_CONN/VBUS*%
X111960000Y-73890000D02*
X111965000Y-73885000D01*
X116444450Y-73885000D02*
X116490000Y-73930550D01*
X111965000Y-73885000D02*
X116444450Y-73885000D01*
D69*
%TO.N,Net-(J1-Pin_6)*%
X140160000Y-75380000D02*
X141180000Y-76400000D01*
X138970000Y-64550000D02*
X138970000Y-67300000D01*
X137780000Y-63360000D02*
X138970000Y-64550000D01*
X141180000Y-76400000D02*
X141180000Y-77480000D01*
X137131450Y-63360000D02*
X137780000Y-63360000D01*
D68*
%TO.N,/APRS_RADIO/DRA_ANT_NO_FILTER*%
X142930000Y-97900000D02*
X147140000Y-97900000D01*
X147252500Y-99720000D02*
X147252500Y-97787500D01*
X147252500Y-97787500D02*
X147420000Y-97620000D01*
X147140000Y-97900000D02*
X147420000Y-97620000D01*
%TO.N,/APRS_RADIO/ANT1*%
X149552500Y-99720000D02*
X149552500Y-101695000D01*
X149477500Y-101770000D02*
X149477500Y-103745000D01*
X149477500Y-103745000D02*
X149552500Y-103820000D01*
X149552500Y-101695000D02*
X149477500Y-101770000D01*
%TO.N,/APRS_RADIO/ANT2*%
X149577500Y-105945000D02*
X149502500Y-105870000D01*
X149502500Y-105870000D02*
X149302500Y-105870000D01*
X149302500Y-105870000D02*
X147252500Y-103820000D01*
X149577500Y-107945000D02*
X149577500Y-105945000D01*
D69*
%TO.N,/APRS_RADIO/MIC_IN*%
X142930000Y-124600000D02*
X144770000Y-124600000D01*
X144770000Y-124600000D02*
X146485000Y-122885000D01*
X146485000Y-122885000D02*
X146880000Y-122885000D01*
%TO.N,/APRS_RADIO/DRA_PTT*%
X125275000Y-106795000D02*
X125280000Y-106800000D01*
X121602500Y-106795000D02*
X125275000Y-106795000D01*
X118540000Y-106485000D02*
X121292500Y-106485000D01*
X121292500Y-106485000D02*
X121602500Y-106795000D01*
D70*
%TO.N,/APRS_RADIO/3V3_DRA*%
X126812500Y-93732500D02*
X127205000Y-94125000D01*
X156120000Y-124907500D02*
X156130000Y-124897500D01*
X113255000Y-96467500D02*
X115970000Y-93752500D01*
X113250000Y-111820000D02*
X112210000Y-112860000D01*
X121790000Y-99420000D02*
X120440000Y-100770000D01*
X115970000Y-93752500D02*
X118090000Y-93752500D01*
X156120000Y-126480000D02*
X156120000Y-124907500D01*
X109752500Y-96467500D02*
X105180000Y-101040000D01*
X121790000Y-95212500D02*
X121790000Y-99420000D01*
X115927500Y-93710000D02*
X115970000Y-93752500D01*
X118110000Y-93732500D02*
X120310000Y-93732500D01*
X112210000Y-112860000D02*
X107210000Y-112860000D01*
X116477500Y-126495000D02*
X116477500Y-128017500D01*
X118702500Y-126570000D02*
X116552500Y-126570000D01*
X116477500Y-128017500D02*
X116480000Y-128020000D01*
X105180000Y-122730000D02*
X112280000Y-129830000D01*
X116480000Y-129060000D02*
X116480000Y-128020000D01*
X112280000Y-129830000D02*
X115710000Y-129830000D01*
X105180000Y-110830000D02*
X105180000Y-122730000D01*
X107210000Y-112860000D02*
X105180000Y-110830000D01*
X113130000Y-96467500D02*
X109752500Y-96467500D01*
X115710000Y-129830000D02*
X116480000Y-129060000D01*
X113250000Y-109130000D02*
X113250000Y-111820000D01*
X116552500Y-126570000D02*
X116477500Y-126495000D01*
X120310000Y-93732500D02*
X126812500Y-93732500D01*
X105180000Y-101040000D02*
X105180000Y-110830000D01*
X113130000Y-96467500D02*
X113255000Y-96467500D01*
X120310000Y-93732500D02*
X121790000Y-95212500D01*
X118090000Y-93752500D02*
X118110000Y-93732500D01*
%TO.N,/OCP/D6_TO_R9*%
X115850000Y-71410000D02*
X116120000Y-71680000D01*
X115850000Y-69580000D02*
X115850000Y-71410000D01*
%TO.N,/OCP/ILIM*%
X116760000Y-59610000D02*
X117190000Y-60040000D01*
X115180000Y-59610000D02*
X116760000Y-59610000D01*
D68*
%TO.N,/APRS_RADIO/DRA_ANT*%
X147415000Y-107945000D02*
X149465000Y-109995000D01*
X156021068Y-114480000D02*
X182560000Y-114480000D01*
X149465000Y-109995000D02*
X152485534Y-113015534D01*
X147277500Y-107945000D02*
X147415000Y-107945000D01*
X156021068Y-114480000D02*
G75*
G02*
X152485550Y-113015518I32J5000000D01*
G01*
D69*
%TO.N,OCP_NFAULT*%
X115020000Y-63060000D02*
X116440000Y-64480000D01*
X115020000Y-62890000D02*
X115020000Y-63060000D01*
X115020000Y-60720000D02*
X115180000Y-60560000D01*
X115020000Y-62890000D02*
X115020000Y-60720000D01*
X164900601Y-66915600D02*
X164900601Y-65379399D01*
X164900601Y-65379399D02*
X164910000Y-65370000D01*
%TO.N,Net-(J1-Pin_4)*%
X148860000Y-70140000D02*
X148860000Y-67720000D01*
X146600000Y-72400000D02*
X148860000Y-70140000D01*
X141180000Y-72400000D02*
X146600000Y-72400000D01*
D68*
%TO.N,JTCK_SWCLK_TO_STM32*%
X162725601Y-65705000D02*
X162735000Y-65705000D01*
X147159076Y-69860000D02*
X147848829Y-69170247D01*
X162900600Y-65870600D02*
X162900600Y-66915600D01*
X162735000Y-65705000D02*
X162900600Y-65870600D01*
X144760000Y-69860000D02*
X147159076Y-69860000D01*
%TO.N,JTMS_SWDIO_TO_STM32*%
X167410000Y-66920000D02*
X166710000Y-67620000D01*
X167410000Y-66320000D02*
X167410000Y-66920000D01*
X166710000Y-67620000D02*
X166105000Y-67620000D01*
D67*
X147580000Y-64780000D02*
X147960000Y-64400000D01*
X144760000Y-64780000D02*
X147580000Y-64780000D01*
D68*
%TO.N,RFO_HP*%
X164900601Y-73824400D02*
X164900601Y-78818101D01*
X164900601Y-78818101D02*
X165240000Y-79157500D01*
D69*
%TO.N,/MCU/STM32_BOOT*%
X162900600Y-74759400D02*
X162900600Y-73824400D01*
X176940000Y-97430000D02*
X176940000Y-98420000D01*
X175780000Y-96450000D02*
X175960000Y-96450000D01*
X158550000Y-82880000D02*
X161790000Y-79640000D01*
X175960000Y-96450000D02*
X176940000Y-97430000D01*
X161790000Y-79640000D02*
X161790000Y-75870000D01*
X161790000Y-75870000D02*
X162900600Y-74759400D01*
%TO.N,Net-(S1-C)*%
X176940000Y-100420000D02*
X178970000Y-100420000D01*
X178970000Y-100420000D02*
X179300000Y-100750000D01*
D67*
%TO.N,STM32_DAC_TO_DRA*%
X170000000Y-66400000D02*
X170000000Y-65630000D01*
X170000000Y-65630000D02*
X170450000Y-65180000D01*
D69*
X157400000Y-130077500D02*
X147360000Y-130077500D01*
D67*
X167280000Y-69120000D02*
X170000000Y-66400000D01*
X166105000Y-69120000D02*
X167280000Y-69120000D01*
D69*
%TO.N,RF_CRL_TO_STM32*%
X157870000Y-80230000D02*
X160560000Y-77540000D01*
X160560000Y-77540000D02*
X160560000Y-75965800D01*
X161900599Y-74625201D02*
X161900599Y-73824400D01*
X155050000Y-90800000D02*
X164612500Y-90800000D01*
X156802999Y-80230000D02*
X157870000Y-80230000D01*
X154425000Y-90175000D02*
X155050000Y-90800000D01*
X160560000Y-75965800D02*
X161900599Y-74625201D01*
X164612500Y-90800000D02*
X165125000Y-90287500D01*
X156750709Y-80177710D02*
X156802999Y-80230000D01*
D68*
%TO.N,JTDO_SWO_TO_STM32*%
X148860000Y-66420000D02*
X150590000Y-66420000D01*
X148860000Y-66420000D02*
X148860000Y-66450000D01*
X157973392Y-66926608D02*
X157973392Y-66973392D01*
X148860000Y-66450000D02*
X149020000Y-66610000D01*
X157973392Y-66973392D02*
X158620000Y-67620000D01*
X158620000Y-67620000D02*
X159196200Y-67620000D01*
%TO.N,/RF/RFIN2*%
X174175000Y-90470000D02*
X175895000Y-90470000D01*
X175895000Y-90470000D02*
X175900000Y-90475000D01*
X172337500Y-92307500D02*
X174175000Y-90470000D01*
X171955000Y-92307500D02*
X172337500Y-92307500D01*
D67*
%TO.N,/RF/RFIN*%
X172065000Y-87780000D02*
X172065000Y-90122500D01*
X172065000Y-90122500D02*
X171955000Y-90232500D01*
D68*
%TO.N,/RF/RF_NODO1*%
X173335000Y-77925000D02*
X173510000Y-77750000D01*
X175487500Y-77920000D02*
X175487500Y-80137500D01*
X175385000Y-80040000D02*
X175485000Y-80140000D01*
X175317500Y-77750000D02*
X175487500Y-77920000D01*
X173335000Y-80040000D02*
X173335000Y-77925000D01*
X175487500Y-80137500D02*
X175485000Y-80140000D01*
X173510000Y-77750000D02*
X175317500Y-77750000D01*
X173335000Y-80040000D02*
X175385000Y-80040000D01*
%TO.N,/RF/RFO_TO_CAP*%
X170100000Y-82320000D02*
X171555000Y-80865000D01*
X166532500Y-80982500D02*
X166920000Y-81370000D01*
X165240000Y-80982500D02*
X166532500Y-80982500D01*
X171435000Y-79920000D02*
X171555000Y-80040000D01*
X166920000Y-81370000D02*
X167870000Y-82320000D01*
X167870000Y-82320000D02*
X170100000Y-82320000D01*
X171555000Y-80865000D02*
X171555000Y-80040000D01*
X171435000Y-77750000D02*
X171435000Y-79920000D01*
%TO.N,/RF/RF_C19_TO_L5*%
X174760000Y-83200000D02*
X177560000Y-80400000D01*
X177560000Y-80400000D02*
X177560000Y-80140000D01*
X174235000Y-83200000D02*
X174760000Y-83200000D01*
%TO.N,/RF/RF2*%
X172485000Y-83200000D02*
X172485000Y-84790000D01*
X172485000Y-87360000D02*
X172465000Y-87380000D01*
X172485000Y-84790000D02*
X172485000Y-87360000D01*
%TO.N,/RF/VDD_SWITCH_RF*%
X164297500Y-88550000D02*
X170895000Y-88550000D01*
X159011250Y-87943750D02*
X161243750Y-87943750D01*
X170895000Y-88550000D02*
X171665000Y-87780000D01*
X163755000Y-88007500D02*
X164297500Y-88550000D01*
X161243750Y-87943750D02*
X161325000Y-88025000D01*
X161325000Y-88025000D02*
X163737500Y-88025000D01*
%TO.N,/RF/RF1*%
X168250000Y-87620000D02*
X168490000Y-87380000D01*
X168490000Y-87380000D02*
X171665000Y-87380000D01*
%TO.N,/RF/SWITCH_TO_CRL*%
X167485000Y-92337500D02*
X167455000Y-92307500D01*
X169725000Y-92337500D02*
X167485000Y-92337500D01*
X172565000Y-87780000D02*
X172465000Y-87780000D01*
X170792500Y-91270000D02*
X172755000Y-91270000D01*
X173155000Y-90870000D02*
X173155000Y-88370000D01*
X167455000Y-92307500D02*
X165145000Y-92307500D01*
X173155000Y-88370000D02*
X172565000Y-87780000D01*
X165145000Y-92307500D02*
X165125000Y-92287500D01*
X169725000Y-92337500D02*
X170792500Y-91270000D01*
X172755000Y-91270000D02*
X173155000Y-90870000D01*
%TO.N,/RF/SMA1*%
X177250000Y-85275000D02*
X177575000Y-85275000D01*
X175900000Y-88175000D02*
X176300000Y-87775000D01*
X177575000Y-85275000D02*
X183925000Y-85275000D01*
X176300000Y-86225000D02*
X177250000Y-85275000D01*
X176300000Y-87775000D02*
X176300000Y-86225000D01*
D69*
%TO.N,STM32_TO_DRA_PTT*%
X130030000Y-91810000D02*
X130030000Y-102390000D01*
X127590000Y-104830000D02*
X116910654Y-104830000D01*
X158815455Y-77054545D02*
X158623374Y-77054545D01*
X145370000Y-90240000D02*
X131600000Y-90240000D01*
X116360346Y-104841000D02*
X116349346Y-104830000D01*
X130030000Y-102390000D02*
X127590000Y-104830000D01*
X160900601Y-73824400D02*
X160900601Y-74430800D01*
X110000000Y-104830000D02*
X107780000Y-107050000D01*
X116349346Y-104830000D02*
X110000000Y-104830000D01*
X159420000Y-76450000D02*
X158815455Y-77054545D01*
X109780000Y-107500000D02*
X108230000Y-107500000D01*
X116899654Y-104841000D02*
X116360346Y-104841000D01*
X131600000Y-90240000D02*
X130030000Y-91810000D01*
X145870000Y-89740000D02*
X145370000Y-90240000D01*
X159420000Y-75911401D02*
X159420000Y-76450000D01*
X116910654Y-104830000D02*
X116899654Y-104841000D01*
X108230000Y-107500000D02*
X107780000Y-107050000D01*
X160900601Y-74430800D02*
X159420000Y-75911401D01*
%TO.N,STM32_TO_DRA_ENA*%
X124860000Y-102770000D02*
X125280000Y-102350000D01*
X160400599Y-74349401D02*
X160400599Y-73824400D01*
X159580000Y-75170000D02*
X160400599Y-74349401D01*
X128700000Y-100280000D02*
X126630000Y-102350000D01*
X145090000Y-88450000D02*
X144340000Y-89200000D01*
X158720000Y-75170000D02*
X159580000Y-75170000D01*
X126630000Y-102350000D02*
X125280000Y-102350000D01*
X130550000Y-89200000D02*
X128700000Y-91050000D01*
X128700000Y-91050000D02*
X128700000Y-100280000D01*
X120440000Y-102770000D02*
X124860000Y-102770000D01*
X144340000Y-89200000D02*
X130550000Y-89200000D01*
%TO.N,Net-(U3-SQ)*%
X120927500Y-124545000D02*
X125225000Y-124545000D01*
X118702500Y-124570000D02*
X120902500Y-124570000D01*
X120902500Y-124570000D02*
X120927500Y-124545000D01*
X125225000Y-124545000D02*
X125280000Y-124600000D01*
%TO.N,DRA_SQ_TO_STM32*%
X157797114Y-78680000D02*
X158280000Y-78680000D01*
X157776994Y-78700120D02*
X157797114Y-78680000D01*
X126965000Y-126545000D02*
X120927500Y-126545000D01*
X160120000Y-76840000D02*
X160120000Y-75820000D01*
X140360000Y-91370000D02*
X138280000Y-93450000D01*
X147560000Y-91370000D02*
X140360000Y-91370000D01*
X121040000Y-126657500D02*
X120927500Y-126545000D01*
X138280000Y-115230000D02*
X126965000Y-126545000D01*
X138280000Y-93450000D02*
X138280000Y-115230000D01*
X160120000Y-75820000D02*
X161400600Y-74539400D01*
X161400600Y-74539400D02*
X161400600Y-73824400D01*
X158280000Y-78680000D02*
X160120000Y-76840000D01*
D70*
%TO.N,+3V3*%
X111365000Y-85320000D02*
X109000288Y-85320000D01*
X122002500Y-62617500D02*
X118262500Y-66357500D01*
X118262500Y-67535000D02*
X121645000Y-67535000D01*
X139020000Y-80620000D02*
X144343750Y-85943750D01*
X130660000Y-76700000D02*
X134248550Y-73111450D01*
X109000288Y-85320000D02*
X106620000Y-82939712D01*
X188910000Y-70280000D02*
X188910000Y-79040000D01*
X153540000Y-74480000D02*
X154817500Y-73202500D01*
X170265000Y-74740000D02*
X169210000Y-73685000D01*
X183850000Y-97250000D02*
X188910000Y-92190000D01*
X115850000Y-67530000D02*
X118257500Y-67530000D01*
X157030000Y-85943750D02*
X156554543Y-85943750D01*
X167087500Y-56975000D02*
X175605000Y-56975000D01*
X154817500Y-73202500D02*
X155147500Y-73202500D01*
X163225000Y-103075000D02*
X180235000Y-103075000D01*
X120122500Y-58660000D02*
X122002500Y-60540000D01*
D67*
X169205000Y-73575000D02*
X169210000Y-73570000D01*
D70*
X114662500Y-100732500D02*
X114620000Y-100690000D01*
X122002500Y-60540000D02*
X122002500Y-62617500D01*
X111397500Y-93492500D02*
X113130000Y-93492500D01*
X130660000Y-77290000D02*
X135690000Y-77290000D01*
X118257500Y-67530000D02*
X118262500Y-67535000D01*
X108210000Y-65920000D02*
X113880000Y-65920000D01*
X106620000Y-82939712D02*
X106620000Y-67510000D01*
X184610000Y-74740000D02*
X170265000Y-74740000D01*
X165462500Y-58600000D02*
X167087500Y-56975000D01*
D67*
X161925000Y-64250000D02*
X161925000Y-63462500D01*
D70*
X144343750Y-85943750D02*
X146093750Y-85943750D01*
X175605000Y-56975000D02*
X188910000Y-70280000D01*
X157030000Y-85943750D02*
X144343750Y-85943750D01*
X130660000Y-76550000D02*
X130660000Y-77290000D01*
X109572788Y-93492500D02*
X106620000Y-90539712D01*
X115490000Y-67530000D02*
X115850000Y-67530000D01*
D67*
X167220000Y-73120000D02*
X167675000Y-73575000D01*
D70*
X109810000Y-95080000D02*
X111397500Y-93492500D01*
X180235000Y-103075000D02*
X181350000Y-101960000D01*
X188910000Y-92190000D02*
X188910000Y-79040000D01*
X106620000Y-90539712D02*
X106620000Y-82939712D01*
D67*
X160673163Y-64490256D02*
X160710000Y-64527093D01*
X157334999Y-72620001D02*
X156750000Y-73205000D01*
D70*
X115180000Y-58660000D02*
X120122500Y-58660000D01*
D67*
X166105000Y-73120000D02*
X167220000Y-73120000D01*
D70*
X155147500Y-73202500D02*
X156747500Y-73202500D01*
X156554543Y-85943750D02*
X153540000Y-82929207D01*
D67*
X167544596Y-71494999D02*
X168230001Y-71494999D01*
D70*
X109810000Y-95440000D02*
X109810000Y-95080000D01*
D67*
X167419595Y-71620000D02*
X166105000Y-71620000D01*
X160710000Y-65334400D02*
X160900601Y-65525001D01*
X168230001Y-71494999D02*
X169250000Y-70475000D01*
X160900601Y-65525001D02*
X160900601Y-66915600D01*
X162200000Y-64525000D02*
X162200000Y-64628918D01*
D70*
X113880000Y-65920000D02*
X115490000Y-67530000D01*
X135690000Y-77290000D02*
X139020000Y-80620000D01*
X130660000Y-77290000D02*
X130660000Y-76700000D01*
X169210000Y-73685000D02*
X169210000Y-73570000D01*
X179300000Y-97250000D02*
X183850000Y-97250000D01*
D67*
X159196200Y-72620001D02*
X157334999Y-72620001D01*
D70*
X121645000Y-67535000D02*
X130660000Y-76550000D01*
X118262500Y-66357500D02*
X118262500Y-67535000D01*
X113130000Y-93492500D02*
X109572788Y-93492500D01*
X159011250Y-85943750D02*
X157030000Y-85943750D01*
D67*
X162200000Y-64525000D02*
X161925000Y-64250000D01*
X167675000Y-73575000D02*
X169205000Y-73575000D01*
X162200000Y-64628918D02*
X161900599Y-64928319D01*
D70*
X106620000Y-67510000D02*
X108210000Y-65920000D01*
X188910000Y-79040000D02*
X184610000Y-74740000D01*
D67*
X161900599Y-64928319D02*
X161900599Y-66915600D01*
D70*
X153540000Y-82929207D02*
X153540000Y-74480000D01*
X134248550Y-73111450D02*
X134248550Y-63360000D01*
D67*
X160710000Y-64527093D02*
X160710000Y-65334400D01*
D70*
X130660000Y-82490000D02*
X130660000Y-77290000D01*
X116550000Y-100732500D02*
X114662500Y-100732500D01*
X165462500Y-58600000D02*
X165462500Y-59925000D01*
X156747500Y-73202500D02*
X156750000Y-73205000D01*
X179790000Y-97250000D02*
X179300000Y-97250000D01*
X165462500Y-59925000D02*
X162600000Y-62787500D01*
D67*
X167544596Y-71494999D02*
X167419595Y-71620000D01*
D70*
X146093750Y-85943750D02*
X163225000Y-103075000D01*
X181350000Y-101960000D02*
X181350000Y-98810000D01*
D67*
X161925000Y-63462500D02*
X162600000Y-62787500D01*
D70*
X181350000Y-98810000D02*
X179790000Y-97250000D01*
%TO.N,/MCU/VLXSMPS*%
X154960000Y-61232500D02*
X156512500Y-62785000D01*
X154960000Y-59340000D02*
X154960000Y-61232500D01*
D67*
X159250000Y-64930000D02*
X160400599Y-66080599D01*
X160400599Y-66080599D02*
X160400599Y-66915600D01*
D70*
X156512500Y-62785000D02*
X158227500Y-62785000D01*
X158227500Y-62785000D02*
X158260000Y-62752500D01*
D67*
X158260000Y-62752500D02*
X159250000Y-63742500D01*
X159250000Y-63742500D02*
X159250000Y-64930000D01*
D70*
X156160000Y-58140000D02*
X154960000Y-59340000D01*
D68*
%TO.N,UART_RX*%
X113730000Y-86320000D02*
X111365000Y-86320000D01*
X152745000Y-72875000D02*
X153500001Y-72119999D01*
X153500001Y-72119999D02*
X159196200Y-72119999D01*
%TO.N,UART2_TX*%
X115575000Y-86315000D02*
X114570000Y-87320000D01*
X115980000Y-85340000D02*
X115575000Y-85745000D01*
X115575000Y-85745000D02*
X115575000Y-86315000D01*
X114570000Y-87320000D02*
X111365000Y-87320000D01*
X151060000Y-72080000D02*
X151520000Y-71620000D01*
X151520000Y-71620000D02*
X159196200Y-71620000D01*
X151060000Y-72130000D02*
X151060000Y-72080000D01*
%TO.N,DRA_TX_UART1_RX*%
X142930000Y-118280000D02*
X142930000Y-120150000D01*
X156614300Y-69619999D02*
X159196200Y-69619999D01*
X156131350Y-69137049D02*
X156614300Y-69619999D01*
X142200000Y-117550000D02*
X142930000Y-118280000D01*
%TO.N,DRA_RX_UART1_TX*%
X155800000Y-67775000D02*
X154875000Y-67775000D01*
X157145000Y-69120000D02*
X155800000Y-67775000D01*
X140200000Y-113220000D02*
X142680000Y-115700000D01*
X142680000Y-115700000D02*
X142930000Y-115700000D01*
X159196200Y-69120000D02*
X157145000Y-69120000D01*
%TD*%
%TA.AperFunction,Conductor*%
%TO.N,+3V3*%
G36*
X137746002Y-65059967D02*
G01*
X137813013Y-65079742D01*
X137858697Y-65132607D01*
X137869834Y-65184133D01*
X137850165Y-79916166D01*
X137830391Y-79983179D01*
X137777526Y-80028863D01*
X137726165Y-80040000D01*
X122954332Y-80040000D01*
X122887293Y-80020315D01*
X122841538Y-79967511D01*
X122830332Y-79915669D01*
X122833540Y-78712844D01*
X128535000Y-78712844D01*
X128541401Y-78772372D01*
X128541403Y-78772379D01*
X128591645Y-78907086D01*
X128591649Y-78907093D01*
X128677809Y-79022187D01*
X128677812Y-79022190D01*
X128792906Y-79108350D01*
X128792913Y-79108354D01*
X128927620Y-79158596D01*
X128927627Y-79158598D01*
X128987155Y-79164999D01*
X128987172Y-79165000D01*
X130410000Y-79165000D01*
X130910000Y-79165000D01*
X132332828Y-79165000D01*
X132332844Y-79164999D01*
X132392372Y-79158598D01*
X132392379Y-79158596D01*
X132527086Y-79108354D01*
X132527093Y-79108350D01*
X132642187Y-79022190D01*
X132642190Y-79022187D01*
X132728350Y-78907093D01*
X132728354Y-78907086D01*
X132778596Y-78772379D01*
X132778598Y-78772372D01*
X132784999Y-78712844D01*
X132785000Y-78712827D01*
X132785000Y-77540000D01*
X130910000Y-77540000D01*
X130910000Y-79165000D01*
X130410000Y-79165000D01*
X130410000Y-77540000D01*
X128535000Y-77540000D01*
X128535000Y-78712844D01*
X122833540Y-78712844D01*
X122836805Y-77488307D01*
X122839552Y-76457954D01*
X122841127Y-75867155D01*
X128535000Y-75867155D01*
X128535000Y-77040000D01*
X130410000Y-77040000D01*
X130910000Y-77040000D01*
X132785000Y-77040000D01*
X132785000Y-75867172D01*
X132784999Y-75867155D01*
X132778598Y-75807627D01*
X132778596Y-75807620D01*
X132728354Y-75672913D01*
X132728350Y-75672906D01*
X132642190Y-75557812D01*
X132642187Y-75557809D01*
X132527093Y-75471649D01*
X132527086Y-75471645D01*
X132392379Y-75421403D01*
X132392372Y-75421401D01*
X132332844Y-75415000D01*
X130910000Y-75415000D01*
X130910000Y-77040000D01*
X130410000Y-77040000D01*
X130410000Y-75415000D01*
X128987155Y-75415000D01*
X128927627Y-75421401D01*
X128927620Y-75421403D01*
X128792913Y-75471645D01*
X128792906Y-75471649D01*
X128677812Y-75557809D01*
X128677809Y-75557812D01*
X128591649Y-75672906D01*
X128591645Y-75672913D01*
X128541403Y-75807620D01*
X128541401Y-75807627D01*
X128535000Y-75867155D01*
X122841127Y-75867155D01*
X122869669Y-65163832D01*
X122889533Y-65096849D01*
X122942459Y-65051235D01*
X122993833Y-65040166D01*
X137746002Y-65059967D01*
G37*
%TD.AperFunction*%
%TD*%
M02*
