ISO-10303-21;
HEADER;
FILE_DESCRIPTION (( 'STEP AP214' ),
    '1' );
FILE_NAME ('USC.STEP',
    '2018-02-14T02:44:38',
    ( 'admin' ),
    ( 'Microsoft' ),
    'SwSTEP 2.0',
    'SolidWorks 2015',
    '' );
FILE_SCHEMA (( 'AUTOMOTIVE_DESIGN' ));
ENDSEC;

DATA;
#1 = ORIENTED_EDGE ( 'NONE', *, *, #365, .T. ) ;
#2 = ORIENTED_EDGE ( 'NONE', *, *, #29, .F. ) ;
#3 = ORIENTED_EDGE ( 'NONE', *, *, #351, .T. ) ;
#4 = EDGE_CURVE ( 'NONE', #138, #355, #711, .T. ) ;
#5 = DIRECTION ( 'NONE',  ( 0.0000000000000000000, 0.0000000000000000000, 1.000000000000000000 ) ) ;
#6 = ADVANCED_FACE ( 'NONE', ( #917 ), #617, .F. ) ;
#7 = STYLED_ITEM ( 'NONE', ( #284 ), #180 ) ;
#8 = CARTESIAN_POINT ( 'NONE',  ( 0.1499999999999999900, -1.031956521810733800, 0.2412844257252344500 ) ) ;
#9 = VECTOR ( 'NONE', #288, 1000.000000000000000 ) ;
#10 = FILL_AREA_STYLE_COLOUR ( '', #376 ) ;
#11 = VECTOR ( 'NONE', #468, 1000.000000000000000 ) ;
#12 = ORIENTED_EDGE ( 'NONE', *, *, #997, .F. ) ;
#13 = CARTESIAN_POINT ( 'NONE',  ( -0.1499999999999999900, 1.131575991619908200, 0.2500000000000000000 ) ) ;
#14 = ORIENTED_EDGE ( 'NONE', *, *, #544, .F. ) ;
#15 = ORIENTED_EDGE ( 'NONE', *, *, #788, .T. ) ;
#16 = EDGE_CURVE ( 'NONE', #113, #1003, #227, .T. ) ;
#17 = ORIENTED_EDGE ( 'NONE', *, *, #29, .T. ) ;
#18 =( NAMED_UNIT ( * ) PLANE_ANGLE_UNIT ( ) SI_UNIT ( $, .RADIAN. ) );
#19 = MANIFOLD_SOLID_BREP ( 'Lead2', #157 ) ;
#20 = CARTESIAN_POINT ( 'NONE',  ( -0.1499999999999999900, 1.250000000000000000, 0.1499999999999999900 ) ) ;
#21 = CARTESIAN_POINT ( 'NONE',  ( -0.1499999999999999900, -1.131575991619908200, 0.2500000000000000000 ) ) ;
#22 = VECTOR ( 'NONE', #428, 1000.000000000000000 ) ;
#23 = COLOUR_RGB ( '',1.000000000000000000, 1.000000000000000000, 1.000000000000000000 ) ;
#24 = VECTOR ( 'NONE', #882, 1000.000000000000000 ) ;
#25 = PRESENTATION_STYLE_ASSIGNMENT (( #151 ) ) ;
#26 =( LENGTH_UNIT ( ) NAMED_UNIT ( * ) SI_UNIT ( .MILLI., .METRE. ) );
#27 = VECTOR ( 'NONE', #410, 1000.000000000000000 ) ;
#28 = AXIS2_PLACEMENT_3D ( 'NONE', #650, #827, #471 ) ;
#29 = EDGE_CURVE ( 'NONE', #267, #309, #335, .T. ) ;
#30 = CARTESIAN_POINT ( 'NONE',  ( -0.6250000000000001100, 0.8500000000000000900, 0.6000000000000240700 ) ) ;
#31 = ORIENTED_EDGE ( 'NONE', *, *, #4, .F. ) ;
#32 = CARTESIAN_POINT ( 'NONE',  ( 0.1499999999999999900, -1.131575991619908200, 0.2500000000000000000 ) ) ;
#33 = DIRECTION ( 'NONE',  ( 0.0000000000000000000, -0.9961946980917458800, 0.08715574274765483500 ) ) ;
#34 = VERTEX_POINT ( 'NONE', #356 ) ;
#35 = VECTOR ( 'NONE', #156, 1000.000000000000100 ) ;
#36 = VERTEX_POINT ( 'NONE', #1116 ) ;
#37 =( NAMED_UNIT ( * ) PLANE_ANGLE_UNIT ( ) SI_UNIT ( $, .RADIAN. ) );
#38 = COLOUR_RGB ( '',1.000000000000000000, 1.000000000000000000, 1.000000000000000000 ) ;
#39 = VERTEX_POINT ( 'NONE', #721 ) ;
#40 = PRESENTATION_LAYER_ASSIGNMENT (  '', '', ( #1105 ) ) ;
#41 = CARTESIAN_POINT ( 'NONE',  ( 0.1499999999999999900, -0.8499999999999992000, 0.6000000000000000900 ) ) ;
#42 = LINE ( 'NONE', #775, #609 ) ;
#43 = VECTOR ( 'NONE', #232, 1000.000000000000000 ) ;
#44 =( LENGTH_UNIT ( ) NAMED_UNIT ( * ) SI_UNIT ( .MILLI., .METRE. ) );
#45 = ORIENTED_EDGE ( 'NONE', *, *, #489, .T. ) ;
#46 = CARTESIAN_POINT ( 'NONE',  ( -0.1499999999999999900, 1.131575991619908600, 0.1499999999999999700 ) ) ;
#47 = CARTESIAN_POINT ( 'NONE',  ( 0.1499999999999999900, 1.131575991619908200, 0.2500000000000000000 ) ) ;
#48 = ORIENTED_EDGE ( 'NONE', *, *, #268, .F. ) ;
#49 = UNCERTAINTY_MEASURE_WITH_UNIT (LENGTH_MEASURE( 1.000000000000000100E-005 ), #315, 'distance_accuracy_value', 'NONE');
#50 = AXIS2_PLACEMENT_3D ( 'NONE', #32, #844, #168 ) ;
#51 = CARTESIAN_POINT ( 'NONE',  ( 0.6121839424164872100, -0.8371839424164870800, 0.4535117915052646100 ) ) ;
#52 = FACE_OUTER_BOUND ( 'NONE', #549, .T. ) ;
#53 = CARTESIAN_POINT ( 'NONE',  ( 0.1499999999999999900, -0.8499999999999992000, 0.6000000000000000900 ) ) ;
#54 = LINE ( 'NONE', #717, #9 ) ;
#55 = LINE ( 'NONE', #696, #364 ) ;
#56 = LINE ( 'NONE', #793, #612 ) ;
#57 = UNCERTAINTY_MEASURE_WITH_UNIT (LENGTH_MEASURE( 1.000000000000000100E-005 ), #26, 'distance_accuracy_value', 'NONE');
#58 = AXIS2_PLACEMENT_3D ( 'NONE', #95, #1128, #606 ) ;
#59 = AXIS2_PLACEMENT_3D ( 'NONE', #239, #65, #722 ) ;
#60 = PLANE ( 'NONE',  #686 ) ;
#61 = ORIENTED_EDGE ( 'NONE', *, *, #978, .T. ) ;
#62 = STYLED_ITEM ( 'NONE', ( #361 ), #786 ) ;
#63 = FILL_AREA_STYLE_COLOUR ( '', #678 ) ;
#64 = EDGE_CURVE ( 'NONE', #1003, #672, #166, .T. ) ;
#65 = DIRECTION ( 'NONE',  ( 0.0000000000000000000, -1.000000000000000000, -7.228014483236698500E-016 ) ) ;
#66 = DIRECTION ( 'NONE',  ( 0.0000000000000000000, 0.0000000000000000000, -1.000000000000000000 ) ) ;
#67 = ORIENTED_EDGE ( 'NONE', *, *, #70, .T. ) ;
#68 = FILL_AREA_STYLE_COLOUR ( '', #887 ) ;
#69 = DIRECTION ( 'NONE',  ( 0.0000000000000000000, -0.0000000000000000000, 1.000000000000000000 ) ) ;
#70 = EDGE_CURVE ( 'NONE', #216, #446, #55, .T. ) ;
#71 = DIRECTION ( 'NONE',  ( -1.000000000000000000, -0.0000000000000000000, -0.0000000000000000000 ) ) ;
#72 = VECTOR ( 'NONE', #658, 1000.000000000000000 ) ;
#73 = PRESENTATION_LAYER_ASSIGNMENT (  '', '', ( #7 ) ) ;
#74 = ORIENTED_EDGE ( 'NONE', *, *, #761, .T. ) ;
#75 = UNCERTAINTY_MEASURE_WITH_UNIT (LENGTH_MEASURE( 1.000000000000000100E-005 ), #625, 'distance_accuracy_value', 'NONE');
#76 = ORIENTED_EDGE ( 'NONE', *, *, #243, .F. ) ;
#77 = DIRECTION ( 'NONE',  ( 1.000000000000000000, 0.0000000000000000000, 0.0000000000000000000 ) ) ;
#78 = CARTESIAN_POINT ( 'NONE',  ( 0.1499999999999999900, -1.131575991619908600, 0.2500000000000000000 ) ) ;
#79 = COLOUR_RGB ( '',1.000000000000000000, 1.000000000000000000, 1.000000000000000000 ) ;
#80 = ORIENTED_EDGE ( 'NONE', *, *, #323, .T. ) ;
#81 = DIRECTION ( 'NONE',  ( 0.0000000000000000000, -7.228014483236698500E-016, -1.000000000000000000 ) ) ;
#82 =( NAMED_UNIT ( * ) SI_UNIT ( $, .STERADIAN. ) SOLID_ANGLE_UNIT ( ) );
#83 = DIRECTION ( 'NONE',  ( 0.0000000000000000000, 1.000000000000000000, 0.0000000000000000000 ) ) ;
#84 = EDGE_CURVE ( 'NONE', #431, #457, #1088, .T. ) ;
#85 = CARTESIAN_POINT ( 'NONE',  ( 0.6249999999999998900, 0.8500000000000000900, 0.6000000000000240700 ) ) ;
#86 = FACE_OUTER_BOUND ( 'NONE', #328, .T. ) ;
#87 = CIRCLE ( 'NONE', #1096, 0.1500000000000000200 ) ;
#88 = FACE_OUTER_BOUND ( 'NONE', #1014, .T. ) ;
#89 = VECTOR ( 'NONE', #985, 1000.000000000000000 ) ;
#90 = ADVANCED_FACE ( 'NONE', ( #676 ), #316, .F. ) ;
#91 = DIRECTION ( 'NONE',  ( 0.0000000000000000000, -0.08715574274765515400, -0.9961946980917457700 ) ) ;
#92 = ORIENTED_EDGE ( 'NONE', *, *, #1072, .F. ) ;
#93 = AXIS2_PLACEMENT_3D ( 'NONE', #41, #561, #1082 ) ;
#94 = ORIENTED_EDGE ( 'NONE', *, *, #582, .T. ) ;
#95 = CARTESIAN_POINT ( 'NONE',  ( 0.1499999999999999900, -1.131575991619908200, 0.2500000000000000000 ) ) ;
#96 = EDGE_CURVE ( 'NONE', #344, #138, #381, .T. ) ;
#97 = ORIENTED_EDGE ( 'NONE', *, *, #555, .F. ) ;
#98 = CYLINDRICAL_SURFACE ( 'NONE', #942, 0.1000000000000001600 ) ;
#99 = EDGE_LOOP ( 'NONE', ( #1134, #204, #249, #757 ) ) ;
#100 = ADVANCED_FACE ( 'NONE', ( #88 ), #470, .F. ) ;
#101 = DIRECTION ( 'NONE',  ( -0.0000000000000000000, 0.9961946980917458800, 0.08715574274765518200 ) ) ;
#102 =( NAMED_UNIT ( * ) PLANE_ANGLE_UNIT ( ) SI_UNIT ( $, .RADIAN. ) );
#103 = MECHANICAL_DESIGN_GEOMETRIC_PRESENTATION_REPRESENTATION (  '', ( #1105 ), #155 ) ;
#104 = LINE ( 'NONE', #525, #688 ) ;
#105 = LINE ( 'NONE', #853, #883 ) ;
#106 = ADVANCED_FACE ( 'NONE', ( #445 ), #661, .F. ) ;
#107 =( NAMED_UNIT ( * ) SI_UNIT ( $, .STERADIAN. ) SOLID_ANGLE_UNIT ( ) );
#108 = PRODUCT_DEFINITION_CONTEXT ( 'detailed design', #378, 'design' ) ;
#109 = CARTESIAN_POINT ( 'NONE',  ( 0.1499999999999999900, 0.8499999999999993100, 0.7500000000000000000 ) ) ;
#110 = ORIENTED_EDGE ( 'NONE', *, *, #1026, .T. ) ;
#111 = CARTESIAN_POINT ( 'NONE',  ( 0.1499999999999999900, -1.031956521810733800, 0.2412844257252344500 ) ) ;
#112 = ORIENTED_EDGE ( 'NONE', *, *, #705, .F. ) ;
#113 = VERTEX_POINT ( 'NONE', #822 ) ;
#114 = CARTESIAN_POINT ( 'NONE',  ( -0.5725068018844454700, -0.7975068018844454500, 0.0000000000000000000 ) ) ;
#115 = SURFACE_STYLE_USAGE ( .BOTH. , #723 ) ;
#116 = LINE ( 'NONE', #743, #11 ) ;
#117 = PRESENTATION_LAYER_ASSIGNMENT (  '', '', ( #1120 ) ) ;
#118 = VECTOR ( 'NONE', #205, 1000.000000000000000 ) ;
#119 = CARTESIAN_POINT ( 'NONE',  ( 0.1499999999999999900, -0.8825273170969718500, 0.2282110643130862400 ) ) ;
#120 = CARTESIAN_POINT ( 'NONE',  ( -0.1499999999999999900, 0.8825273170969718500, 0.2282110643130862400 ) ) ;
#121 = VERTEX_POINT ( 'NONE', #939 ) ;
#122 = DIRECTION ( 'NONE',  ( -1.000000000000000000, -0.0000000000000000000, -0.0000000000000000000 ) ) ;
#123 = ORIENTED_EDGE ( 'NONE', *, *, #243, .T. ) ;
#124 = AXIS2_PLACEMENT_3D ( 'NONE', #294, #536, #447 ) ;
#125 = PRESENTATION_LAYER_ASSIGNMENT (  '', '', ( #1127 ) ) ;
#126 = SURFACE_SIDE_STYLE ('',( #466 ) ) ;
#127 = AXIS2_PLACEMENT_3D ( 'NONE', #973, #710, #5 ) ;
#128 = EDGE_CURVE ( 'NONE', #869, #121, #684, .T. ) ;
#129 = DIRECTION ( 'NONE',  ( -1.000000000000000000, 0.0000000000000000000, -0.0000000000000000000 ) ) ;
#130 = VECTOR ( 'NONE', #801, 1000.000000000000100 ) ;
#131 = LINE ( 'NONE', #422, #1101 ) ;
#132 = SURFACE_STYLE_USAGE ( .BOTH. , #740 ) ;
#133 = CIRCLE ( 'NONE', #212, 0.1000000000000001600 ) ;
#134 = DIRECTION ( 'NONE',  ( 1.000000000000000000, 0.0000000000000000000, 0.0000000000000000000 ) ) ;
#135 = EDGE_CURVE ( 'NONE', #1066, #444, #367, .T. ) ;
#136 = MECHANICAL_DESIGN_GEOMETRIC_PRESENTATION_REPRESENTATION (  '', ( #7 ), #197 ) ;
#137 = VERTEX_POINT ( 'NONE', #202 ) ;
#138 = VERTEX_POINT ( 'NONE', #687 ) ;
#139 = CARTESIAN_POINT ( 'NONE',  ( 0.1499999999999999900, -1.131575991619908200, 0.0000000000000000000 ) ) ;
#140 = DIRECTION ( 'NONE',  ( 0.0000000000000000000, 1.000000000000000000, 2.288814125016084100E-016 ) ) ;
#141 = VECTOR ( 'NONE', #240, 1000.000000000000000 ) ;
#142 = CIRCLE ( 'NONE', #698, 0.2500000000000000000 ) ;
#143 = EDGE_CURVE ( 'NONE', #137, #1045, #512, .T. ) ;
#144 = CARTESIAN_POINT ( 'NONE',  ( 0.1499999999999999900, -0.8499999999999993100, 0.7500000000000000000 ) ) ;
#145 = UNCERTAINTY_MEASURE_WITH_UNIT (LENGTH_MEASURE( 1.000000000000000100E-005 ), #596, 'distance_accuracy_value', 'NONE');
#146 = VERTEX_POINT ( 'NONE', #46 ) ;
#147 = ORIENTED_EDGE ( 'NONE', *, *, #937, .F. ) ;
#148 = CARTESIAN_POINT ( 'NONE',  ( -0.6249999999999998900, -0.8499999999999999800, 0.9000000000000000200 ) ) ;
#149 = EDGE_LOOP ( 'NONE', ( #531, #654, #358, #193 ) ) ;
#150 = AXIS2_PLACEMENT_3D ( 'NONE', #47, #226, #387 ) ;
#151 = SURFACE_STYLE_USAGE ( .BOTH. , #816 ) ;
#152 = EDGE_CURVE ( 'NONE', #402, #800, #514, .T. ) ;
#153 = FACE_OUTER_BOUND ( 'NONE', #329, .T. ) ;
#154 = CARTESIAN_POINT ( 'NONE',  ( 0.1499999999999999900, 0.8499999999999992000, 0.6000000000000000900 ) ) ;
#155 =( GEOMETRIC_REPRESENTATION_CONTEXT ( 3 ) GLOBAL_UNCERTAINTY_ASSIGNED_CONTEXT ( ( #537 ) ) GLOBAL_UNIT_ASSIGNED_CONTEXT ( ( #637, #37, #556 ) ) REPRESENTATION_CONTEXT ( 'NONE', 'WORKASPACE' ) );
#156 = DIRECTION ( 'NONE',  ( 0.0000000000000000000, -0.08715574274765515400, 0.9961946980917457700 ) ) ;
#157 = CLOSED_SHELL ( 'NONE', ( #266, #693, #792, #1133, #1126, #523, #420, #427, #509, #518, #862 ) ) ;
#158 = ORIENTED_EDGE ( 'NONE', *, *, #539, .F. ) ;
#159 = ORIENTED_EDGE ( 'NONE', *, *, #821, .F. ) ;
#160 = ORIENTED_EDGE ( 'NONE', *, *, #377, .F. ) ;
#161 = CARTESIAN_POINT ( 'NONE',  ( 0.1499999999999999900, 1.131575991619908600, 0.2500000000000000000 ) ) ;
#162 = SURFACE_STYLE_USAGE ( .BOTH. , #768 ) ;
#163 =( NAMED_UNIT ( * ) PLANE_ANGLE_UNIT ( ) SI_UNIT ( $, .RADIAN. ) );
#164 = CYLINDRICAL_SURFACE ( 'NONE', #520, 0.1499999999999999700 ) ;
#165 = LINE ( 'NONE', #886, #1016 ) ;
#166 = LINE ( 'NONE', #1109, #983 ) ;
#167 = MECHANICAL_DESIGN_GEOMETRIC_PRESENTATION_REPRESENTATION (  '', ( #1120 ), #233 ) ;
#168 = DIRECTION ( 'NONE',  ( 0.0000000000000000000, 0.0000000000000000000, 1.000000000000000000 ) ) ;
#169 =( NAMED_UNIT ( * ) PLANE_ANGLE_UNIT ( ) SI_UNIT ( $, .RADIAN. ) );
#170 = ORIENTED_EDGE ( 'NONE', *, *, #419, .F. ) ;
#171 = DIRECTION ( 'NONE',  ( 0.0000000000000000000, 0.0000000000000000000, 1.000000000000000000 ) ) ;
#172 = CARTESIAN_POINT ( 'NONE',  ( 0.1499999999999999900, 0.8825273170969718500, 0.2282110643130862400 ) ) ;
#173 = FACE_OUTER_BOUND ( 'NONE', #753, .T. ) ;
#174 = EDGE_LOOP ( 'NONE', ( #766, #784, #247, #1048 ) ) ;
#175 = PLANE ( 'NONE',  #517 ) ;
#176 = CARTESIAN_POINT ( 'NONE',  ( -0.1499999999999999900, -0.8499999999999992000, 0.6000000000000000900 ) ) ;
#177 = STYLED_ITEM ( 'NONE', ( #213 ), #1049 ) ;
#178 = MECHANICAL_DESIGN_GEOMETRIC_PRESENTATION_REPRESENTATION (  '', ( #1127 ), #237 ) ;
#179 = MANIFOLD_SOLID_BREP ( 'Lead1', #975 ) ;
#180 = ADVANCED_FACE ( 'NONE', ( #652 ), #496, .T. ) ;
#181 = MECHANICAL_DESIGN_GEOMETRIC_PRESENTATION_REPRESENTATION (  '', ( #62 ), #241 ) ;
#182 = CARTESIAN_POINT ( 'NONE',  ( -0.1499999999999999900, 1.031956521810733800, 0.2412844257252344500 ) ) ;
#183 = EDGE_CURVE ( 'NONE', #146, #800, #1104, .T. ) ;
#184 = LINE ( 'NONE', #148, #72 ) ;
#185 = SURFACE_STYLE_FILL_AREA ( #217 ) ;
#186 = DIRECTION ( 'NONE',  ( 0.0000000000000000000, -0.08715574274765518200, 0.9961946980917458800 ) ) ;
#187 = SURFACE_STYLE_USAGE ( .BOTH. , #790 ) ;
#188 = ADVANCED_FACE ( 'NONE', ( #974 ), #277, .F. ) ;
#189 = ORIENTED_EDGE ( 'NONE', *, *, #475, .T. ) ;
#190 = ORIENTED_EDGE ( 'NONE', *, *, #544, .T. ) ;
#191 = DIRECTION ( 'NONE',  ( 0.0000000000000000000, 0.9961946980917458800, 0.08715574274765483500 ) ) ;
#192 = EDGE_CURVE ( 'NONE', #256, #1033, #752, .T. ) ;
#193 = ORIENTED_EDGE ( 'NONE', *, *, #896, .F. ) ;
#194 = EDGE_LOOP ( 'NONE', ( #158, #830, #373, #545 ) ) ;
#195 = DIRECTION ( 'NONE',  ( 1.000000000000000000, 0.0000000000000000000, 0.0000000000000000000 ) ) ;
#196 =( LENGTH_UNIT ( ) NAMED_UNIT ( * ) SI_UNIT ( .MILLI., .METRE. ) );
#197 =( GEOMETRIC_REPRESENTATION_CONTEXT ( 3 ) GLOBAL_UNCERTAINTY_ASSIGNED_CONTEXT ( ( #336 ) ) GLOBAL_UNIT_ASSIGNED_CONTEXT ( ( #409, #1037, #82 ) ) REPRESENTATION_CONTEXT ( 'NONE', 'WORKASPACE' ) );
#198 = CARTESIAN_POINT ( 'NONE',  ( 0.1499999999999999900, 0.8499999999999993100, 0.7500000000000000000 ) ) ;
#199 = VECTOR ( 'NONE', #129, 1000.000000000000000 ) ;
#200 = LINE ( 'NONE', #1004, #276 ) ;
#201 = FACE_OUTER_BOUND ( 'NONE', #782, .T. ) ;
#202 = CARTESIAN_POINT ( 'NONE',  ( -0.6249999999999998900, -0.8499999999999999800, 0.9000000000000000200 ) ) ;
#203 = VECTOR ( 'NONE', #833, 1000.000000000000000 ) ;
#204 = ORIENTED_EDGE ( 'NONE', *, *, #152, .F. ) ;
#205 = DIRECTION ( 'NONE',  ( -1.000000000000000000, 0.0000000000000000000, -0.0000000000000000000 ) ) ;
#206 = SURFACE_STYLE_USAGE ( .BOTH. , #804 ) ;
#207 = CARTESIAN_POINT ( 'NONE',  ( 0.1499999999999999900, 1.250000000000000000, 0.0000000000000000000 ) ) ;
#208 = EDGE_CURVE ( 'NONE', #1031, #628, #732, .T. ) ;
#209 = DIRECTION ( 'NONE',  ( -1.000000000000000000, 0.0000000000000000000, -0.0000000000000000000 ) ) ;
#210 = ORIENTED_EDGE ( 'NONE', *, *, #611, .T. ) ;
#211 = DIRECTION ( 'NONE',  ( 1.000000000000000000, 0.0000000000000000000, 0.0000000000000000000 ) ) ;
#212 = AXIS2_PLACEMENT_3D ( 'NONE', #1075, #462, #994 ) ;
#213 = PRESENTATION_STYLE_ASSIGNMENT (( #162 ) ) ;
#214 = EDGE_CURVE ( 'NONE', #34, #216, #695, .T. ) ;
#215 = SURFACE_STYLE_FILL_AREA ( #282 ) ;
#216 = VERTEX_POINT ( 'NONE', #30 ) ;
#217 = FILL_AREA_STYLE ('',( #702 ) ) ;
#218 = ORIENTED_EDGE ( 'NONE', *, *, #1090, .T. ) ;
#219 = LINE ( 'NONE', #584, #35 ) ;
#220 = ORIENTED_EDGE ( 'NONE', *, *, #638, .F. ) ;
#221 = FILL_AREA_STYLE ('',( #426 ) ) ;
#222 = CARTESIAN_POINT ( 'NONE',  ( -0.1499999999999999900, -1.131575991619908600, 0.1499999999999999700 ) ) ;
#223 = FACE_OUTER_BOUND ( 'NONE', #1011, .T. ) ;
#224 = FACE_OUTER_BOUND ( 'NONE', #715, .T. ) ;
#225 = SURFACE_STYLE_USAGE ( .BOTH. , #423 ) ;
#226 = DIRECTION ( 'NONE',  ( -1.000000000000000000, -0.0000000000000000000, -0.0000000000000000000 ) ) ;
#227 = LINE ( 'NONE', #299, #538 ) ;
#228 = SURFACE_STYLE_FILL_AREA ( #245 ) ;
#229 = PLANE ( 'NONE',  #1047 ) ;
#230 = EDGE_LOOP ( 'NONE', ( #80, #270, #271, #848 ) ) ;
#231 = ORIENTED_EDGE ( 'NONE', *, *, #323, .F. ) ;
#232 = DIRECTION ( 'NONE',  ( -1.275531967630005200E-016, 1.000000000000000000, -0.0000000000000000000 ) ) ;
#233 =( GEOMETRIC_REPRESENTATION_CONTEXT ( 3 ) GLOBAL_UNCERTAINTY_ASSIGNED_CONTEXT ( ( #296 ) ) GLOBAL_UNIT_ASSIGNED_CONTEXT ( ( #720, #624, #1064 ) ) REPRESENTATION_CONTEXT ( 'NONE', 'WORKASPACE' ) );
#234 = CARTESIAN_POINT ( 'NONE',  ( -0.6250000000000001100, 0.8500000000000000900, 0.9000000000000000200 ) ) ;
#235 = CYLINDRICAL_SURFACE ( 'NONE', #895, 0.1000000000000001600 ) ;
#236 = PRESENTATION_LAYER_ASSIGNMENT (  '', '', ( #177 ) ) ;
#237 =( GEOMETRIC_REPRESENTATION_CONTEXT ( 3 ) GLOBAL_UNCERTAINTY_ASSIGNED_CONTEXT ( ( #145 ) ) GLOBAL_UNIT_ASSIGNED_CONTEXT ( ( #596, #163, #943 ) ) REPRESENTATION_CONTEXT ( 'NONE', 'WORKASPACE' ) );
#238 = LINE ( 'NONE', #570, #495 ) ;
#239 = CARTESIAN_POINT ( 'NONE',  ( 0.1499999999999999900, -0.8499999999999993100, 0.7500000000000000000 ) ) ;
#240 = DIRECTION ( 'NONE',  ( -1.000000000000000000, -0.0000000000000000000, -0.0000000000000000000 ) ) ;
#241 =( GEOMETRIC_REPRESENTATION_CONTEXT ( 3 ) GLOBAL_UNCERTAINTY_ASSIGNED_CONTEXT ( ( #467 ) ) GLOBAL_UNIT_ASSIGNED_CONTEXT ( ( #704, #102, #613 ) ) REPRESENTATION_CONTEXT ( 'NONE', 'WORKASPACE' ) );
#242 = VECTOR ( 'NONE', #1029, 1000.000000000000000 ) ;
#243 = EDGE_CURVE ( 'NONE', #457, #1093, #499, .T. ) ;
#244 = ORIENTED_EDGE ( 'NONE', *, *, #739, .T. ) ;
#245 = FILL_AREA_STYLE ('',( #63 ) ) ;
#246 = DIRECTION ( 'NONE',  ( 0.0000000000000000000, 0.9961946980917458800, -0.08715574274765518200 ) ) ;
#247 = ORIENTED_EDGE ( 'NONE', *, *, #739, .F. ) ;
#248 = UNCERTAINTY_MEASURE_WITH_UNIT (LENGTH_MEASURE( 1.000000000000000100E-005 ), #44, 'distance_accuracy_value', 'NONE');
#249 = ORIENTED_EDGE ( 'NONE', *, *, #604, .F. ) ;
#250 = DIRECTION ( 'NONE',  ( 0.0000000000000000000, 0.08715574274765515400, 0.9961946980917457700 ) ) ;
#251 = DIRECTION ( 'NONE',  ( -1.275531967630005200E-016, 1.000000000000000000, -0.0000000000000000000 ) ) ;
#252 = SURFACE_STYLE_FILL_AREA ( #879 ) ;
#253 = CARTESIAN_POINT ( 'NONE',  ( 0.1499999999999999900, -1.131575991619908200, 0.0000000000000000000 ) ) ;
#254 = ORIENTED_EDGE ( 'NONE', *, *, #377, .T. ) ;
#255 = DIRECTION ( 'NONE',  ( 1.275531967630005200E-016, -1.000000000000000000, 0.0000000000000000000 ) ) ;
#256 = VERTEX_POINT ( 'NONE', #207 ) ;
#257 = UNCERTAINTY_MEASURE_WITH_UNIT (LENGTH_MEASURE( 1.000000000000000100E-005 ), #560, 'distance_accuracy_value', 'NONE');
#258 =( NAMED_UNIT ( * ) PLANE_ANGLE_UNIT ( ) SI_UNIT ( $, .RADIAN. ) );
#259 = EDGE_CURVE ( 'NONE', #446, #1057, #411, .T. ) ;
#260 = DIRECTION ( 'NONE',  ( 0.0000000000000000000, -1.000000000000000000, 2.288814125016084100E-016 ) ) ;
#261 = PLANE ( 'NONE',  #390 ) ;
#262 = DIRECTION ( 'NONE',  ( 0.0000000000000000000, 0.0000000000000000000, -1.000000000000000000 ) ) ;
#263 = CIRCLE ( 'NONE', #834, 0.2500000000000000000 ) ;
#264 = CARTESIAN_POINT ( 'NONE',  ( 0.6250000000000001100, -0.8499999999999999800, 0.9000000000000000200 ) ) ;
#265 = DIRECTION ( 'NONE',  ( 0.0000000000000000000, 0.0000000000000000000, -1.000000000000000000 ) ) ;
#266 = ADVANCED_FACE ( 'NONE', ( #868 ), #98, .F. ) ;
#267 = VERTEX_POINT ( 'NONE', #327 ) ;
#268 = EDGE_CURVE ( 'NONE', #344, #256, #343, .T. ) ;
#269 = CARTESIAN_POINT ( 'NONE',  ( -0.6250000000000001100, 0.8500000000000000900, 0.9000000000000000200 ) ) ;
#270 = ORIENTED_EDGE ( 'NONE', *, *, #873, .T. ) ;
#271 = ORIENTED_EDGE ( 'NONE', *, *, #1072, .T. ) ;
#272 = ADVANCED_FACE ( 'NONE', ( #320 ), #852, .T. ) ;
#273 = CARTESIAN_POINT ( 'NONE',  ( -0.6249999999999998900, -0.8499999999999999800, 0.6000000000000240700 ) ) ;
#274 = FILL_AREA_STYLE ('',( #1056 ) ) ;
#275 = DIRECTION ( 'NONE',  ( 0.0000000000000000000, -0.08715574274765515400, -0.9961946980917457700 ) ) ;
#276 = VECTOR ( 'NONE', #1086, 1000.000000000000000 ) ;
#277 = PLANE ( 'NONE',  #767 ) ;
#278 = SURFACE_SIDE_STYLE ('',( #252 ) ) ;
#279 = LINE ( 'NONE', #182, #1007 ) ;
#280 = UNCERTAINTY_MEASURE_WITH_UNIT (LENGTH_MEASURE( 1.000000000000000100E-005 ), #854, 'distance_accuracy_value', 'NONE');
#281 = COLOUR_RGB ( '',1.000000000000000000, 1.000000000000000000, 1.000000000000000000 ) ;
#282 = FILL_AREA_STYLE ('',( #1068 ) ) ;
#283 = CARTESIAN_POINT ( 'NONE',  ( 0.6249999999999998900, 0.8500000000000000900, 0.9000000000000000200 ) ) ;
#284 = PRESENTATION_STYLE_ASSIGNMENT (( #1041 ) ) ;
#285 = ORIENTED_EDGE ( 'NONE', *, *, #365, .F. ) ;
#286 = EDGE_LOOP ( 'NONE', ( #653, #601, #1114, #392 ) ) ;
#287 = CARTESIAN_POINT ( 'NONE',  ( -0.1499999999999999900, -1.250000000000000000, 0.0000000000000000000 ) ) ;
#288 = DIRECTION ( 'NONE',  ( 0.0000000000000000000, -1.000000000000000000, 0.0000000000000000000 ) ) ;
#289 = CARTESIAN_POINT ( 'NONE',  ( 0.1499999999999999900, 0.8499999999999993100, 0.7500000000000000000 ) ) ;
#290 = DIRECTION ( 'NONE',  ( -0.0000000000000000000, -0.0000000000000000000, -1.000000000000000000 ) ) ;
#291 = FILL_AREA_STYLE_COLOUR ( '', #281 ) ;
#292 = VECTOR ( 'NONE', #898, 1000.000000000000000 ) ;
#293 = FACE_OUTER_BOUND ( 'NONE', #149, .T. ) ;
#294 = CARTESIAN_POINT ( 'NONE',  ( 0.6249999999999998900, 0.8500000000000000900, 0.6000000000000240700 ) ) ;
#295 = VECTOR ( 'NONE', #770, 1000.000000000000000 ) ;
#296 = UNCERTAINTY_MEASURE_WITH_UNIT (LENGTH_MEASURE( 1.000000000000000100E-005 ), #720, 'distance_accuracy_value', 'NONE');
#297 = MECHANICAL_DESIGN_GEOMETRIC_PRESENTATION_REPRESENTATION (  '', ( #177 ), #347 ) ;
#298 = ORIENTED_EDGE ( 'NONE', *, *, #705, .T. ) ;
#299 = CARTESIAN_POINT ( 'NONE',  ( -0.1499999999999999900, 0.8499999999999993100, 0.7500000000000000000 ) ) ;
#300 = ADVANCED_BREP_SHAPE_REPRESENTATION ( 'USC', ( #651, #19, #179, #326 ), #933 ) ;
#301 = EDGE_CURVE ( 'NONE', #1108, #734, #646, .T. ) ;
#302 = CARTESIAN_POINT ( 'NONE',  ( -0.6250000000000001100, 0.8500000000000000900, 0.6000000000000240700 ) ) ;
#303 =( NAMED_UNIT ( * ) SI_UNIT ( $, .STERADIAN. ) SOLID_ANGLE_UNIT ( ) );
#304 = FACE_OUTER_BOUND ( 'NONE', #849, .T. ) ;
#305 = SURFACE_SIDE_STYLE ('',( #908 ) ) ;
#306 = PRESENTATION_STYLE_ASSIGNMENT (( #132 ) ) ;
#307 = DIRECTION ( 'NONE',  ( 0.0000000000000000000, -1.000000000000000000, -2.288814125016084100E-016 ) ) ;
#308 = AXIS2_PLACEMENT_3D ( 'NONE', #583, #878, #498 ) ;
#309 = VERTEX_POINT ( 'NONE', #85 ) ;
#310 = ORIENTED_EDGE ( 'NONE', *, *, #84, .T. ) ;
#311 = SURFACE_STYLE_USAGE ( .BOTH. , #670 ) ;
#312 = EDGE_CURVE ( 'NONE', #1093, #1031, #885, .T. ) ;
#313 = CARTESIAN_POINT ( 'NONE',  ( 0.1499999999999999900, 1.131575991619908200, 0.0000000000000000000 ) ) ;
#314 = CARTESIAN_POINT ( 'NONE',  ( -0.5725068018844456900, 0.7975068018844455600, 0.0000000000000000000 ) ) ;
#315 =( LENGTH_UNIT ( ) NAMED_UNIT ( * ) SI_UNIT ( .MILLI., .METRE. ) );
#316 = PLANE ( 'NONE',  #395 ) ;
#317 = DIRECTION ( 'NONE',  ( 0.0000000000000000000, -0.0000000000000000000, -1.000000000000000000 ) ) ;
#318 = ORIENTED_EDGE ( 'NONE', *, *, #480, .T. ) ;
#319 = VERTEX_POINT ( 'NONE', #1124 ) ;
#320 = FACE_OUTER_BOUND ( 'NONE', #587, .T. ) ;
#321 = CARTESIAN_POINT ( 'NONE',  ( 0.1499999999999999900, 1.250000000000000000, 0.0000000000000000000 ) ) ;
#322 = ORIENTED_EDGE ( 'NONE', *, *, #611, .F. ) ;
#323 = EDGE_CURVE ( 'NONE', #1057, #36, #865, .T. ) ;
#324 = LINE ( 'NONE', #960, #22 ) ;
#325 = FILL_AREA_STYLE_COLOUR ( '', #79 ) ;
#326 = AXIS2_PLACEMENT_3D ( 'NONE', #643, #459, #765 ) ;
#327 = CARTESIAN_POINT ( 'NONE',  ( 0.6250000000000001100, -0.8499999999999999800, 0.6000000000000240700 ) ) ;
#328 = EDGE_LOOP ( 'NONE', ( #911, #160, #285, #619 ) ) ;
#329 = EDGE_LOOP ( 'NONE', ( #832, #1058, #780, #254 ) ) ;
#330 = CARTESIAN_POINT ( 'NONE',  ( 0.1499999999999999900, 1.250000000000000000, 0.0000000000000000000 ) ) ;
#331 =( NAMED_UNIT ( * ) SI_UNIT ( $, .STERADIAN. ) SOLID_ANGLE_UNIT ( ) );
#332 = DIRECTION ( 'NONE',  ( 1.275531967630005200E-016, -1.000000000000000000, 0.0000000000000000000 ) ) ;
#333 = CARTESIAN_POINT ( 'NONE',  ( 0.1499999999999999900, -0.8499999999999993100, 0.7500000000000000000 ) ) ;
#334 = SURFACE_STYLE_USAGE ( .BOTH. , #947 ) ;
#335 = LINE ( 'NONE', #756, #43 ) ;
#336 = UNCERTAINTY_MEASURE_WITH_UNIT (LENGTH_MEASURE( 1.000000000000000100E-005 ), #409, 'distance_accuracy_value', 'NONE');
#337 = DIRECTION ( 'NONE',  ( -1.000000000000000000, 0.0000000000000000000, 0.0000000000000000000 ) ) ;
#338 = CLOSED_SHELL ( 'NONE', ( #90, #352, #106, #435, #605, #957, #614, #858, #965, #1055 ) ) ;
#339 = DIRECTION ( 'NONE',  ( 0.0000000000000000000, 1.000000000000000000, 0.0000000000000000000 ) ) ;
#340 = VERTEX_POINT ( 'NONE', #713 ) ;
#341 = ADVANCED_FACE ( 'NONE', ( #408 ), #261, .F. ) ;
#342 = CARTESIAN_POINT ( 'NONE',  ( -0.6249999999999998900, -0.8499999999999999800, 0.6000000000000240700 ) ) ;
#343 = LINE ( 'NONE', #313, #550 ) ;
#344 = VERTEX_POINT ( 'NONE', #360 ) ;
#345 =( LENGTH_UNIT ( ) NAMED_UNIT ( * ) SI_UNIT ( .MILLI., .METRE. ) );
#346 = CARTESIAN_POINT ( 'NONE',  ( -0.1499999999999999900, -0.8499999999999992000, 0.6000000000000000900 ) ) ;
#347 =( GEOMETRIC_REPRESENTATION_CONTEXT ( 3 ) GLOBAL_UNCERTAINTY_ASSIGNED_CONTEXT ( ( #588 ) ) GLOBAL_UNIT_ASSIGNED_CONTEXT ( ( #675, #169, #856 ) ) REPRESENTATION_CONTEXT ( 'NONE', 'WORKASPACE' ) );
#348 = STYLED_ITEM ( 'NONE', ( #921 ), #100 ) ;
#349 = DIRECTION ( 'NONE',  ( -1.000000000000000000, 0.0000000000000000000, -0.0000000000000000000 ) ) ;
#350 = FACE_OUTER_BOUND ( 'NONE', #562, .T. ) ;
#351 = EDGE_CURVE ( 'NONE', #1045, #530, #165, .T. ) ;
#352 = ADVANCED_FACE ( 'NONE', ( #201 ), #847, .F. ) ;
#353 = CYLINDRICAL_SURFACE ( 'NONE', #127, 0.1499999999999999700 ) ;
#354 = DIRECTION ( 'NONE',  ( 0.0000000000000000000, 7.228014483236698500E-016, -1.000000000000000000 ) ) ;
#355 = VERTEX_POINT ( 'NONE', #763 ) ;
#356 = CARTESIAN_POINT ( 'NONE',  ( -0.6250000000000001100, 0.8500000000000000900, 0.9000000000000000200 ) ) ;
#357 = DIRECTION ( 'NONE',  ( -1.000000000000000000, 0.0000000000000000000, -0.0000000000000000000 ) ) ;
#358 = ORIENTED_EDGE ( 'NONE', *, *, #70, .F. ) ;
#359 = AXIS2_PLACEMENT_3D ( 'NONE', #78, #195, #677 ) ;
#360 = CARTESIAN_POINT ( 'NONE',  ( 0.1499999999999999900, 1.131575991619908200, 0.0000000000000000000 ) ) ;
#361 = PRESENTATION_STYLE_ASSIGNMENT (( #187 ) ) ;
#362 = CIRCLE ( 'NONE', #458, 0.1500000000000000200 ) ;
#363 = FACE_OUTER_BOUND ( 'NONE', #474, .T. ) ;
#364 = VECTOR ( 'NONE', #573, 1000.000000000000000 ) ;
#365 = EDGE_CURVE ( 'NONE', #402, #1084, #219, .T. ) ;
#366 = DIRECTION ( 'NONE',  ( 0.0000000000000000000, 0.08715574274765518200, -0.9961946980917458800 ) ) ;
#367 = LINE ( 'NONE', #333, #626 ) ;
#368 = ORIENTED_EDGE ( 'NONE', *, *, #84, .F. ) ;
#369 = AXIS2_PLACEMENT_3D ( 'NONE', #21, #541, #1065 ) ;
#370 = CARTESIAN_POINT ( 'NONE',  ( 0.6249999999999998900, 0.8500000000000000900, 0.6000000000000240700 ) ) ;
#371 = EDGE_CURVE ( 'NONE', #1084, #1108, #621, .T. ) ;
#372 = EDGE_LOOP ( 'NONE', ( #616, #579, #189, #945 ) ) ;
#373 = ORIENTED_EDGE ( 'NONE', *, *, #135, .T. ) ;
#374 = FILL_AREA_STYLE_COLOUR ( '', #995 ) ;
#375 = AXIS2_PLACEMENT_3D ( 'NONE', #912, #379, #903 ) ;
#376 = COLOUR_RGB ( '',1.000000000000000000, 1.000000000000000000, 1.000000000000000000 ) ;
#377 = EDGE_CURVE ( 'NONE', #1084, #959, #484, .T. ) ;
#378 = APPLICATION_CONTEXT ( 'automotive_design' ) ;
#379 = DIRECTION ( 'NONE',  ( -0.0000000000000000000, 0.0000000000000000000, 1.000000000000000000 ) ) ;
#380 = VECTOR ( 'NONE', #811, 1000.000000000000000 ) ;
#381 = LINE ( 'NONE', #1024, #649 ) ;
#382 = PRODUCT_DEFINITION ( 'Î´Öª', '', #434, #108 ) ;
#383 = ORIENTED_EDGE ( 'NONE', *, *, #143, .F. ) ;
#384 = DIRECTION ( 'NONE',  ( 0.0000000000000000000, -1.000000000000000000, -2.288814125016084100E-016 ) ) ;
#385 = ORIENTED_EDGE ( 'NONE', *, *, #1026, .F. ) ;
#386 = CARTESIAN_POINT ( 'NONE',  ( -0.1499999999999999900, 1.250000000000000000, 0.1499999999999999900 ) ) ;
#387 = DIRECTION ( 'NONE',  ( 0.0000000000000000000, 0.0000000000000000000, 1.000000000000000000 ) ) ;
#388 = PRESENTATION_STYLE_ASSIGNMENT (( #115 ) ) ;
#389 = ORIENTED_EDGE ( 'NONE', *, *, #522, .F. ) ;
#390 = AXIS2_PLACEMENT_3D ( 'NONE', #500, #246, #391 ) ;
#391 = DIRECTION ( 'NONE',  ( 0.0000000000000000000, -0.08715574274765518200, -0.9961946980917458800 ) ) ;
#392 = ORIENTED_EDGE ( 'NONE', *, *, #460, .T. ) ;
#393 = PLANE ( 'NONE',  #927 ) ;
#394 = COLOUR_RGB ( '',1.000000000000000000, 1.000000000000000000, 1.000000000000000000 ) ;
#395 = AXIS2_PLACEMENT_3D ( 'NONE', #979, #421, #491 ) ;
#396 = LINE ( 'NONE', #1119, #27 ) ;
#397 = CARTESIAN_POINT ( 'NONE',  ( 0.1499999999999999900, 1.131575991619908200, 0.0000000000000000000 ) ) ;
#398 = AXIS2_PLACEMENT_3D ( 'NONE', #521, #1054, #430 ) ;
#399 = SURFACE_STYLE_FILL_AREA ( #221 ) ;
#400 = EDGE_CURVE ( 'NONE', #576, #431, #949, .T. ) ;
#401 = DIRECTION ( 'NONE',  ( -1.000000000000000000, -0.0000000000000000000, -0.0000000000000000000 ) ) ;
#402 = VERTEX_POINT ( 'NONE', #1023 ) ;
#403 = ORIENTED_EDGE ( 'NONE', *, *, #956, .T. ) ;
#404 = CARTESIAN_POINT ( 'NONE',  ( -0.6250000000000001100, 0.8500000000000000900, 0.6000000000000240700 ) ) ;
#405 = STYLED_ITEM ( 'NONE', ( #750 ), #188 ) ;
#406 = SURFACE_STYLE_USAGE ( .BOTH. , #566 ) ;
#407 = PLANE ( 'NONE',  #632 ) ;
#408 = FACE_OUTER_BOUND ( 'NONE', #286, .T. ) ;
#409 =( LENGTH_UNIT ( ) NAMED_UNIT ( * ) SI_UNIT ( .MILLI., .METRE. ) );
#410 = DIRECTION ( 'NONE',  ( -1.000000000000000000, -0.0000000000000000000, -0.0000000000000000000 ) ) ;
#411 = LINE ( 'NONE', #1085, #737 ) ;
#412 = ORIENTED_EDGE ( 'NONE', *, *, #725, .T. ) ;
#413 = DIRECTION ( 'NONE',  ( 0.0000000000000000000, -0.9961946980917458800, 0.08715574274765518200 ) ) ;
#414 = FILL_AREA_STYLE ('',( #1123 ) ) ;
#415 = EDGE_CURVE ( 'NONE', #1045, #267, #488, .T. ) ;
#416 = ORIENTED_EDGE ( 'NONE', *, *, #669, .T. ) ;
#417 = DIRECTION ( 'NONE',  ( -1.000000000000000000, 0.0000000000000000000, -0.0000000000000000000 ) ) ;
#418 = CARTESIAN_POINT ( 'NONE',  ( -0.1499999999999999900, -1.250000000000000000, 0.0000000000000000000 ) ) ;
#419 = EDGE_CURVE ( 'NONE', #256, #355, #968, .T. ) ;
#420 = ADVANCED_FACE ( 'NONE', ( #173 ), #60, .F. ) ;
#421 = DIRECTION ( 'NONE',  ( 1.000000000000000000, 1.275531967630005200E-016, -0.0000000000000000000 ) ) ;
#422 = CARTESIAN_POINT ( 'NONE',  ( -0.6121839424164869900, -0.8371839424164870800, 0.4535117915052646100 ) ) ;
#423 = SURFACE_SIDE_STYLE ('',( #962 ) ) ;
#424 = DIRECTION ( 'NONE',  ( 0.0000000000000000000, -0.08715574274765515400, 0.9961946980917457700 ) ) ;
#425 = STYLED_ITEM ( 'NONE', ( #899 ), #651 ) ;
#426 = FILL_AREA_STYLE_COLOUR ( '', #481 ) ;
#427 = ADVANCED_FACE ( 'NONE', ( #350 ), #841, .F. ) ;
#428 = DIRECTION ( 'NONE',  ( 0.0000000000000000000, 1.000000000000000000, -2.288814125016084100E-016 ) ) ;
#429 = EDGE_CURVE ( 'NONE', #137, #1092, #184, .T. ) ;
#430 = DIRECTION ( 'NONE',  ( 0.0000000000000000000, 0.0000000000000000000, -1.000000000000000000 ) ) ;
#431 = VERTEX_POINT ( 'NONE', #749 ) ;
#432 = DIRECTION ( 'NONE',  ( -1.275531967630005200E-016, 1.000000000000000000, 0.0000000000000000000 ) ) ;
#433 = ORIENTED_EDGE ( 'NONE', *, *, #1099, .F. ) ;
#434 = PRODUCT_DEFINITION_FORMATION_WITH_SPECIFIED_SOURCE ( 'ÈÎºÎ', '', #1110, .NOT_KNOWN. ) ;
#435 = ADVANCED_FACE ( 'NONE', ( #534 ), #393, .F. ) ;
#436 = DIRECTION ( 'NONE',  ( 0.0000000000000000000, 0.08715574274765515400, 0.9961946980917457700 ) ) ;
#437 = LINE ( 'NONE', #1052, #925 ) ;
#438 = VECTOR ( 'NONE', #837, 1000.000000000000000 ) ;
#439 = CIRCLE ( 'NONE', #369, 0.2500000000000000000 ) ;
#440 = CARTESIAN_POINT ( 'NONE',  ( 0.1499999999999999900, 0.8499999999999992000, 0.6000000000000000900 ) ) ;
#441 = SURFACE_STYLE_FILL_AREA ( #592 ) ;
#442 = ORIENTED_EDGE ( 'NONE', *, *, #842, .F. ) ;
#443 = DIRECTION ( 'NONE',  ( 0.0000000000000000000, 0.0000000000000000000, 1.000000000000000000 ) ) ;
#444 = VERTEX_POINT ( 'NONE', #53 ) ;
#445 = FACE_OUTER_BOUND ( 'NONE', #745, .T. ) ;
#446 = VERTEX_POINT ( 'NONE', #314 ) ;
#447 = DIRECTION ( 'NONE',  ( -1.275531967630005200E-016, 1.000000000000000000, -0.0000000000000000000 ) ) ;
#448 = CARTESIAN_POINT ( 'NONE',  ( 0.1499999999999999900, -1.131575991619908600, 0.2500000000000000000 ) ) ;
#449 = AXIS2_PLACEMENT_3D ( 'NONE', #154, #667, #66 ) ;
#450 = DIRECTION ( 'NONE',  ( 1.275531967630005200E-016, -1.000000000000000000, 0.0000000000000000000 ) ) ;
#451 = LINE ( 'NONE', #681, #380 ) ;
#452 = DIRECTION ( 'NONE',  ( 1.000000000000000000, 0.0000000000000000000, 0.0000000000000000000 ) ) ;
#453 = LINE ( 'NONE', #111, #771 ) ;
#454 = VECTOR ( 'NONE', #450, 1000.000000000000000 ) ;
#455 = VECTOR ( 'NONE', #1030, 1000.000000000000000 ) ;
#456 = PLANE ( 'NONE',  #542 ) ;
#457 = VERTEX_POINT ( 'NONE', #828 ) ;
#458 = AXIS2_PLACEMENT_3D ( 'NONE', #346, #861, #265 ) ;
#459 = DIRECTION ( 'NONE',  ( 0.0000000000000000000, 0.0000000000000000000, 1.000000000000000000 ) ) ;
#460 = EDGE_CURVE ( 'NONE', #319, #628, #773, .T. ) ;
#461 = ORIENTED_EDGE ( 'NONE', *, *, #788, .F. ) ;
#462 = DIRECTION ( 'NONE',  ( -1.000000000000000000, -0.0000000000000000000, -0.0000000000000000000 ) ) ;
#463 = ORIENTED_EDGE ( 'NONE', *, *, #662, .T. ) ;
#464 =( NAMED_UNIT ( * ) PLANE_ANGLE_UNIT ( ) SI_UNIT ( $, .RADIAN. ) );
#465 = PLANE ( 'NONE',  #375 ) ;
#466 = SURFACE_STYLE_FILL_AREA ( #731 ) ;
#467 = UNCERTAINTY_MEASURE_WITH_UNIT (LENGTH_MEASURE( 1.000000000000000100E-005 ), #704, 'distance_accuracy_value', 'NONE');
#468 = DIRECTION ( 'NONE',  ( 0.0000000000000000000, 7.228014483236698500E-016, -1.000000000000000000 ) ) ;
#469 = PRESENTATION_LAYER_ASSIGNMENT (  '', '', ( #405 ) ) ;
#470 = PLANE ( 'NONE',  #791 ) ;
#471 = DIRECTION ( 'NONE',  ( 0.0000000000000000000, 0.0000000000000000000, -1.000000000000000000 ) ) ;
#472 = ORIENTED_EDGE ( 'NONE', *, *, #214, .T. ) ;
#473 = VECTOR ( 'NONE', #171, 1000.000000000000000 ) ;
#474 = EDGE_LOOP ( 'NONE', ( #1060, #1, #931, #1043, #244, #719, #519, #1080, #94 ) ) ;
#475 = EDGE_CURVE ( 'NONE', #36, #267, #838, .T. ) ;
#476 = DIRECTION ( 'NONE',  ( 0.0000000000000000000, -0.0000000000000000000, -1.000000000000000000 ) ) ;
#477 = VECTOR ( 'NONE', #91, 1000.000000000000100 ) ;
#478 = STYLED_ITEM ( 'NONE', ( #388 ), #701 ) ;
#479 = VECTOR ( 'NONE', #384, 1000.000000000000000 ) ;
#480 = EDGE_CURVE ( 'NONE', #1066, #907, #860, .T. ) ;
#481 = COLOUR_RGB ( '',1.000000000000000000, 1.000000000000000000, 1.000000000000000000 ) ;
#482 = FILL_AREA_STYLE ('',( #581 ) ) ;
#483 = ORIENTED_EDGE ( 'NONE', *, *, #1090, .F. ) ;
#484 = LINE ( 'NONE', #759, #905 ) ;
#485 = AXIS2_PLACEMENT_3D ( 'NONE', #302, #33, #553 ) ;
#486 = EDGE_LOOP ( 'NONE', ( #218, #946, #764, #1121, #987, #416, #888, #751, #1002 ) ) ;
#487 = DIRECTION ( 'NONE',  ( 0.0000000000000000000, 0.0000000000000000000, 1.000000000000000000 ) ) ;
#488 = LINE ( 'NONE', #930, #438 ) ;
#489 = EDGE_CURVE ( 'NONE', #871, #672, #238, .T. ) ;
#490 = ORIENTED_EDGE ( 'NONE', *, *, #836, .F. ) ;
#491 = DIRECTION ( 'NONE',  ( -1.275531967630005200E-016, 1.000000000000000000, 0.0000000000000000000 ) ) ;
#492 = ORIENTED_EDGE ( 'NONE', *, *, #460, .F. ) ;
#493 = PRESENTATION_LAYER_ASSIGNMENT (  '', '', ( #348 ) ) ;
#494 = CARTESIAN_POINT ( 'NONE',  ( -0.1499999999999999900, -0.8499999999999993100, 0.7500000000000000000 ) ) ;
#495 = VECTOR ( 'NONE', #655, 1000.000000000000000 ) ;
#496 = PLANE ( 'NONE',  #359 ) ;
#497 = LINE ( 'NONE', #386, #571 ) ;
#498 = DIRECTION ( 'NONE',  ( 0.0000000000000000000, 0.0000000000000000000, -1.000000000000000000 ) ) ;
#499 = CIRCLE ( 'NONE', #712, 0.1000000000000001600 ) ;
#500 = CARTESIAN_POINT ( 'NONE',  ( 0.1499999999999999900, -1.031956521810733800, 0.2412844257252344500 ) ) ;
#501 = ORIENTED_EDGE ( 'NONE', *, *, #400, .F. ) ;
#502 = ORIENTED_EDGE ( 'NONE', *, *, #669, .F. ) ;
#503 = DIRECTION ( 'NONE',  ( 0.0000000000000000000, 0.0000000000000000000, 1.000000000000000000 ) ) ;
#504 = ORIENTED_EDGE ( 'NONE', *, *, #415, .F. ) ;
#505 = DIRECTION ( 'NONE',  ( -1.000000000000000000, 0.0000000000000000000, 0.0000000000000000000 ) ) ;
#506 = AXIS2_PLACEMENT_3D ( 'NONE', #1001, #671, #69 ) ;
#507 = DIRECTION ( 'NONE',  ( 0.0000000000000000000, 1.000000000000000000, 0.0000000000000000000 ) ) ;
#508 = LINE ( 'NONE', #802, #118 ) ;
#509 = ADVANCED_FACE ( 'NONE', ( #789 ), #229, .F. ) ;
#510 = SURFACE_STYLE_FILL_AREA ( #629 ) ;
#511 = DIRECTION ( 'NONE',  ( 0.9961946980917458800, 1.270678183399543800E-016, 0.08715574274765483500 ) ) ;
#512 = LINE ( 'NONE', #673, #777 ) ;
#513 = ORIENTED_EDGE ( 'NONE', *, *, #1051, .F. ) ;
#514 = LINE ( 'NONE', #1015, #242 ) ;
#515 = EDGE_LOOP ( 'NONE', ( #988, #876, #3, #15 ) ) ;
#516 = CARTESIAN_POINT ( 'NONE',  ( -0.1499999999999999900, 1.031956521810733800, 0.2412844257252344500 ) ) ;
#517 = AXIS2_PLACEMENT_3D ( 'NONE', #253, #503, #944 ) ;
#518 = ADVANCED_FACE ( 'NONE', ( #363 ), #568, .T. ) ;
#519 = ORIENTED_EDGE ( 'NONE', *, *, #268, .T. ) ;
#520 = AXIS2_PLACEMENT_3D ( 'NONE', #964, #864, #1131 ) ;
#521 = CARTESIAN_POINT ( 'NONE',  ( -0.1499999999999999900, -1.131575991619908600, 0.2500000000000000000 ) ) ;
#522 = EDGE_CURVE ( 'NONE', #999, #39, #200, .T. ) ;
#523 = ADVANCED_FACE ( 'NONE', ( #52 ), #742, .T. ) ;
#524 = DIRECTION ( 'NONE',  ( 0.0000000000000000000, 7.228014483236698500E-016, 1.000000000000000000 ) ) ;
#525 = CARTESIAN_POINT ( 'NONE',  ( 0.1499999999999999900, -0.8499999999999992000, 0.6000000000000000900 ) ) ;
#526 = COLOUR_RGB ( '',1.000000000000000000, 1.000000000000000000, 1.000000000000000000 ) ;
#527 = CARTESIAN_POINT ( 'NONE',  ( 0.1499999999999999900, 0.9994292047137611800, 0.6130733614121483000 ) ) ;
#528 = MECHANICAL_DESIGN_GEOMETRIC_PRESENTATION_REPRESENTATION (  '', ( #405 ), #589 ) ;
#529 = VERTEX_POINT ( 'NONE', #139 ) ;
#530 = VERTEX_POINT ( 'NONE', #648 ) ;
#531 = ORIENTED_EDGE ( 'NONE', *, *, #967, .F. ) ;
#532 = DIRECTION ( 'NONE',  ( 1.000000000000000000, 0.0000000000000000000, 0.0000000000000000000 ) ) ;
#533 =( NAMED_UNIT ( * ) SI_UNIT ( $, .STERADIAN. ) SOLID_ANGLE_UNIT ( ) );
#534 = FACE_OUTER_BOUND ( 'NONE', #668, .T. ) ;
#535 = LINE ( 'NONE', #823, #479 ) ;
#536 = DIRECTION ( 'NONE',  ( -0.9961946980917458800, -1.270678183399543800E-016, 0.08715574274765483500 ) ) ;
#537 = UNCERTAINTY_MEASURE_WITH_UNIT (LENGTH_MEASURE( 1.000000000000000100E-005 ), #637, 'distance_accuracy_value', 'NONE');
#538 = VECTOR ( 'NONE', #551, 1000.000000000000000 ) ;
#539 = EDGE_CURVE ( 'NONE', #907, #340, #116, .T. ) ;
#540 = CARTESIAN_POINT ( 'NONE',  ( 0.1499999999999999900, -1.250000000000000000, 0.1499999999999999900 ) ) ;
#541 = DIRECTION ( 'NONE',  ( -1.000000000000000000, -0.0000000000000000000, -0.0000000000000000000 ) ) ;
#542 = AXIS2_PLACEMENT_3D ( 'NONE', #726, #981, #366 ) ;
#543 = DIRECTION ( 'NONE',  ( -1.000000000000000000, 0.0000000000000000000, -0.0000000000000000000 ) ) ;
#544 = EDGE_CURVE ( 'NONE', #963, #146, #497, .T. ) ;
#545 = ORIENTED_EDGE ( 'NONE', *, *, #781, .T. ) ;
#546 = VECTOR ( 'NONE', #567, 1000.000000000000000 ) ;
#547 =( NAMED_UNIT ( * ) PLANE_ANGLE_UNIT ( ) SI_UNIT ( $, .RADIAN. ) );
#548 = VERTEX_POINT ( 'NONE', #222 ) ;
#549 = EDGE_LOOP ( 'NONE', ( #412, #700, #433, #45 ) ) ;
#550 = VECTOR ( 'NONE', #339, 1000.000000000000000 ) ;
#551 = DIRECTION ( 'NONE',  ( 0.0000000000000000000, -7.228014483236698500E-016, -1.000000000000000000 ) ) ;
#552 = ORIENTED_EDGE ( 'NONE', *, *, #135, .F. ) ;
#553 = DIRECTION ( 'NONE',  ( -1.000000000000000000, 0.0000000000000000000, 0.0000000000000000000 ) ) ;
#554 = PRESENTATION_LAYER_ASSIGNMENT (  '', '', ( #425 ) ) ;
#555 = EDGE_CURVE ( 'NONE', #319, #1066, #851, .T. ) ;
#556 =( NAMED_UNIT ( * ) SI_UNIT ( $, .STERADIAN. ) SOLID_ANGLE_UNIT ( ) );
#557 = VECTOR ( 'NONE', #984, 1000.000000000000000 ) ;
#558 = SURFACE_STYLE_FILL_AREA ( #689 ) ;
#559 = MECHANICAL_DESIGN_GEOMETRIC_PRESENTATION_REPRESENTATION (  '', ( #348 ), #615 ) ;
#560 =( LENGTH_UNIT ( ) NAMED_UNIT ( * ) SI_UNIT ( .MILLI., .METRE. ) );
#561 = DIRECTION ( 'NONE',  ( -1.000000000000000000, -0.0000000000000000000, -0.0000000000000000000 ) ) ;
#562 = EDGE_LOOP ( 'NONE', ( #463, #577, #810, #682 ) ) ;
#563 =( NAMED_UNIT ( * ) SI_UNIT ( $, .STERADIAN. ) SOLID_ANGLE_UNIT ( ) );
#564 = VERTEX_POINT ( 'NONE', #915 ) ;
#565 = ORIENTED_EDGE ( 'NONE', *, *, #662, .F. ) ;
#566 = SURFACE_SIDE_STYLE ('',( #840 ) ) ;
#567 = DIRECTION ( 'NONE',  ( 0.0000000000000000000, 0.0000000000000000000, 1.000000000000000000 ) ) ;
#568 = PLANE ( 'NONE',  #28 ) ;
#569 = FACE_OUTER_BOUND ( 'NONE', #807, .T. ) ;
#570 = CARTESIAN_POINT ( 'NONE',  ( 0.1499999999999999900, 0.8825273170969718500, 0.2282110643130862400 ) ) ;
#571 = VECTOR ( 'NONE', #307, 1000.000000000000000 ) ;
#572 = ORIENTED_EDGE ( 'NONE', *, *, #522, .T. ) ;
#573 = DIRECTION ( 'NONE',  ( 0.08682659386424430900, -0.08682659386424430900, -0.9924325091389677400 ) ) ;
#574 = PRESENTATION_STYLE_ASSIGNMENT (( #311 ) ) ;
#575 = ORIENTED_EDGE ( 'NONE', *, *, #725, .F. ) ;
#576 = VERTEX_POINT ( 'NONE', #645 ) ;
#577 = ORIENTED_EDGE ( 'NONE', *, *, #906, .F. ) ;
#578 = DIRECTION ( 'NONE',  ( 0.0000000000000000000, 0.0000000000000000000, 1.000000000000000000 ) ) ;
#579 = ORIENTED_EDGE ( 'NONE', *, *, #873, .F. ) ;
#580 = AXIS2_PLACEMENT_3D ( 'NONE', #709, #798, #600 ) ;
#581 = FILL_AREA_STYLE_COLOUR ( '', #526 ) ;
#582 = EDGE_CURVE ( 'NONE', #1033, #769, #535, .T. ) ;
#583 = CARTESIAN_POINT ( 'NONE',  ( -0.1499999999999999900, 1.131575991619908600, 0.2500000000000000000 ) ) ;
#584 = CARTESIAN_POINT ( 'NONE',  ( 0.1499999999999999900, 1.031956521810733800, 0.2412844257252344500 ) ) ;
#585 = PRODUCT_DEFINITION_SHAPE ( 'NONE', 'NONE',  #382 ) ;
#586 = ORIENTED_EDGE ( 'NONE', *, *, #967, .T. ) ;
#587 = EDGE_LOOP ( 'NONE', ( #502, #389, #812, #210 ) ) ;
#588 = UNCERTAINTY_MEASURE_WITH_UNIT (LENGTH_MEASURE( 1.000000000000000100E-005 ), #675, 'distance_accuracy_value', 'NONE');
#589 =( GEOMETRIC_REPRESENTATION_CONTEXT ( 3 ) GLOBAL_UNCERTAINTY_ASSIGNED_CONTEXT ( ( #248 ) ) GLOBAL_UNIT_ASSIGNED_CONTEXT ( ( #44, #647, #563 ) ) REPRESENTATION_CONTEXT ( 'NONE', 'WORKASPACE' ) );
#590 = SURFACE_SIDE_STYLE ('',( #794 ) ) ;
#591 = LINE ( 'NONE', #1038, #1040 ) ;
#592 = FILL_AREA_STYLE ('',( #68 ) ) ;
#593 = DIRECTION ( 'NONE',  ( 0.0000000000000000000, 0.0000000000000000000, -1.000000000000000000 ) ) ;
#594 = VECTOR ( 'NONE', #747, 1000.000000000000000 ) ;
#595 = PLANE ( 'NONE',  #993 ) ;
#596 =( LENGTH_UNIT ( ) NAMED_UNIT ( * ) SI_UNIT ( .MILLI., .METRE. ) );
#597 = PLANE ( 'NONE',  #1010 ) ;
#598 = EDGE_CURVE ( 'NONE', #959, #113, #87, .T. ) ;
#599 = EDGE_LOOP ( 'NONE', ( #483, #385, #123, #976 ) ) ;
#600 = DIRECTION ( 'NONE',  ( 0.0000000000000000000, 0.0000000000000000000, -1.000000000000000000 ) ) ;
#601 = ORIENTED_EDGE ( 'NONE', *, *, #312, .F. ) ;
#602 = PRESENTATION_LAYER_ASSIGNMENT (  '', '', ( #478 ) ) ;
#603 = PLANE ( 'NONE',  #636 ) ;
#604 = EDGE_CURVE ( 'NONE', #769, #402, #133, .T. ) ;
#605 = ADVANCED_FACE ( 'NONE', ( #803 ), #465, .T. ) ;
#606 = DIRECTION ( 'NONE',  ( 0.0000000000000000000, 0.0000000000000000000, -1.000000000000000000 ) ) ;
#607 = LINE ( 'NONE', #404, #728 ) ;
#608 = MECHANICAL_DESIGN_GEOMETRIC_PRESENTATION_REPRESENTATION (  '', ( #425 ), #1117 ) ;
#609 = VECTOR ( 'NONE', #337, 1000.000000000000000 ) ;
#610 = DIRECTION ( 'NONE',  ( 0.0000000000000000000, 0.0000000000000000000, -1.000000000000000000 ) ) ;
#611 = EDGE_CURVE ( 'NONE', #529, #564, #982, .T. ) ;
#612 = VECTOR ( 'NONE', #432, 1000.000000000000000 ) ;
#613 =( NAMED_UNIT ( * ) SI_UNIT ( $, .STERADIAN. ) SOLID_ANGLE_UNIT ( ) );
#614 = ADVANCED_FACE ( 'NONE', ( #293 ), #633, .F. ) ;
#615 =( GEOMETRIC_REPRESENTATION_CONTEXT ( 3 ) GLOBAL_UNCERTAINTY_ASSIGNED_CONTEXT ( ( #986 ) ) GLOBAL_UNIT_ASSIGNED_CONTEXT ( ( #783, #817, #795 ) ) REPRESENTATION_CONTEXT ( 'NONE', 'WORKASPACE' ) );
#616 = ORIENTED_EDGE ( 'NONE', *, *, #1039, .T. ) ;
#617 = PLANE ( 'NONE',  #59 ) ;
#618 = ORIENTED_EDGE ( 'NONE', *, *, #214, .F. ) ;
#619 = ORIENTED_EDGE ( 'NONE', *, *, #152, .T. ) ;
#620 = CARTESIAN_POINT ( 'NONE',  ( 0.1499999999999999900, 1.131575991619908600, 0.1499999999999999700 ) ) ;
#621 = CIRCLE ( 'NONE', #449, 0.1500000000000000200 ) ;
#622 = LINE ( 'NONE', #623, #130 ) ;
#623 = CARTESIAN_POINT ( 'NONE',  ( 0.1499999999999999900, 0.8499999999999992000, 0.6000000000000000900 ) ) ;
#624 =( NAMED_UNIT ( * ) PLANE_ANGLE_UNIT ( ) SI_UNIT ( $, .RADIAN. ) );
#625 =( LENGTH_UNIT ( ) NAMED_UNIT ( * ) SI_UNIT ( .MILLI., .METRE. ) );
#626 = VECTOR ( 'NONE', #354, 1000.000000000000000 ) ;
#627 = ORIENTED_EDGE ( 'NONE', *, *, #351, .F. ) ;
#628 = VERTEX_POINT ( 'NONE', #1073 ) ;
#629 = FILL_AREA_STYLE ('',( #291 ) ) ;
#630 = CARTESIAN_POINT ( 'NONE',  ( -0.1499999999999999900, 0.9994292047137611800, 0.6130733614121483000 ) ) ;
#631 = SURFACE_STYLE_USAGE ( .BOTH. , #126 ) ;
#632 = AXIS2_PLACEMENT_3D ( 'NONE', #342, #191, #966 ) ;
#633 = PLANE ( 'NONE',  #485 ) ;
#634 = FACE_OUTER_BOUND ( 'NONE', #174, .T. ) ;
#635 = COLOUR_RGB ( '',1.000000000000000000, 1.000000000000000000, 1.000000000000000000 ) ;
#636 = AXIS2_PLACEMENT_3D ( 'NONE', #955, #511, #1046 ) ;
#637 =( LENGTH_UNIT ( ) NAMED_UNIT ( * ) SI_UNIT ( .MILLI., .METRE. ) );
#638 = EDGE_CURVE ( 'NONE', #734, #1003, #1036, .T. ) ;
#639 = ORIENTED_EDGE ( 'NONE', *, *, #4, .T. ) ;
#640 = DIRECTION ( 'NONE',  ( 0.0000000000000000000, 0.0000000000000000000, -1.000000000000000000 ) ) ;
#641 = EDGE_LOOP ( 'NONE', ( #67, #92, #902, #797 ) ) ;
#642 = ORIENTED_EDGE ( 'NONE', *, *, #1132, .T. ) ;
#643 = CARTESIAN_POINT ( 'NONE',  ( 0.0000000000000000000, 0.0000000000000000000, 0.0000000000000000000 ) ) ;
#644 = ORIENTED_EDGE ( 'NONE', *, *, #761, .F. ) ;
#645 = CARTESIAN_POINT ( 'NONE',  ( 0.1499999999999999900, -1.250000000000000000, 0.0000000000000000000 ) ) ;
#646 = LINE ( 'NONE', #289, #1000 ) ;
#647 =( NAMED_UNIT ( * ) PLANE_ANGLE_UNIT ( ) SI_UNIT ( $, .RADIAN. ) );
#648 = CARTESIAN_POINT ( 'NONE',  ( 0.6249999999999998900, 0.8500000000000000900, 0.9000000000000000200 ) ) ;
#649 = VECTOR ( 'NONE', #656, 1000.000000000000000 ) ;
#650 = CARTESIAN_POINT ( 'NONE',  ( 0.1499999999999999900, 1.131575991619908600, 0.2500000000000000000 ) ) ;
#651 = MANIFOLD_SOLID_BREP ( 'Mold', #338 ) ;
#652 = FACE_OUTER_BOUND ( 'NONE', #1059, .T. ) ;
#653 = ORIENTED_EDGE ( 'NONE', *, *, #208, .F. ) ;
#654 = ORIENTED_EDGE ( 'NONE', *, *, #259, .F. ) ;
#655 = DIRECTION ( 'NONE',  ( -1.000000000000000000, -0.0000000000000000000, -0.0000000000000000000 ) ) ;
#656 = DIRECTION ( 'NONE',  ( -1.000000000000000000, -0.0000000000000000000, -0.0000000000000000000 ) ) ;
#657 = EDGE_CURVE ( 'NONE', #1092, #267, #1071, .T. ) ;
#658 = DIRECTION ( 'NONE',  ( -0.0000000000000000000, -0.0000000000000000000, -1.000000000000000000 ) ) ;
#659 = UNCERTAINTY_MEASURE_WITH_UNIT (LENGTH_MEASURE( 1.000000000000000100E-005 ), #345, 'distance_accuracy_value', 'NONE');
#660 = MECHANICAL_DESIGN_GEOMETRIC_PRESENTATION_REPRESENTATION (  '', ( #478 ), #727 ) ;
#661 = PLANE ( 'NONE',  #914 ) ;
#662 = EDGE_CURVE ( 'NONE', #355, #963, #1113, .T. ) ;
#663 = CARTESIAN_POINT ( 'NONE',  ( -0.6250000000000001100, 0.8500000000000000900, 0.9000000000000000200 ) ) ;
#664 = CARTESIAN_POINT ( 'NONE',  ( 0.1499999999999999900, 1.250000000000000000, 0.0000000000000000000 ) ) ;
#665 = PRESENTATION_STYLE_ASSIGNMENT (( #406 ) ) ;
#666 = SHAPE_DEFINITION_REPRESENTATION ( #585, #300 ) ;
#667 = DIRECTION ( 'NONE',  ( 1.000000000000000000, 0.0000000000000000000, 0.0000000000000000000 ) ) ;
#668 = EDGE_LOOP ( 'NONE', ( #74, #875, #618, #461 ) ) ;
#669 = EDGE_CURVE ( 'NONE', #39, #564, #439, .T. ) ;
#670 = SURFACE_SIDE_STYLE ('',( #228 ) ) ;
#671 = DIRECTION ( 'NONE',  ( 0.0000000000000000000, 1.000000000000000000, 0.0000000000000000000 ) ) ;
#672 = VERTEX_POINT ( 'NONE', #120 ) ;
#673 = CARTESIAN_POINT ( 'NONE',  ( -0.6249999999999998900, -0.8499999999999999800, 0.9000000000000000200 ) ) ;
#674 = ORIENTED_EDGE ( 'NONE', *, *, #64, .F. ) ;
#675 =( LENGTH_UNIT ( ) NAMED_UNIT ( * ) SI_UNIT ( .MILLI., .METRE. ) );
#676 = FACE_OUTER_BOUND ( 'NONE', #1067, .T. ) ;
#677 = DIRECTION ( 'NONE',  ( 0.0000000000000000000, 0.0000000000000000000, -1.000000000000000000 ) ) ;
#678 = COLOUR_RGB ( '',1.000000000000000000, 1.000000000000000000, 1.000000000000000000 ) ;
#679 = CARTESIAN_POINT ( 'NONE',  ( 0.1499999999999999900, -0.8499999999999992000, 0.6000000000000000900 ) ) ;
#680 = DIRECTION ( 'NONE',  ( 1.000000000000000000, 0.0000000000000000000, 0.0000000000000000000 ) ) ;
#681 = CARTESIAN_POINT ( 'NONE',  ( 0.1499999999999999900, -1.131575991619908200, 0.0000000000000000000 ) ) ;
#682 = ORIENTED_EDGE ( 'NONE', *, *, #419, .T. ) ;
#683 = CARTESIAN_POINT ( 'NONE',  ( 0.1499999999999999900, -1.250000000000000000, 0.0000000000000000000 ) ) ;
#684 = LINE ( 'NONE', #287, #473 ) ;
#685 = PLANE ( 'NONE',  #1125 ) ;
#686 = AXIS2_PLACEMENT_3D ( 'NONE', #397, #578, #1097 ) ;
#687 = CARTESIAN_POINT ( 'NONE',  ( -0.1499999999999999900, 1.131575991619908200, 0.0000000000000000000 ) ) ;
#688 = VECTOR ( 'NONE', #357, 1000.000000000000000 ) ;
#689 = FILL_AREA_STYLE ('',( #953 ) ) ;
#690 = FACE_OUTER_BOUND ( 'NONE', #641, .T. ) ;
#691 =( NAMED_UNIT ( * ) PLANE_ANGLE_UNIT ( ) SI_UNIT ( $, .RADIAN. ) );
#692 = PLANE ( 'NONE',  #760 ) ;
#693 = ADVANCED_FACE ( 'NONE', ( #86 ), #456, .F. ) ;
#694 = CARTESIAN_POINT ( 'NONE',  ( -0.1499999999999999900, -1.031956521810733800, 0.2412844257252344500 ) ) ;
#695 = LINE ( 'NONE', #663, #901 ) ;
#696 = CARTESIAN_POINT ( 'NONE',  ( -0.6250000000000001100, 0.8500000000000000900, 0.6000000000000240700 ) ) ;
#697 = CARTESIAN_POINT ( 'NONE',  ( -0.1499999999999999900, 1.131575991619908600, 0.2500000000000000000 ) ) ;
#698 = AXIS2_PLACEMENT_3D ( 'NONE', #1122, #77, #610 ) ;
#699 = ORIENTED_EDGE ( 'NONE', *, *, #16, .T. ) ;
#700 = ORIENTED_EDGE ( 'NONE', *, *, #96, .F. ) ;
#701 = ADVANCED_FACE ( 'NONE', ( #748 ), #235, .F. ) ;
#702 = FILL_AREA_STYLE_COLOUR ( '', #635 ) ;
#703 = STYLED_ITEM ( 'NONE', ( #926 ), #874 ) ;
#704 =( LENGTH_UNIT ( ) NAMED_UNIT ( * ) SI_UNIT ( .MILLI., .METRE. ) );
#705 = EDGE_CURVE ( 'NONE', #431, #121, #508, .T. ) ;
#706 = PLANE ( 'NONE',  #866 ) ;
#707 =( NAMED_UNIT ( * ) PLANE_ANGLE_UNIT ( ) SI_UNIT ( $, .RADIAN. ) );
#708 = LINE ( 'NONE', #970, #971 ) ;
#709 = CARTESIAN_POINT ( 'NONE',  ( -0.1499999999999999900, -1.131575991619908600, 0.2500000000000000000 ) ) ;
#710 = DIRECTION ( 'NONE',  ( -1.000000000000000000, 0.0000000000000000000, -0.0000000000000000000 ) ) ;
#711 = LINE ( 'NONE', #744, #819 ) ;
#712 = AXIS2_PLACEMENT_3D ( 'NONE', #835, #910, #1012 ) ;
#713 = CARTESIAN_POINT ( 'NONE',  ( -0.1499999999999999900, -0.8499999999999992000, 0.6000000000000000900 ) ) ;
#714 = UNCERTAINTY_MEASURE_WITH_UNIT (LENGTH_MEASURE( 1.000000000000000100E-005 ), #1078, 'distance_accuracy_value', 'NONE');
#715 = EDGE_LOOP ( 'NONE', ( #958, #718, #1017, #298 ) ) ;
#716 =( NAMED_UNIT ( * ) SI_UNIT ( $, .STERADIAN. ) SOLID_ANGLE_UNIT ( ) );
#717 = CARTESIAN_POINT ( 'NONE',  ( -0.1499999999999999900, -1.131575991619908200, 0.0000000000000000000 ) ) ;
#718 = ORIENTED_EDGE ( 'NONE', *, *, #1132, .F. ) ;
#719 = ORIENTED_EDGE ( 'NONE', *, *, #1099, .T. ) ;
#720 =( LENGTH_UNIT ( ) NAMED_UNIT ( * ) SI_UNIT ( .MILLI., .METRE. ) );
#721 = CARTESIAN_POINT ( 'NONE',  ( -0.1499999999999999900, -0.8825273170969718500, 0.2282110643130862400 ) ) ;
#722 = DIRECTION ( 'NONE',  ( 0.0000000000000000000, -7.228014483236698500E-016, 1.000000000000000000 ) ) ;
#723 = SURFACE_SIDE_STYLE ('',( #510 ) ) ;
#724 = PLANE ( 'NONE',  #124 ) ;
#725 = EDGE_CURVE ( 'NONE', #672, #138, #263, .T. ) ;
#726 = CARTESIAN_POINT ( 'NONE',  ( 0.1499999999999999900, 1.031956521810733800, 0.2412844257252344500 ) ) ;
#727 =( GEOMETRIC_REPRESENTATION_CONTEXT ( 3 ) GLOBAL_UNCERTAINTY_ASSIGNED_CONTEXT ( ( #75 ) ) GLOBAL_UNIT_ASSIGNED_CONTEXT ( ( #625, #18, #533 ) ) REPRESENTATION_CONTEXT ( 'NONE', 'WORKASPACE' ) );
#728 = VECTOR ( 'NONE', #255, 1000.000000000000000 ) ;
#729 = DIRECTION ( 'NONE',  ( 0.0000000000000000000, 1.000000000000000000, -7.228014483236698500E-016 ) ) ;
#730 = EDGE_CURVE ( 'NONE', #564, #869, #54, .T. ) ;
#731 = FILL_AREA_STYLE ('',( #374 ) ) ;
#732 = LINE ( 'NONE', #881, #1009 ) ;
#733 = VERTEX_POINT ( 'NONE', #114 ) ;
#734 = VERTEX_POINT ( 'NONE', #440 ) ;
#735 = EDGE_LOOP ( 'NONE', ( #991, #322, #61, #642 ) ) ;
#736 = CARTESIAN_POINT ( 'NONE',  ( 0.1499999999999999900, -1.131575991619908200, 0.0000000000000000000 ) ) ;
#737 = VECTOR ( 'NONE', #680, 1000.000000000000000 ) ;
#738 = ORIENTED_EDGE ( 'NONE', *, *, #429, .F. ) ;
#739 = EDGE_CURVE ( 'NONE', #734, #871, #622, .T. ) ;
#740 = SURFACE_SIDE_STYLE ('',( #185 ) ) ;
#741 = CARTESIAN_POINT ( 'NONE',  ( -0.1499999999999999900, 0.8499999999999992000, 0.6000000000000000900 ) ) ;
#742 = CYLINDRICAL_SURFACE ( 'NONE', #150, 0.2500000000000000000 ) ;
#743 = CARTESIAN_POINT ( 'NONE',  ( -0.1499999999999999900, -0.8499999999999993100, 0.7500000000000000000 ) ) ;
#744 = CARTESIAN_POINT ( 'NONE',  ( -0.1499999999999999900, 1.131575991619908200, 0.0000000000000000000 ) ) ;
#745 = EDGE_LOOP ( 'NONE', ( #799, #17, #644, #627 ) ) ;
#746 = DIRECTION ( 'NONE',  ( 0.0000000000000000000, 2.288814125016084100E-016, -1.000000000000000000 ) ) ;
#747 = DIRECTION ( 'NONE',  ( -1.000000000000000000, 0.0000000000000000000, -0.0000000000000000000 ) ) ;
#748 = FACE_OUTER_BOUND ( 'NONE', #599, .T. ) ;
#749 = CARTESIAN_POINT ( 'NONE',  ( 0.1499999999999999900, -1.250000000000000000, 0.1499999999999999900 ) ) ;
#750 = PRESENTATION_STYLE_ASSIGNMENT (( #758 ) ) ;
#751 = ORIENTED_EDGE ( 'NONE', *, *, #128, .T. ) ;
#752 = LINE ( 'NONE', #330, #546 ) ;
#753 = EDGE_LOOP ( 'NONE', ( #639, #170, #48, #961 ) ) ;
#754 = DIRECTION ( 'NONE',  ( 0.0000000000000000000, 0.08715574274765515400, -0.9961946980917457700 ) ) ;
#755 = ORIENTED_EDGE ( 'NONE', *, *, #582, .F. ) ;
#756 = CARTESIAN_POINT ( 'NONE',  ( 0.6249999999999998900, 0.8500000000000000900, 0.6000000000000240700 ) ) ;
#757 = ORIENTED_EDGE ( 'NONE', *, *, #937, .T. ) ;
#758 = SURFACE_STYLE_USAGE ( .BOTH. , #590 ) ;
#759 = CARTESIAN_POINT ( 'NONE',  ( 0.1499999999999999900, 0.9994292047137611800, 0.6130733614121483000 ) ) ;
#760 = AXIS2_PLACEMENT_3D ( 'NONE', #697, #857, #262 ) ;
#761 = EDGE_CURVE ( 'NONE', #530, #309, #929, .T. ) ;
#762 = FACE_OUTER_BOUND ( 'NONE', #486, .T. ) ;
#763 = CARTESIAN_POINT ( 'NONE',  ( -0.1499999999999999900, 1.250000000000000000, 0.0000000000000000000 ) ) ;
#764 = ORIENTED_EDGE ( 'NONE', *, *, #821, .T. ) ;
#765 = DIRECTION ( 'NONE',  ( 1.000000000000000000, 0.0000000000000000000, 0.0000000000000000000 ) ) ;
#766 = ORIENTED_EDGE ( 'NONE', *, *, #64, .T. ) ;
#767 = AXIS2_PLACEMENT_3D ( 'NONE', #846, #855, #260 ) ;
#768 = SURFACE_SIDE_STYLE ('',( #558 ) ) ;
#769 = VERTEX_POINT ( 'NONE', #620 ) ;
#770 = DIRECTION ( 'NONE',  ( 0.0000000000000000000, 1.000000000000000000, -2.288814125016084100E-016 ) ) ;
#771 = VECTOR ( 'NONE', #436, 1000.000000000000100 ) ;
#772 =( NAMED_UNIT ( * ) SI_UNIT ( $, .STERADIAN. ) SOLID_ANGLE_UNIT ( ) );
#773 = LINE ( 'NONE', #924, #594 ) ;
#774 = LINE ( 'NONE', #938, #455 ) ;
#775 = CARTESIAN_POINT ( 'NONE',  ( -0.0000000000000000000, -0.7975068018844454500, 0.0000000000000000000 ) ) ;
#776 = EDGE_CURVE ( 'NONE', #1093, #319, #453, .T. ) ;
#777 = VECTOR ( 'NONE', #452, 1000.000000000000000 ) ;
#778 = ADVANCED_FACE ( 'NONE', ( #223 ), #353, .T. ) ;
#779 = STYLED_ITEM ( 'NONE', ( #916 ), #778 ) ;
#780 = ORIENTED_EDGE ( 'NONE', *, *, #371, .F. ) ;
#781 = EDGE_CURVE ( 'NONE', #444, #340, #104, .T. ) ;
#782 = EDGE_LOOP ( 'NONE', ( #1107, #829, #504, #383 ) ) ;
#783 =( LENGTH_UNIT ( ) NAMED_UNIT ( * ) SI_UNIT ( .MILLI., .METRE. ) );
#784 = ORIENTED_EDGE ( 'NONE', *, *, #489, .F. ) ;
#785 = DIRECTION ( 'NONE',  ( -1.000000000000000000, -0.0000000000000000000, -0.0000000000000000000 ) ) ;
#786 = ADVANCED_FACE ( 'NONE', ( #762 ), #872, .F. ) ;
#787 = VECTOR ( 'NONE', #122, 1000.000000000000000 ) ;
#788 = EDGE_CURVE ( 'NONE', #530, #34, #1063, .T. ) ;
#789 = FACE_OUTER_BOUND ( 'NONE', #934, .T. ) ;
#790 = SURFACE_SIDE_STYLE ('',( #894 ) ) ;
#791 = AXIS2_PLACEMENT_3D ( 'NONE', #679, #413, #1027 ) ;
#792 = ADVANCED_FACE ( 'NONE', ( #153 ), #164, .T. ) ;
#793 = CARTESIAN_POINT ( 'NONE',  ( -0.5725068018844455800, -7.302507274892284000E-017, 0.0000000000000000000 ) ) ;
#794 = SURFACE_STYLE_FILL_AREA ( #1111 ) ;
#795 =( NAMED_UNIT ( * ) SI_UNIT ( $, .STERADIAN. ) SOLID_ANGLE_UNIT ( ) );
#796 = SURFACE_STYLE_USAGE ( .BOTH. , #278 ) ;
#797 = ORIENTED_EDGE ( 'NONE', *, *, #919, .F. ) ;
#798 = DIRECTION ( 'NONE',  ( 1.000000000000000000, -0.0000000000000000000, 0.0000000000000000000 ) ) ;
#799 = ORIENTED_EDGE ( 'NONE', *, *, #415, .T. ) ;
#800 = VERTEX_POINT ( 'NONE', #516 ) ;
#801 = DIRECTION ( 'NONE',  ( 0.0000000000000000000, 0.08715574274765515400, -0.9961946980917457700 ) ) ;
#802 = CARTESIAN_POINT ( 'NONE',  ( 0.1499999999999999900, -1.250000000000000000, 0.1499999999999999900 ) ) ;
#803 = FACE_OUTER_BOUND ( 'NONE', #515, .T. ) ;
#804 = SURFACE_SIDE_STYLE ('',( #215 ) ) ;
#805 = PRESENTATION_STYLE_ASSIGNMENT (( #206 ) ) ;
#806 = DIRECTION ( 'NONE',  ( -0.0000000000000000000, 0.0000000000000000000, 1.000000000000000000 ) ) ;
#807 = EDGE_LOOP ( 'NONE', ( #586, #2, #843, #231 ) ) ;
#808 = DIRECTION ( 'NONE',  ( 0.0000000000000000000, 0.0000000000000000000, 1.000000000000000000 ) ) ;
#809 = AXIS2_PLACEMENT_3D ( 'NONE', #664, #928, #317 ) ;
#810 = ORIENTED_EDGE ( 'NONE', *, *, #192, .F. ) ;
#811 = DIRECTION ( 'NONE',  ( 0.0000000000000000000, -1.000000000000000000, 0.0000000000000000000 ) ) ;
#812 = ORIENTED_EDGE ( 'NONE', *, *, #1021, .T. ) ;
#813 =( NAMED_UNIT ( * ) PLANE_ANGLE_UNIT ( ) SI_UNIT ( $, .RADIAN. ) );
#814 = CARTESIAN_POINT ( 'NONE',  ( -0.6249999999999998900, -0.8499999999999999800, 0.6000000000000240700 ) ) ;
#815 = LINE ( 'NONE', #176, #477 ) ;
#816 = SURFACE_SIDE_STYLE ('',( #399 ) ) ;
#817 =( NAMED_UNIT ( * ) PLANE_ANGLE_UNIT ( ) SI_UNIT ( $, .RADIAN. ) );
#818 = PRESENTATION_LAYER_ASSIGNMENT (  '', '', ( #703 ) ) ;
#819 = VECTOR ( 'NONE', #507, 1000.000000000000000 ) ;
#820 = APPLICATION_CONTEXT ( 'automotive_design' ) ;
#821 = EDGE_CURVE ( 'NONE', #628, #907, #362, .T. ) ;
#822 = CARTESIAN_POINT ( 'NONE',  ( -0.1499999999999999900, 0.8499999999999993100, 0.7500000000000000000 ) ) ;
#823 = CARTESIAN_POINT ( 'NONE',  ( 0.1499999999999999900, 1.250000000000000000, 0.1499999999999999900 ) ) ;
#824 = ORIENTED_EDGE ( 'NONE', *, *, #1021, .F. ) ;
#825 = PRESENTATION_LAYER_ASSIGNMENT (  '', '', ( #884 ) ) ;
#826 = LINE ( 'NONE', #1034, #787 ) ;
#827 = DIRECTION ( 'NONE',  ( 1.000000000000000000, 0.0000000000000000000, 0.0000000000000000000 ) ) ;
#828 = CARTESIAN_POINT ( 'NONE',  ( 0.1499999999999999900, -1.131575991619908600, 0.1499999999999999700 ) ) ;
#829 = ORIENTED_EDGE ( 'NONE', *, *, #657, .T. ) ;
#830 = ORIENTED_EDGE ( 'NONE', *, *, #480, .F. ) ;
#831 = STYLED_ITEM ( 'NONE', ( #665 ), #6 ) ;
#832 = ORIENTED_EDGE ( 'NONE', *, *, #598, .T. ) ;
#833 = DIRECTION ( 'NONE',  ( 0.08682659386424430900, -0.08682659386424430900, 0.9924325091389677400 ) ) ;
#834 = AXIS2_PLACEMENT_3D ( 'NONE', #13, #532, #1061 ) ;
#835 = CARTESIAN_POINT ( 'NONE',  ( 0.1499999999999999900, -1.131575991619908600, 0.2500000000000000000 ) ) ;
#836 = EDGE_CURVE ( 'NONE', #800, #959, #279, .T. ) ;
#837 = DIRECTION ( 'NONE',  ( -0.0000000000000000000, -0.0000000000000000000, -1.000000000000000000 ) ) ;
#838 = LINE ( 'NONE', #51, #203 ) ;
#839 = FACE_OUTER_BOUND ( 'NONE', #372, .T. ) ;
#840 = SURFACE_STYLE_FILL_AREA ( #482 ) ;
#841 = PLANE ( 'NONE',  #809 ) ;
#842 = EDGE_CURVE ( 'NONE', #340, #39, #815, .T. ) ;
#843 = ORIENTED_EDGE ( 'NONE', *, *, #475, .F. ) ;
#844 = DIRECTION ( 'NONE',  ( -1.000000000000000000, 0.0000000000000000000, -0.0000000000000000000 ) ) ;
#845 = STYLED_ITEM ( 'NONE', ( #574 ), #179 ) ;
#846 = CARTESIAN_POINT ( 'NONE',  ( 0.1499999999999999900, -1.250000000000000000, 0.1499999999999999900 ) ) ;
#847 = PLANE ( 'NONE',  #506 ) ;
#848 = ORIENTED_EDGE ( 'NONE', *, *, #259, .T. ) ;
#849 = EDGE_LOOP ( 'NONE', ( #989, #14, #565, #31, #575, #674, #935, #1020, #490 ) ) ;
#850 = SURFACE_STYLE_FILL_AREA ( #414 ) ;
#851 = CIRCLE ( 'NONE', #93, 0.1500000000000000200 ) ;
#852 = CYLINDRICAL_SURFACE ( 'NONE', #50, 0.2500000000000000000 ) ;
#853 = CARTESIAN_POINT ( 'NONE',  ( -0.6250000000000001100, 0.8500000000000000900, 0.9000000000000000200 ) ) ;
#854 =( LENGTH_UNIT ( ) NAMED_UNIT ( * ) SI_UNIT ( .MILLI., .METRE. ) );
#855 = DIRECTION ( 'NONE',  ( 0.0000000000000000000, -2.288814125016084100E-016, -1.000000000000000000 ) ) ;
#856 =( NAMED_UNIT ( * ) SI_UNIT ( $, .STERADIAN. ) SOLID_ANGLE_UNIT ( ) );
#857 = DIRECTION ( 'NONE',  ( 1.000000000000000000, 0.0000000000000000000, 0.0000000000000000000 ) ) ;
#858 = ADVANCED_FACE ( 'NONE', ( #690 ), #603, .F. ) ;
#859 = DIRECTION ( 'NONE',  ( 0.08682659386424428100, 0.08682659386424430900, -0.9924325091389677400 ) ) ;
#860 = LINE ( 'NONE', #144, #1087 ) ;
#861 = DIRECTION ( 'NONE',  ( -1.000000000000000000, -0.0000000000000000000, -0.0000000000000000000 ) ) ;
#862 = ADVANCED_FACE ( 'NONE', ( #304 ), #692, .F. ) ;
#863 = CARTESIAN_POINT ( 'NONE',  ( -0.1499999999999999900, 0.8499999999999992000, 0.6000000000000000900 ) ) ;
#864 = DIRECTION ( 'NONE',  ( -1.000000000000000000, -0.0000000000000000000, -0.0000000000000000000 ) ) ;
#865 = LINE ( 'NONE', #948, #454 ) ;
#866 = AXIS2_PLACEMENT_3D ( 'NONE', #1135, #101, #186 ) ;
#867 = VECTOR ( 'NONE', #543, 1000.000000000000000 ) ;
#868 = FACE_OUTER_BOUND ( 'NONE', #99, .T. ) ;
#869 = VERTEX_POINT ( 'NONE', #418 ) ;
#870 = MECHANICAL_DESIGN_GEOMETRIC_PRESENTATION_REPRESENTATION (  '', ( #703 ), #936 ) ;
#871 = VERTEX_POINT ( 'NONE', #172 ) ;
#872 = PLANE ( 'NONE',  #398 ) ;
#873 = EDGE_CURVE ( 'NONE', #36, #733, #42, .T. ) ;
#874 = ADVANCED_FACE ( 'NONE', ( #224 ), #597, .F. ) ;
#875 = ORIENTED_EDGE ( 'NONE', *, *, #896, .T. ) ;
#876 = ORIENTED_EDGE ( 'NONE', *, *, #143, .T. ) ;
#877 = CARTESIAN_POINT ( 'NONE',  ( 0.1499999999999999900, -0.8499999999999993100, 0.7500000000000000000 ) ) ;
#878 = DIRECTION ( 'NONE',  ( -1.000000000000000000, -0.0000000000000000000, -0.0000000000000000000 ) ) ;
#879 = FILL_AREA_STYLE ('',( #10 ) ) ;
#880 = LINE ( 'NONE', #370, #557 ) ;
#881 = CARTESIAN_POINT ( 'NONE',  ( -0.1499999999999999900, -1.031956521810733800, 0.2412844257252344500 ) ) ;
#882 = DIRECTION ( 'NONE',  ( -0.0000000000000000000, -0.0000000000000000000, -1.000000000000000000 ) ) ;
#883 = VECTOR ( 'NONE', #332, 1000.000000000000000 ) ;
#884 = STYLED_ITEM ( 'NONE', ( #1019 ), #272 ) ;
#885 = LINE ( 'NONE', #1044, #1115 ) ;
#886 = CARTESIAN_POINT ( 'NONE',  ( 0.6249999999999998900, 0.8500000000000000900, 0.9000000000000000200 ) ) ;
#887 = COLOUR_RGB ( '',1.000000000000000000, 1.000000000000000000, 1.000000000000000000 ) ;
#888 = ORIENTED_EDGE ( 'NONE', *, *, #730, .T. ) ;
#889 = CARTESIAN_POINT ( 'NONE',  ( 0.1499999999999999900, -1.250000000000000000, 0.0000000000000000000 ) ) ;
#890 = ORIENTED_EDGE ( 'NONE', *, *, #1077, .F. ) ;
#891 = CARTESIAN_POINT ( 'NONE',  ( 0.0000000000000000000, 0.0000000000000000000, 0.0000000000000000000 ) ) ;
#892 = PRESENTATION_LAYER_ASSIGNMENT (  '', '', ( #831 ) ) ;
#893 = CARTESIAN_POINT ( 'NONE',  ( -0.1499999999999999900, 1.250000000000000000, 0.0000000000000000000 ) ) ;
#894 = SURFACE_STYLE_FILL_AREA ( #274 ) ;
#895 = AXIS2_PLACEMENT_3D ( 'NONE', #448, #209, #443 ) ;
#896 = EDGE_CURVE ( 'NONE', #309, #216, #591, .T. ) ;
#897 = FILL_AREA_STYLE_COLOUR ( '', #1042 ) ;
#898 = DIRECTION ( 'NONE',  ( -1.000000000000000000, -0.0000000000000000000, -0.0000000000000000000 ) ) ;
#899 = PRESENTATION_STYLE_ASSIGNMENT (( #631 ) ) ;
#900 = APPLICATION_PROTOCOL_DEFINITION ( 'draft international standard', 'automotive_design', 1998, #378 ) ;
#901 = VECTOR ( 'NONE', #290, 1000.000000000000000 ) ;
#902 = ORIENTED_EDGE ( 'NONE', *, *, #1039, .F. ) ;
#903 = DIRECTION ( 'NONE',  ( 1.000000000000000000, 0.0000000000000000000, 0.0000000000000000000 ) ) ;
#904 = ORIENTED_EDGE ( 'NONE', *, *, #978, .F. ) ;
#905 = VECTOR ( 'NONE', #401, 1000.000000000000000 ) ;
#906 = EDGE_CURVE ( 'NONE', #1033, #963, #396, .T. ) ;
#907 = VERTEX_POINT ( 'NONE', #494 ) ;
#908 = SURFACE_STYLE_FILL_AREA ( #1022 ) ;
#909 = APPLICATION_PROTOCOL_DEFINITION ( 'draft international standard', 'automotive_design', 1998, #820 ) ;
#910 = DIRECTION ( 'NONE',  ( 1.000000000000000000, -0.0000000000000000000, 0.0000000000000000000 ) ) ;
#911 = ORIENTED_EDGE ( 'NONE', *, *, #836, .T. ) ;
#912 = CARTESIAN_POINT ( 'NONE',  ( 0.0000000000000000000, 0.0000000000000000000, 0.9000000000000000200 ) ) ;
#913 = PRODUCT_RELATED_PRODUCT_CATEGORY ( 'part', '', ( #1110 ) ) ;
#914 = AXIS2_PLACEMENT_3D ( 'NONE', #1095, #923, #1032 ) ;
#915 = CARTESIAN_POINT ( 'NONE',  ( -0.1499999999999999900, -1.131575991619908200, 0.0000000000000000000 ) ) ;
#916 = PRESENTATION_STYLE_ASSIGNMENT (( #796 ) ) ;
#917 = FACE_OUTER_BOUND ( 'NONE', #194, .T. ) ;
#918 = ORIENTED_EDGE ( 'NONE', *, *, #301, .F. ) ;
#919 = EDGE_CURVE ( 'NONE', #216, #1092, #607, .T. ) ;
#920 = EDGE_LOOP ( 'NONE', ( #12, #112, #310, #110 ) ) ;
#921 = PRESENTATION_STYLE_ASSIGNMENT (( #940 ) ) ;
#922 = ORIENTED_EDGE ( 'NONE', *, *, #919, .T. ) ;
#923 = DIRECTION ( 'NONE',  ( -1.000000000000000000, -1.275531967630005200E-016, 0.0000000000000000000 ) ) ;
#924 = CARTESIAN_POINT ( 'NONE',  ( 0.1499999999999999900, -0.9994292047137611800, 0.6130733614121483000 ) ) ;
#925 = VECTOR ( 'NONE', #349, 1000.000000000000000 ) ;
#926 = PRESENTATION_STYLE_ASSIGNMENT (( #334 ) ) ;
#927 = AXIS2_PLACEMENT_3D ( 'NONE', #234, #1094, #476 ) ;
#928 = DIRECTION ( 'NONE',  ( 0.0000000000000000000, -1.000000000000000000, 0.0000000000000000000 ) ) ;
#929 = LINE ( 'NONE', #283, #24 ) ;
#930 = CARTESIAN_POINT ( 'NONE',  ( 0.6250000000000001100, -0.8499999999999999800, 0.9000000000000000200 ) ) ;
#931 = ORIENTED_EDGE ( 'NONE', *, *, #371, .T. ) ;
#932 = EDGE_LOOP ( 'NONE', ( #699, #220, #918, #403 ) ) ;
#933 =( GEOMETRIC_REPRESENTATION_CONTEXT ( 3 ) GLOBAL_UNCERTAINTY_ASSIGNED_CONTEXT ( ( #714 ) ) GLOBAL_UNIT_ASSIGNED_CONTEXT ( ( #1078, #464, #996 ) ) REPRESENTATION_CONTEXT ( 'NONE', 'WORKASPACE' ) );
#934 = EDGE_LOOP ( 'NONE', ( #190, #147, #755, #977 ) ) ;
#935 = ORIENTED_EDGE ( 'NONE', *, *, #16, .F. ) ;
#936 =( GEOMETRIC_REPRESENTATION_CONTEXT ( 3 ) GLOBAL_UNCERTAINTY_ASSIGNED_CONTEXT ( ( #280 ) ) GLOBAL_UNIT_ASSIGNED_CONTEXT ( ( #854, #258, #772 ) ) REPRESENTATION_CONTEXT ( 'NONE', 'WORKASPACE' ) );
#937 = EDGE_CURVE ( 'NONE', #769, #146, #774, .T. ) ;
#938 = CARTESIAN_POINT ( 'NONE',  ( 0.1499999999999999900, 1.131575991619908600, 0.1499999999999999700 ) ) ;
#939 = CARTESIAN_POINT ( 'NONE',  ( -0.1499999999999999900, -1.250000000000000000, 0.1499999999999999900 ) ) ;
#940 = SURFACE_STYLE_USAGE ( .BOTH. , #305 ) ;
#941 = DIRECTION ( 'NONE',  ( 0.0000000000000000000, 0.0000000000000000000, 1.000000000000000000 ) ) ;
#942 = AXIS2_PLACEMENT_3D ( 'NONE', #161, #71, #941 ) ;
#943 =( NAMED_UNIT ( * ) SI_UNIT ( $, .STERADIAN. ) SOLID_ANGLE_UNIT ( ) );
#944 = DIRECTION ( 'NONE',  ( 1.000000000000000000, 0.0000000000000000000, 0.0000000000000000000 ) ) ;
#945 = ORIENTED_EDGE ( 'NONE', *, *, #657, .F. ) ;
#946 = ORIENTED_EDGE ( 'NONE', *, *, #208, .T. ) ;
#947 = SURFACE_SIDE_STYLE ('',( #850 ) ) ;
#948 = CARTESIAN_POINT ( 'NONE',  ( 0.5725068018844455800, 7.302507274892284000E-017, 0.0000000000000000000 ) ) ;
#949 = LINE ( 'NONE', #1102, #1053 ) ;
#950 = LINE ( 'NONE', #889, #867 ) ;
#951 = MECHANICAL_DESIGN_GEOMETRIC_PRESENTATION_REPRESENTATION (  '', ( #831 ), #1013 ) ;
#952 = VECTOR ( 'NONE', #808, 1000.000000000000000 ) ;
#953 = FILL_AREA_STYLE_COLOUR ( '', #1008 ) ;
#954 = PRESENTATION_LAYER_ASSIGNMENT (  '', '', ( #779 ) ) ;
#955 = CARTESIAN_POINT ( 'NONE',  ( -0.6250000000000001100, 0.8500000000000000900, 0.6000000000000240700 ) ) ;
#956 = EDGE_CURVE ( 'NONE', #1108, #113, #826, .T. ) ;
#957 = ADVANCED_FACE ( 'NONE', ( #1098 ), #685, .F. ) ;
#958 = ORIENTED_EDGE ( 'NONE', *, *, #128, .F. ) ;
#959 = VERTEX_POINT ( 'NONE', #630 ) ;
#960 = CARTESIAN_POINT ( 'NONE',  ( -0.1499999999999999900, -1.250000000000000000, 0.1499999999999999900 ) ) ;
#961 = ORIENTED_EDGE ( 'NONE', *, *, #96, .T. ) ;
#962 = SURFACE_STYLE_FILL_AREA ( #1074 ) ;
#963 = VERTEX_POINT ( 'NONE', #20 ) ;
#964 = CARTESIAN_POINT ( 'NONE',  ( 0.1499999999999999900, 0.8499999999999992000, 0.6000000000000000900 ) ) ;
#965 = ADVANCED_FACE ( 'NONE', ( #569 ), #724, .F. ) ;
#966 = DIRECTION ( 'NONE',  ( 1.000000000000000000, -0.0000000000000000000, 0.0000000000000000000 ) ) ;
#967 = EDGE_CURVE ( 'NONE', #1057, #309, #880, .T. ) ;
#968 = LINE ( 'NONE', #321, #141 ) ;
#969 = PRESENTATION_LAYER_ASSIGNMENT (  '', '', ( #845 ) ) ;
#970 = CARTESIAN_POINT ( 'NONE',  ( 0.1499999999999999900, -0.8499999999999992000, 0.6000000000000000900 ) ) ;
#971 = VECTOR ( 'NONE', #275, 1000.000000000000100 ) ;
#972 = FILL_AREA_STYLE_COLOUR ( '', #38 ) ;
#973 = CARTESIAN_POINT ( 'NONE',  ( 0.1499999999999999900, -0.8499999999999992000, 0.6000000000000000900 ) ) ;
#974 = FACE_OUTER_BOUND ( 'NONE', #920, .T. ) ;
#975 = CLOSED_SHELL ( 'NONE', ( #701, #341, #778, #6, #100, #272, #1049, #874, #188, #180, #786 ) ) ;
#976 = ORIENTED_EDGE ( 'NONE', *, *, #312, .T. ) ;
#977 = ORIENTED_EDGE ( 'NONE', *, *, #906, .T. ) ;
#978 = EDGE_CURVE ( 'NONE', #529, #576, #451, .T. ) ;
#979 = CARTESIAN_POINT ( 'NONE',  ( -0.6250000000000001100, 0.8500000000000000900, 0.9000000000000000200 ) ) ;
#980 = UNCERTAINTY_MEASURE_WITH_UNIT (LENGTH_MEASURE( 1.000000000000000100E-005 ), #196, 'distance_accuracy_value', 'NONE');
#981 = DIRECTION ( 'NONE',  ( 0.0000000000000000000, -0.9961946980917458800, -0.08715574274765518200 ) ) ;
#982 = LINE ( 'NONE', #736, #199 ) ;
#983 = VECTOR ( 'NONE', #754, 1000.000000000000100 ) ;
#984 = DIRECTION ( 'NONE',  ( 0.08682659386424428100, 0.08682659386424430900, 0.9924325091389677400 ) ) ;
#985 = DIRECTION ( 'NONE',  ( 1.000000000000000000, 0.0000000000000000000, 0.0000000000000000000 ) ) ;
#986 = UNCERTAINTY_MEASURE_WITH_UNIT (LENGTH_MEASURE( 1.000000000000000100E-005 ), #783, 'distance_accuracy_value', 'NONE');
#987 = ORIENTED_EDGE ( 'NONE', *, *, #842, .T. ) ;
#988 = ORIENTED_EDGE ( 'NONE', *, *, #1051, .T. ) ;
#989 = ORIENTED_EDGE ( 'NONE', *, *, #183, .F. ) ;
#990 = CARTESIAN_POINT ( 'NONE',  ( 0.1499999999999999900, 0.8499999999999992000, 0.6000000000000000900 ) ) ;
#991 = ORIENTED_EDGE ( 'NONE', *, *, #730, .F. ) ;
#992 = PRODUCT_CONTEXT ( 'NONE', #820, 'mechanical' ) ;
#993 = AXIS2_PLACEMENT_3D ( 'NONE', #109, #729, #524 ) ;
#994 = DIRECTION ( 'NONE',  ( 0.0000000000000000000, 0.0000000000000000000, -1.000000000000000000 ) ) ;
#995 = COLOUR_RGB ( '',0.0000000000000000000, 0.0000000000000000000, 1.000000000000000000 ) ;
#996 =( NAMED_UNIT ( * ) SI_UNIT ( $, .STERADIAN. ) SOLID_ANGLE_UNIT ( ) );
#997 = EDGE_CURVE ( 'NONE', #121, #548, #324, .T. ) ;
#998 = FACE_OUTER_BOUND ( 'NONE', #735, .T. ) ;
#999 = VERTEX_POINT ( 'NONE', #119 ) ;
#1000 = VECTOR ( 'NONE', #81, 1000.000000000000000 ) ;
#1001 = CARTESIAN_POINT ( 'NONE',  ( -0.6249999999999998900, -0.8499999999999999800, 0.9000000000000000200 ) ) ;
#1002 = ORIENTED_EDGE ( 'NONE', *, *, #997, .T. ) ;
#1003 = VERTEX_POINT ( 'NONE', #863 ) ;
#1004 = CARTESIAN_POINT ( 'NONE',  ( 0.1499999999999999900, -0.8825273170969718500, 0.2282110643130862400 ) ) ;
#1005 = MECHANICAL_DESIGN_GEOMETRIC_PRESENTATION_REPRESENTATION (  '', ( #884 ), #1062 ) ;
#1006 = CARTESIAN_POINT ( 'NONE',  ( 0.1499999999999999900, 1.250000000000000000, 0.1499999999999999900 ) ) ;
#1007 = VECTOR ( 'NONE', #424, 1000.000000000000100 ) ;
#1008 = COLOUR_RGB ( '',1.000000000000000000, 1.000000000000000000, 1.000000000000000000 ) ;
#1009 = VECTOR ( 'NONE', #250, 1000.000000000000100 ) ;
#1010 = AXIS2_PLACEMENT_3D ( 'NONE', #683, #83, #593 ) ;
#1011 = EDGE_LOOP ( 'NONE', ( #159, #492, #1106, #318 ) ) ;
#1012 = DIRECTION ( 'NONE',  ( 0.0000000000000000000, 0.0000000000000000000, -1.000000000000000000 ) ) ;
#1013 =( GEOMETRIC_REPRESENTATION_CONTEXT ( 3 ) GLOBAL_UNCERTAINTY_ASSIGNED_CONTEXT ( ( #659 ) ) GLOBAL_UNIT_ASSIGNED_CONTEXT ( ( #345, #691, #303 ) ) REPRESENTATION_CONTEXT ( 'NONE', 'WORKASPACE' ) );
#1014 = EDGE_LOOP ( 'NONE', ( #442, #1079, #1076, #572 ) ) ;
#1015 = CARTESIAN_POINT ( 'NONE',  ( 0.1499999999999999900, 1.031956521810733800, 0.2412844257252344500 ) ) ;
#1016 = VECTOR ( 'NONE', #251, 1000.000000000000000 ) ;
#1017 = ORIENTED_EDGE ( 'NONE', *, *, #400, .T. ) ;
#1018 = MECHANICAL_DESIGN_GEOMETRIC_PRESENTATION_REPRESENTATION (  '', ( #779 ), #1070 ) ;
#1019 = PRESENTATION_STYLE_ASSIGNMENT (( #225 ) ) ;
#1020 = ORIENTED_EDGE ( 'NONE', *, *, #598, .F. ) ;
#1021 = EDGE_CURVE ( 'NONE', #999, #529, #1100, .T. ) ;
#1022 = FILL_AREA_STYLE ('',( #325 ) ) ;
#1023 = CARTESIAN_POINT ( 'NONE',  ( 0.1499999999999999900, 1.031956521810733800, 0.2412844257252344500 ) ) ;
#1024 = CARTESIAN_POINT ( 'NONE',  ( 0.1499999999999999900, 1.131575991619908200, 0.0000000000000000000 ) ) ;
#1025 = VECTOR ( 'NONE', #785, 1000.000000000000000 ) ;
#1026 = EDGE_CURVE ( 'NONE', #457, #548, #437, .T. ) ;
#1027 = DIRECTION ( 'NONE',  ( 0.0000000000000000000, 0.08715574274765518200, 0.9961946980917458800 ) ) ;
#1028 = MECHANICAL_DESIGN_GEOMETRIC_PRESENTATION_REPRESENTATION (  '', ( #845 ), #1083 ) ;
#1029 = DIRECTION ( 'NONE',  ( -1.000000000000000000, -0.0000000000000000000, -0.0000000000000000000 ) ) ;
#1030 = DIRECTION ( 'NONE',  ( -1.000000000000000000, -0.0000000000000000000, -0.0000000000000000000 ) ) ;
#1031 = VERTEX_POINT ( 'NONE', #694 ) ;
#1032 = DIRECTION ( 'NONE',  ( 1.275531967630005200E-016, -1.000000000000000000, 0.0000000000000000000 ) ) ;
#1033 = VERTEX_POINT ( 'NONE', #1050 ) ;
#1034 = CARTESIAN_POINT ( 'NONE',  ( 0.1499999999999999900, 0.8499999999999993100, 0.7500000000000000000 ) ) ;
#1035 = ORIENTED_EDGE ( 'NONE', *, *, #776, .F. ) ;
#1036 = LINE ( 'NONE', #990, #292 ) ;
#1037 =( NAMED_UNIT ( * ) PLANE_ANGLE_UNIT ( ) SI_UNIT ( $, .RADIAN. ) );
#1038 = CARTESIAN_POINT ( 'NONE',  ( -0.6250000000000001100, 0.8500000000000000900, 0.6000000000000240700 ) ) ;
#1039 = EDGE_CURVE ( 'NONE', #1092, #733, #131, .T. ) ;
#1040 = VECTOR ( 'NONE', #505, 1000.000000000000000 ) ;
#1041 = SURFACE_STYLE_USAGE ( .BOTH. , #1118 ) ;
#1042 = COLOUR_RGB ( '',1.000000000000000000, 1.000000000000000000, 1.000000000000000000 ) ;
#1043 = ORIENTED_EDGE ( 'NONE', *, *, #301, .T. ) ;
#1044 = CARTESIAN_POINT ( 'NONE',  ( 0.1499999999999999900, -1.031956521810733800, 0.2412844257252344500 ) ) ;
#1045 = VERTEX_POINT ( 'NONE', #264 ) ;
#1046 = DIRECTION ( 'NONE',  ( 1.275531967630005200E-016, -1.000000000000000000, 0.0000000000000000000 ) ) ;
#1047 = AXIS2_PLACEMENT_3D ( 'NONE', #1006, #746, #140 ) ;
#1048 = ORIENTED_EDGE ( 'NONE', *, *, #638, .T. ) ;
#1049 = ADVANCED_FACE ( 'NONE', ( #998 ), #175, .F. ) ;
#1050 = CARTESIAN_POINT ( 'NONE',  ( 0.1499999999999999900, 1.250000000000000000, 0.1499999999999999900 ) ) ;
#1051 = EDGE_CURVE ( 'NONE', #34, #137, #105, .T. ) ;
#1052 = CARTESIAN_POINT ( 'NONE',  ( 0.1499999999999999900, -1.131575991619908600, 0.1499999999999999700 ) ) ;
#1053 = VECTOR ( 'NONE', #487, 1000.000000000000000 ) ;
#1054 = DIRECTION ( 'NONE',  ( 1.000000000000000000, 0.0000000000000000000, 0.0000000000000000000 ) ) ;
#1055 = ADVANCED_FACE ( 'NONE', ( #839 ), #407, .F. ) ;
#1056 = FILL_AREA_STYLE_COLOUR ( '', #394 ) ;
#1057 = VERTEX_POINT ( 'NONE', #1112 ) ;
#1058 = ORIENTED_EDGE ( 'NONE', *, *, #956, .F. ) ;
#1059 = EDGE_LOOP ( 'NONE', ( #76, #368, #501, #904, #824, #890, #552, #97, #1035 ) ) ;
#1060 = ORIENTED_EDGE ( 'NONE', *, *, #604, .T. ) ;
#1061 = DIRECTION ( 'NONE',  ( 0.0000000000000000000, 0.0000000000000000000, -1.000000000000000000 ) ) ;
#1062 =( GEOMETRIC_REPRESENTATION_CONTEXT ( 3 ) GLOBAL_UNCERTAINTY_ASSIGNED_CONTEXT ( ( #49 ) ) GLOBAL_UNIT_ASSIGNED_CONTEXT ( ( #315, #1081, #331 ) ) REPRESENTATION_CONTEXT ( 'NONE', 'WORKASPACE' ) );
#1063 = LINE ( 'NONE', #269, #1025 ) ;
#1064 =( NAMED_UNIT ( * ) SI_UNIT ( $, .STERADIAN. ) SOLID_ANGLE_UNIT ( ) );
#1065 = DIRECTION ( 'NONE',  ( 0.0000000000000000000, 0.0000000000000000000, -1.000000000000000000 ) ) ;
#1066 = VERTEX_POINT ( 'NONE', #877 ) ;
#1067 = EDGE_LOOP ( 'NONE', ( #472, #922, #738, #513 ) ) ;
#1068 = FILL_AREA_STYLE_COLOUR ( '', #1089 ) ;
#1069 =( NAMED_UNIT ( * ) SI_UNIT ( $, .STERADIAN. ) SOLID_ANGLE_UNIT ( ) );
#1070 =( GEOMETRIC_REPRESENTATION_CONTEXT ( 3 ) GLOBAL_UNCERTAINTY_ASSIGNED_CONTEXT ( ( #980 ) ) GLOBAL_UNIT_ASSIGNED_CONTEXT ( ( #196, #707, #107 ) ) REPRESENTATION_CONTEXT ( 'NONE', 'WORKASPACE' ) );
#1071 = LINE ( 'NONE', #814, #89 ) ;
#1072 = EDGE_CURVE ( 'NONE', #733, #446, #56, .T. ) ;
#1073 = CARTESIAN_POINT ( 'NONE',  ( -0.1499999999999999900, -0.9994292047137611800, 0.6130733614121483000 ) ) ;
#1074 = FILL_AREA_STYLE ('',( #972 ) ) ;
#1075 = CARTESIAN_POINT ( 'NONE',  ( 0.1499999999999999900, 1.131575991619908600, 0.2500000000000000000 ) ) ;
#1076 = ORIENTED_EDGE ( 'NONE', *, *, #1077, .T. ) ;
#1077 = EDGE_CURVE ( 'NONE', #444, #999, #708, .T. ) ;
#1078 =( LENGTH_UNIT ( ) NAMED_UNIT ( * ) SI_UNIT ( .MILLI., .METRE. ) );
#1079 = ORIENTED_EDGE ( 'NONE', *, *, #781, .F. ) ;
#1080 = ORIENTED_EDGE ( 'NONE', *, *, #192, .T. ) ;
#1081 =( NAMED_UNIT ( * ) PLANE_ANGLE_UNIT ( ) SI_UNIT ( $, .RADIAN. ) );
#1082 = DIRECTION ( 'NONE',  ( 0.0000000000000000000, 0.0000000000000000000, -1.000000000000000000 ) ) ;
#1083 =( GEOMETRIC_REPRESENTATION_CONTEXT ( 3 ) GLOBAL_UNCERTAINTY_ASSIGNED_CONTEXT ( ( #257 ) ) GLOBAL_UNIT_ASSIGNED_CONTEXT ( ( #560, #813, #716 ) ) REPRESENTATION_CONTEXT ( 'NONE', 'WORKASPACE' ) );
#1084 = VERTEX_POINT ( 'NONE', #527 ) ;
#1085 = CARTESIAN_POINT ( 'NONE',  ( -0.0000000000000000000, 0.7975068018844455600, 0.0000000000000000000 ) ) ;
#1086 = DIRECTION ( 'NONE',  ( -1.000000000000000000, 0.0000000000000000000, -0.0000000000000000000 ) ) ;
#1087 = VECTOR ( 'NONE', #1091, 1000.000000000000000 ) ;
#1088 = LINE ( 'NONE', #540, #295 ) ;
#1089 = COLOUR_RGB ( '',1.000000000000000000, 1.000000000000000000, 1.000000000000000000 ) ;
#1090 = EDGE_CURVE ( 'NONE', #548, #1031, #1130, .T. ) ;
#1091 = DIRECTION ( 'NONE',  ( -1.000000000000000000, 0.0000000000000000000, -0.0000000000000000000 ) ) ;
#1092 = VERTEX_POINT ( 'NONE', #273 ) ;
#1093 = VERTEX_POINT ( 'NONE', #8 ) ;
#1094 = DIRECTION ( 'NONE',  ( 0.0000000000000000000, -1.000000000000000000, 0.0000000000000000000 ) ) ;
#1095 = CARTESIAN_POINT ( 'NONE',  ( 0.6249999999999998900, 0.8500000000000000900, 0.9000000000000000200 ) ) ;
#1096 = AXIS2_PLACEMENT_3D ( 'NONE', #741, #134, #640 ) ;
#1097 = DIRECTION ( 'NONE',  ( 1.000000000000000000, 0.0000000000000000000, -0.0000000000000000000 ) ) ;
#1098 = FACE_OUTER_BOUND ( 'NONE', #230, .T. ) ;
#1099 = EDGE_CURVE ( 'NONE', #871, #344, #142, .T. ) ;
#1100 = CIRCLE ( 'NONE', #58, 0.2500000000000000000 ) ;
#1101 = VECTOR ( 'NONE', #859, 1000.000000000000000 ) ;
#1102 = CARTESIAN_POINT ( 'NONE',  ( 0.1499999999999999900, -1.250000000000000000, 0.0000000000000000000 ) ) ;
#1103 = FACE_OUTER_BOUND ( 'NONE', #932, .T. ) ;
#1104 = CIRCLE ( 'NONE', #308, 0.1000000000000001600 ) ;
#1105 = STYLED_ITEM ( 'NONE', ( #306 ), #300 ) ;
#1106 = ORIENTED_EDGE ( 'NONE', *, *, #555, .T. ) ;
#1107 = ORIENTED_EDGE ( 'NONE', *, *, #429, .T. ) ;
#1108 = VERTEX_POINT ( 'NONE', #198 ) ;
#1109 = CARTESIAN_POINT ( 'NONE',  ( -0.1499999999999999900, 0.8499999999999992000, 0.6000000000000000900 ) ) ;
#1110 = PRODUCT ( 'USC', 'USC', '', ( #992 ) ) ;
#1111 = FILL_AREA_STYLE ('',( #897 ) ) ;
#1112 = CARTESIAN_POINT ( 'NONE',  ( 0.5725068018844454700, 0.7975068018844455600, 0.0000000000000000000 ) ) ;
#1113 = LINE ( 'NONE', #893, #952 ) ;
#1114 = ORIENTED_EDGE ( 'NONE', *, *, #776, .T. ) ;
#1115 = VECTOR ( 'NONE', #417, 1000.000000000000000 ) ;
#1116 = CARTESIAN_POINT ( 'NONE',  ( 0.5725068018844456900, -0.7975068018844454500, 0.0000000000000000000 ) ) ;
#1117 =( GEOMETRIC_REPRESENTATION_CONTEXT ( 3 ) GLOBAL_UNCERTAINTY_ASSIGNED_CONTEXT ( ( #57 ) ) GLOBAL_UNIT_ASSIGNED_CONTEXT ( ( #26, #547, #1069 ) ) REPRESENTATION_CONTEXT ( 'NONE', 'WORKASPACE' ) );
#1118 = SURFACE_SIDE_STYLE ('',( #441 ) ) ;
#1119 = CARTESIAN_POINT ( 'NONE',  ( 0.1499999999999999900, 1.250000000000000000, 0.1499999999999999900 ) ) ;
#1120 = STYLED_ITEM ( 'NONE', ( #805 ), #341 ) ;
#1121 = ORIENTED_EDGE ( 'NONE', *, *, #539, .T. ) ;
#1122 = CARTESIAN_POINT ( 'NONE',  ( 0.1499999999999999900, 1.131575991619908200, 0.2500000000000000000 ) ) ;
#1123 = FILL_AREA_STYLE_COLOUR ( '', #23 ) ;
#1124 = CARTESIAN_POINT ( 'NONE',  ( 0.1499999999999999900, -0.9994292047137611800, 0.6130733614121483000 ) ) ;
#1125 = AXIS2_PLACEMENT_3D ( 'NONE', #891, #806, #211 ) ;
#1126 = ADVANCED_FACE ( 'NONE', ( #634 ), #706, .F. ) ;
#1127 = STYLED_ITEM ( 'NONE', ( #25 ), #19 ) ;
#1128 = DIRECTION ( 'NONE',  ( -1.000000000000000000, -0.0000000000000000000, -0.0000000000000000000 ) ) ;
#1129 = PRESENTATION_LAYER_ASSIGNMENT (  '', '', ( #62 ) ) ;
#1130 = CIRCLE ( 'NONE', #580, 0.1000000000000001600 ) ;
#1131 = DIRECTION ( 'NONE',  ( 0.0000000000000000000, 0.0000000000000000000, 1.000000000000000000 ) ) ;
#1132 = EDGE_CURVE ( 'NONE', #576, #869, #950, .T. ) ;
#1133 = ADVANCED_FACE ( 'NONE', ( #1103 ), #595, .F. ) ;
#1134 = ORIENTED_EDGE ( 'NONE', *, *, #183, .T. ) ;
#1135 = CARTESIAN_POINT ( 'NONE',  ( 0.1499999999999999900, 0.8499999999999992000, 0.6000000000000000900 ) ) ;
ENDSEC;
END-ISO-10303-21;
