%TF.GenerationSoftware,KiCad,Pcbnew,9.0.7*%
%TF.CreationDate,2026-05-06T17:16:41-03:00*%
%TF.ProjectId,pcb_antennas,7063625f-616e-4746-956e-6e61732e6b69,rev?*%
%TF.SameCoordinates,Original*%
%TF.FileFunction,Legend,Top*%
%TF.FilePolarity,Positive*%
%FSLAX46Y46*%
G04 Gerber Fmt 4.6, Leading zero omitted, Abs format (unit mm)*
G04 Created by KiCad (PCBNEW 9.0.7) date 2026-05-06 17:16:41*
%MOMM*%
%LPD*%
G01*
G04 APERTURE LIST*
%ADD10C,0.150000*%
%ADD11C,0.254000*%
%ADD12C,0.120000*%
%ADD13C,0.100000*%
G04 APERTURE END LIST*
D10*
X134296724Y-98007574D02*
X134229380Y-98007574D01*
X134229380Y-98007574D02*
X134094693Y-97940230D01*
X134094693Y-97940230D02*
X134027350Y-97872887D01*
X134027350Y-97872887D02*
X133960006Y-97738200D01*
X133960006Y-97738200D02*
X133960006Y-97603513D01*
X133960006Y-97603513D02*
X133993678Y-97502498D01*
X133993678Y-97502498D02*
X134094693Y-97334139D01*
X134094693Y-97334139D02*
X134195708Y-97233124D01*
X134195708Y-97233124D02*
X134364067Y-97132108D01*
X134364067Y-97132108D02*
X134465082Y-97098437D01*
X134465082Y-97098437D02*
X134599769Y-97098437D01*
X134599769Y-97098437D02*
X134734456Y-97165780D01*
X134734456Y-97165780D02*
X134801800Y-97233124D01*
X134801800Y-97233124D02*
X134869143Y-97367811D01*
X134869143Y-97367811D02*
X134869143Y-97435154D01*
X135306876Y-98209604D02*
X134835472Y-98681009D01*
X135407891Y-97771872D02*
X134734456Y-98108589D01*
X134734456Y-98108589D02*
X135172189Y-98546322D01*
X134308095Y-88114819D02*
X134308095Y-87114819D01*
X134308095Y-87591009D02*
X134879523Y-87591009D01*
X134879523Y-88114819D02*
X134879523Y-87114819D01*
X135308095Y-87210057D02*
X135355714Y-87162438D01*
X135355714Y-87162438D02*
X135450952Y-87114819D01*
X135450952Y-87114819D02*
X135689047Y-87114819D01*
X135689047Y-87114819D02*
X135784285Y-87162438D01*
X135784285Y-87162438D02*
X135831904Y-87210057D01*
X135831904Y-87210057D02*
X135879523Y-87305295D01*
X135879523Y-87305295D02*
X135879523Y-87400533D01*
X135879523Y-87400533D02*
X135831904Y-87543390D01*
X135831904Y-87543390D02*
X135260476Y-88114819D01*
X135260476Y-88114819D02*
X135879523Y-88114819D01*
X154308095Y-68114819D02*
X154308095Y-67114819D01*
X154308095Y-67591009D02*
X154879523Y-67591009D01*
X154879523Y-68114819D02*
X154879523Y-67114819D01*
X155260476Y-67114819D02*
X155879523Y-67114819D01*
X155879523Y-67114819D02*
X155546190Y-67495771D01*
X155546190Y-67495771D02*
X155689047Y-67495771D01*
X155689047Y-67495771D02*
X155784285Y-67543390D01*
X155784285Y-67543390D02*
X155831904Y-67591009D01*
X155831904Y-67591009D02*
X155879523Y-67686247D01*
X155879523Y-67686247D02*
X155879523Y-67924342D01*
X155879523Y-67924342D02*
X155831904Y-68019580D01*
X155831904Y-68019580D02*
X155784285Y-68067200D01*
X155784285Y-68067200D02*
X155689047Y-68114819D01*
X155689047Y-68114819D02*
X155403333Y-68114819D01*
X155403333Y-68114819D02*
X155308095Y-68067200D01*
X155308095Y-68067200D02*
X155260476Y-68019580D01*
X154308095Y-108114819D02*
X154308095Y-107114819D01*
X154308095Y-107591009D02*
X154879523Y-107591009D01*
X154879523Y-108114819D02*
X154879523Y-107114819D01*
X155784285Y-107448152D02*
X155784285Y-108114819D01*
X155546190Y-107067200D02*
X155308095Y-107781485D01*
X155308095Y-107781485D02*
X155927142Y-107781485D01*
X194308095Y-128214819D02*
X194308095Y-127214819D01*
X194308095Y-127691009D02*
X194879523Y-127691009D01*
X194879523Y-128214819D02*
X194879523Y-127214819D01*
X195831904Y-127214819D02*
X195355714Y-127214819D01*
X195355714Y-127214819D02*
X195308095Y-127691009D01*
X195308095Y-127691009D02*
X195355714Y-127643390D01*
X195355714Y-127643390D02*
X195450952Y-127595771D01*
X195450952Y-127595771D02*
X195689047Y-127595771D01*
X195689047Y-127595771D02*
X195784285Y-127643390D01*
X195784285Y-127643390D02*
X195831904Y-127691009D01*
X195831904Y-127691009D02*
X195879523Y-127786247D01*
X195879523Y-127786247D02*
X195879523Y-128024342D01*
X195879523Y-128024342D02*
X195831904Y-128119580D01*
X195831904Y-128119580D02*
X195784285Y-128167200D01*
X195784285Y-128167200D02*
X195689047Y-128214819D01*
X195689047Y-128214819D02*
X195450952Y-128214819D01*
X195450952Y-128214819D02*
X195355714Y-128167200D01*
X195355714Y-128167200D02*
X195308095Y-128119580D01*
X194308095Y-48214819D02*
X194308095Y-47214819D01*
X194308095Y-47691009D02*
X194879523Y-47691009D01*
X194879523Y-48214819D02*
X194879523Y-47214819D01*
X195784285Y-47214819D02*
X195593809Y-47214819D01*
X195593809Y-47214819D02*
X195498571Y-47262438D01*
X195498571Y-47262438D02*
X195450952Y-47310057D01*
X195450952Y-47310057D02*
X195355714Y-47452914D01*
X195355714Y-47452914D02*
X195308095Y-47643390D01*
X195308095Y-47643390D02*
X195308095Y-48024342D01*
X195308095Y-48024342D02*
X195355714Y-48119580D01*
X195355714Y-48119580D02*
X195403333Y-48167200D01*
X195403333Y-48167200D02*
X195498571Y-48214819D01*
X195498571Y-48214819D02*
X195689047Y-48214819D01*
X195689047Y-48214819D02*
X195784285Y-48167200D01*
X195784285Y-48167200D02*
X195831904Y-48119580D01*
X195831904Y-48119580D02*
X195879523Y-48024342D01*
X195879523Y-48024342D02*
X195879523Y-47786247D01*
X195879523Y-47786247D02*
X195831904Y-47691009D01*
X195831904Y-47691009D02*
X195784285Y-47643390D01*
X195784285Y-47643390D02*
X195689047Y-47595771D01*
X195689047Y-47595771D02*
X195498571Y-47595771D01*
X195498571Y-47595771D02*
X195403333Y-47643390D01*
X195403333Y-47643390D02*
X195355714Y-47691009D01*
X195355714Y-47691009D02*
X195308095Y-47786247D01*
X114308095Y-48214819D02*
X114308095Y-47214819D01*
X114308095Y-47691009D02*
X114879523Y-47691009D01*
X114879523Y-48214819D02*
X114879523Y-47214819D01*
X115260476Y-47214819D02*
X115927142Y-47214819D01*
X115927142Y-47214819D02*
X115498571Y-48214819D01*
X114308095Y-128214819D02*
X114308095Y-127214819D01*
X114308095Y-127691009D02*
X114879523Y-127691009D01*
X114879523Y-128214819D02*
X114879523Y-127214819D01*
X115498571Y-127643390D02*
X115403333Y-127595771D01*
X115403333Y-127595771D02*
X115355714Y-127548152D01*
X115355714Y-127548152D02*
X115308095Y-127452914D01*
X115308095Y-127452914D02*
X115308095Y-127405295D01*
X115308095Y-127405295D02*
X115355714Y-127310057D01*
X115355714Y-127310057D02*
X115403333Y-127262438D01*
X115403333Y-127262438D02*
X115498571Y-127214819D01*
X115498571Y-127214819D02*
X115689047Y-127214819D01*
X115689047Y-127214819D02*
X115784285Y-127262438D01*
X115784285Y-127262438D02*
X115831904Y-127310057D01*
X115831904Y-127310057D02*
X115879523Y-127405295D01*
X115879523Y-127405295D02*
X115879523Y-127452914D01*
X115879523Y-127452914D02*
X115831904Y-127548152D01*
X115831904Y-127548152D02*
X115784285Y-127595771D01*
X115784285Y-127595771D02*
X115689047Y-127643390D01*
X115689047Y-127643390D02*
X115498571Y-127643390D01*
X115498571Y-127643390D02*
X115403333Y-127691009D01*
X115403333Y-127691009D02*
X115355714Y-127738628D01*
X115355714Y-127738628D02*
X115308095Y-127833866D01*
X115308095Y-127833866D02*
X115308095Y-128024342D01*
X115308095Y-128024342D02*
X115355714Y-128119580D01*
X115355714Y-128119580D02*
X115403333Y-128167200D01*
X115403333Y-128167200D02*
X115498571Y-128214819D01*
X115498571Y-128214819D02*
X115689047Y-128214819D01*
X115689047Y-128214819D02*
X115784285Y-128167200D01*
X115784285Y-128167200D02*
X115831904Y-128119580D01*
X115831904Y-128119580D02*
X115879523Y-128024342D01*
X115879523Y-128024342D02*
X115879523Y-127833866D01*
X115879523Y-127833866D02*
X115831904Y-127738628D01*
X115831904Y-127738628D02*
X115784285Y-127691009D01*
X115784285Y-127691009D02*
X115689047Y-127643390D01*
D11*
X150322381Y-90994318D02*
X151048095Y-90994318D01*
X150685238Y-92264318D02*
X150685238Y-90994318D01*
X151350476Y-90994318D02*
X152136667Y-90994318D01*
X152136667Y-90994318D02*
X151713333Y-91478127D01*
X151713333Y-91478127D02*
X151894762Y-91478127D01*
X151894762Y-91478127D02*
X152015714Y-91538603D01*
X152015714Y-91538603D02*
X152076190Y-91599080D01*
X152076190Y-91599080D02*
X152136667Y-91720032D01*
X152136667Y-91720032D02*
X152136667Y-92022413D01*
X152136667Y-92022413D02*
X152076190Y-92143365D01*
X152076190Y-92143365D02*
X152015714Y-92203842D01*
X152015714Y-92203842D02*
X151894762Y-92264318D01*
X151894762Y-92264318D02*
X151531905Y-92264318D01*
X151531905Y-92264318D02*
X151410952Y-92203842D01*
X151410952Y-92203842D02*
X151350476Y-92143365D01*
D10*
X173535248Y-96220949D02*
X173535248Y-96288293D01*
X173535248Y-96288293D02*
X173467904Y-96422980D01*
X173467904Y-96422980D02*
X173400561Y-96490323D01*
X173400561Y-96490323D02*
X173265874Y-96557667D01*
X173265874Y-96557667D02*
X173131187Y-96557667D01*
X173131187Y-96557667D02*
X173030172Y-96523995D01*
X173030172Y-96523995D02*
X172861813Y-96422980D01*
X172861813Y-96422980D02*
X172760798Y-96321965D01*
X172760798Y-96321965D02*
X172659782Y-96153606D01*
X172659782Y-96153606D02*
X172626111Y-96052591D01*
X172626111Y-96052591D02*
X172626111Y-95917904D01*
X172626111Y-95917904D02*
X172693454Y-95783217D01*
X172693454Y-95783217D02*
X172760798Y-95715873D01*
X172760798Y-95715873D02*
X172895485Y-95648530D01*
X172895485Y-95648530D02*
X172962828Y-95648530D01*
X173131187Y-95345484D02*
X173568920Y-94907751D01*
X173568920Y-94907751D02*
X173602591Y-95412827D01*
X173602591Y-95412827D02*
X173703607Y-95311812D01*
X173703607Y-95311812D02*
X173804622Y-95278140D01*
X173804622Y-95278140D02*
X173871965Y-95278140D01*
X173871965Y-95278140D02*
X173972981Y-95311812D01*
X173972981Y-95311812D02*
X174141339Y-95480171D01*
X174141339Y-95480171D02*
X174175011Y-95581186D01*
X174175011Y-95581186D02*
X174175011Y-95648530D01*
X174175011Y-95648530D02*
X174141339Y-95749545D01*
X174141339Y-95749545D02*
X173939309Y-95951575D01*
X173939309Y-95951575D02*
X173838294Y-95985247D01*
X173838294Y-95985247D02*
X173770950Y-95985247D01*
X174308095Y-88114819D02*
X174308095Y-87114819D01*
X174308095Y-87591009D02*
X174879523Y-87591009D01*
X174879523Y-88114819D02*
X174879523Y-87114819D01*
X175879523Y-88114819D02*
X175308095Y-88114819D01*
X175593809Y-88114819D02*
X175593809Y-87114819D01*
X175593809Y-87114819D02*
X175498571Y-87257676D01*
X175498571Y-87257676D02*
X175403333Y-87352914D01*
X175403333Y-87352914D02*
X175308095Y-87400533D01*
D12*
%TO.C,C4*%
X135422802Y-97324051D02*
X135215949Y-97117198D01*
X136144051Y-96602802D02*
X135937198Y-96395949D01*
D13*
%TO.C,T3*%
X155540000Y-89760000D02*
X155540000Y-89760000D01*
X155540000Y-89860000D02*
X155540000Y-89860000D01*
X155540000Y-89760000D02*
G75*
G02*
X155540000Y-89860000I0J-50000D01*
G01*
X155540000Y-89860000D02*
G75*
G02*
X155540000Y-89760000I0J50000D01*
G01*
D12*
%TO.C,C3*%
X173945949Y-96602802D02*
X174152802Y-96395949D01*
X174667198Y-97324051D02*
X174874051Y-97117198D01*
%TD*%
M02*
