%TF.GenerationSoftware,KiCad,Pcbnew,9.0.7*%
%TF.CreationDate,2026-05-06T17:16:41-03:00*%
%TF.ProjectId,pcb_antennas,7063625f-616e-4746-956e-6e61732e6b69,rev?*%
%TF.SameCoordinates,Original*%
%TF.FileFunction,Copper,L3,Inr*%
%TF.FilePolarity,Positive*%
%FSLAX46Y46*%
G04 Gerber Fmt 4.6, Leading zero omitted, Abs format (unit mm)*
G04 Created by KiCad (PCBNEW 9.0.7) date 2026-05-06 17:16:41*
%MOMM*%
%LPD*%
G01*
G04 APERTURE LIST*
%TA.AperFunction,ComponentPad*%
%ADD10C,3.600000*%
%TD*%
%TA.AperFunction,ComponentPad*%
%ADD11C,1.508000*%
%TD*%
%TA.AperFunction,ComponentPad*%
%ADD12C,1.920000*%
%TD*%
%TA.AperFunction,ViaPad*%
%ADD13C,0.700000*%
%TD*%
G04 APERTURE END LIST*
D10*
%TO.N,/Sec22_75ohms*%
%TO.C,H2*%
X135070000Y-91410000D03*
%TD*%
%TO.N,/SeAc21_75ohms*%
%TO.C,H3*%
X155070000Y-71410000D03*
%TD*%
%TO.N,/SecA22_75ohms*%
%TO.C,H4*%
X155070000Y-111410000D03*
%TD*%
%TO.N,N/C*%
%TO.C,H5*%
X195070000Y-131510000D03*
%TD*%
%TO.N,N/C*%
%TO.C,H6*%
X195070000Y-51510000D03*
%TD*%
%TO.N,N/C*%
%TO.C,H7*%
X115070000Y-51510000D03*
%TD*%
%TO.N,N/C*%
%TO.C,H8*%
X115070000Y-131510000D03*
%TD*%
%TO.N,/Sec12_75ohms*%
%TO.C,H1*%
X175070000Y-91410000D03*
%TD*%
D11*
%TO.N,/SMA_433*%
%TO.C,433MHz*%
X145070000Y-81360000D03*
D12*
%TO.N,GND*%
X147470000Y-78960000D03*
X147470000Y-83760000D03*
X142670000Y-83760000D03*
X142670000Y-78960000D03*
%TD*%
D11*
%TO.N,/SMA_145*%
%TO.C,145MHz*%
X171250000Y-105280000D03*
D12*
%TO.N,GND*%
X168850000Y-102880000D03*
X173650000Y-102880000D03*
X173650000Y-107680000D03*
X168850000Y-107680000D03*
%TD*%
D13*
%TO.N,GND*%
X171080000Y-90610000D03*
X171030000Y-87420000D03*
X153370000Y-88560000D03*
X156280000Y-88580000D03*
%TD*%
%TA.AperFunction,Conductor*%
%TO.N,GND*%
G36*
X143876061Y-46811097D02*
G01*
X143994317Y-46822744D01*
X144018145Y-46827483D01*
X144126005Y-46860202D01*
X144148453Y-46869501D01*
X144232113Y-46914218D01*
X144247849Y-46922629D01*
X144268059Y-46936133D01*
X144355179Y-47007630D01*
X144372369Y-47024820D01*
X144443866Y-47111940D01*
X144457370Y-47132150D01*
X144510495Y-47231538D01*
X144519798Y-47253997D01*
X144552514Y-47361848D01*
X144557256Y-47385688D01*
X144568903Y-47503937D01*
X144569500Y-47516092D01*
X144569500Y-48231620D01*
X144604116Y-48472386D01*
X144604118Y-48472396D01*
X144672647Y-48705781D01*
X144773693Y-48927044D01*
X144773696Y-48927049D01*
X144905201Y-49131674D01*
X145064492Y-49315507D01*
X145248325Y-49474798D01*
X145432404Y-49593099D01*
X145452955Y-49606306D01*
X145674218Y-49707353D01*
X145907609Y-49775883D01*
X146148378Y-49810500D01*
X146148381Y-49810500D01*
X163991619Y-49810500D01*
X163991622Y-49810500D01*
X164232391Y-49775883D01*
X164465782Y-49707353D01*
X164687045Y-49606306D01*
X164891675Y-49474798D01*
X165075507Y-49315507D01*
X165234798Y-49131675D01*
X165366306Y-48927045D01*
X165467353Y-48705782D01*
X165535883Y-48472391D01*
X165570500Y-48231622D01*
X165570500Y-48110000D01*
X165570500Y-48044108D01*
X165570500Y-47516092D01*
X165571097Y-47503938D01*
X165571097Y-47503937D01*
X165582744Y-47385678D01*
X165587483Y-47361856D01*
X165620203Y-47253990D01*
X165629499Y-47231549D01*
X165682632Y-47132144D01*
X165696133Y-47111940D01*
X165767635Y-47024814D01*
X165784814Y-47007635D01*
X165871942Y-46936131D01*
X165892144Y-46922632D01*
X165991549Y-46869499D01*
X166013990Y-46860203D01*
X166121856Y-46827483D01*
X166145682Y-46822744D01*
X166245730Y-46812890D01*
X166263940Y-46811097D01*
X166276093Y-46810500D01*
X166335892Y-46810500D01*
X198804108Y-46810500D01*
X198863907Y-46810500D01*
X198876061Y-46811097D01*
X198994317Y-46822744D01*
X199018145Y-46827483D01*
X199126005Y-46860202D01*
X199148453Y-46869501D01*
X199232113Y-46914218D01*
X199247849Y-46922629D01*
X199268059Y-46936133D01*
X199355179Y-47007630D01*
X199372369Y-47024820D01*
X199443866Y-47111940D01*
X199457370Y-47132150D01*
X199510495Y-47231538D01*
X199519798Y-47253997D01*
X199552514Y-47361848D01*
X199557256Y-47385688D01*
X199568903Y-47503937D01*
X199569500Y-47516092D01*
X199569500Y-135303907D01*
X199568903Y-135316061D01*
X199568903Y-135316062D01*
X199557256Y-135434311D01*
X199552514Y-135458151D01*
X199519798Y-135566002D01*
X199510495Y-135588461D01*
X199457370Y-135687849D01*
X199443866Y-135708059D01*
X199372369Y-135795179D01*
X199355179Y-135812369D01*
X199268059Y-135883866D01*
X199247849Y-135897370D01*
X199148461Y-135950495D01*
X199126002Y-135959798D01*
X199018151Y-135992514D01*
X198994311Y-135997256D01*
X198907215Y-136005834D01*
X198876060Y-136008903D01*
X198863907Y-136009500D01*
X166276093Y-136009500D01*
X166263939Y-136008903D01*
X166213081Y-136003893D01*
X166145688Y-135997256D01*
X166121848Y-135992514D01*
X166013997Y-135959798D01*
X165991541Y-135950496D01*
X165892150Y-135897370D01*
X165871940Y-135883866D01*
X165784820Y-135812369D01*
X165767630Y-135795179D01*
X165696133Y-135708059D01*
X165682629Y-135687849D01*
X165629501Y-135588453D01*
X165620201Y-135566002D01*
X165587483Y-135458145D01*
X165582744Y-135434317D01*
X165571097Y-135316061D01*
X165570500Y-135303907D01*
X165570500Y-134588381D01*
X165570500Y-134588378D01*
X165535883Y-134347609D01*
X165467353Y-134114218D01*
X165366306Y-133892955D01*
X165234798Y-133688325D01*
X165075507Y-133504492D01*
X164891674Y-133345201D01*
X164687049Y-133213696D01*
X164687044Y-133213693D01*
X164566828Y-133158792D01*
X164465782Y-133112647D01*
X164375821Y-133086232D01*
X164232396Y-133044118D01*
X164232386Y-133044116D01*
X164113365Y-133027003D01*
X163991622Y-133009500D01*
X163935892Y-133009500D01*
X146335892Y-133009500D01*
X146270000Y-133009500D01*
X146148378Y-133009500D01*
X146087506Y-133018251D01*
X145907613Y-133044116D01*
X145907603Y-133044118D01*
X145674218Y-133112647D01*
X145452955Y-133213693D01*
X145452950Y-133213696D01*
X145248325Y-133345201D01*
X145064492Y-133504492D01*
X144905201Y-133688325D01*
X144773696Y-133892950D01*
X144773693Y-133892955D01*
X144672647Y-134114218D01*
X144604118Y-134347603D01*
X144604116Y-134347613D01*
X144569500Y-134588379D01*
X144569500Y-135303907D01*
X144568903Y-135316061D01*
X144568903Y-135316062D01*
X144557256Y-135434311D01*
X144552514Y-135458151D01*
X144519798Y-135566002D01*
X144510495Y-135588461D01*
X144457370Y-135687849D01*
X144443866Y-135708059D01*
X144372369Y-135795179D01*
X144355179Y-135812369D01*
X144268059Y-135883866D01*
X144247849Y-135897370D01*
X144148461Y-135950495D01*
X144126002Y-135959798D01*
X144018151Y-135992514D01*
X143994311Y-135997256D01*
X143907215Y-136005834D01*
X143876060Y-136008903D01*
X143863907Y-136009500D01*
X111276093Y-136009500D01*
X111263939Y-136008903D01*
X111213081Y-136003893D01*
X111145688Y-135997256D01*
X111121848Y-135992514D01*
X111013997Y-135959798D01*
X110991541Y-135950496D01*
X110892150Y-135897370D01*
X110871940Y-135883866D01*
X110784820Y-135812369D01*
X110767630Y-135795179D01*
X110696133Y-135708059D01*
X110682629Y-135687849D01*
X110629501Y-135588453D01*
X110620201Y-135566002D01*
X110587483Y-135458145D01*
X110582744Y-135434317D01*
X110571097Y-135316061D01*
X110570500Y-135303907D01*
X110570500Y-131359223D01*
X112769500Y-131359223D01*
X112769500Y-131660776D01*
X112769501Y-131660793D01*
X112808861Y-131959766D01*
X112886913Y-132251060D01*
X113002314Y-132529661D01*
X113002318Y-132529671D01*
X113153099Y-132790831D01*
X113336679Y-133030078D01*
X113336685Y-133030085D01*
X113549914Y-133243314D01*
X113549921Y-133243320D01*
X113789168Y-133426900D01*
X114050328Y-133577681D01*
X114050329Y-133577681D01*
X114050332Y-133577683D01*
X114236072Y-133654619D01*
X114328939Y-133693086D01*
X114328940Y-133693086D01*
X114328942Y-133693087D01*
X114620232Y-133771138D01*
X114919217Y-133810500D01*
X114919224Y-133810500D01*
X115220776Y-133810500D01*
X115220783Y-133810500D01*
X115519768Y-133771138D01*
X115811058Y-133693087D01*
X116089668Y-133577683D01*
X116350832Y-133426900D01*
X116590080Y-133243319D01*
X116803319Y-133030080D01*
X116986900Y-132790832D01*
X117137683Y-132529668D01*
X117253087Y-132251058D01*
X117331138Y-131959768D01*
X117370500Y-131660783D01*
X117370500Y-131359223D01*
X192769500Y-131359223D01*
X192769500Y-131660776D01*
X192769501Y-131660793D01*
X192808861Y-131959766D01*
X192886913Y-132251060D01*
X193002314Y-132529661D01*
X193002318Y-132529671D01*
X193153099Y-132790831D01*
X193336679Y-133030078D01*
X193336685Y-133030085D01*
X193549914Y-133243314D01*
X193549921Y-133243320D01*
X193789168Y-133426900D01*
X194050328Y-133577681D01*
X194050329Y-133577681D01*
X194050332Y-133577683D01*
X194236072Y-133654619D01*
X194328939Y-133693086D01*
X194328940Y-133693086D01*
X194328942Y-133693087D01*
X194620232Y-133771138D01*
X194919217Y-133810500D01*
X194919224Y-133810500D01*
X195220776Y-133810500D01*
X195220783Y-133810500D01*
X195519768Y-133771138D01*
X195811058Y-133693087D01*
X196089668Y-133577683D01*
X196350832Y-133426900D01*
X196590080Y-133243319D01*
X196803319Y-133030080D01*
X196986900Y-132790832D01*
X197137683Y-132529668D01*
X197253087Y-132251058D01*
X197331138Y-131959768D01*
X197370500Y-131660783D01*
X197370500Y-131359217D01*
X197331138Y-131060232D01*
X197253087Y-130768942D01*
X197137683Y-130490332D01*
X196986900Y-130229168D01*
X196803319Y-129989920D01*
X196803314Y-129989914D01*
X196590085Y-129776685D01*
X196590078Y-129776679D01*
X196350831Y-129593099D01*
X196089671Y-129442318D01*
X196089661Y-129442314D01*
X195811060Y-129326913D01*
X195519766Y-129248861D01*
X195220793Y-129209501D01*
X195220788Y-129209500D01*
X195220783Y-129209500D01*
X194919217Y-129209500D01*
X194919211Y-129209500D01*
X194919206Y-129209501D01*
X194620233Y-129248861D01*
X194328939Y-129326913D01*
X194050338Y-129442314D01*
X194050328Y-129442318D01*
X193789168Y-129593099D01*
X193549921Y-129776679D01*
X193549914Y-129776685D01*
X193336685Y-129989914D01*
X193336679Y-129989921D01*
X193153099Y-130229168D01*
X193002318Y-130490328D01*
X193002314Y-130490338D01*
X192886913Y-130768939D01*
X192808861Y-131060233D01*
X192769501Y-131359206D01*
X192769500Y-131359223D01*
X117370500Y-131359223D01*
X117370500Y-131359217D01*
X117331138Y-131060232D01*
X117253087Y-130768942D01*
X117137683Y-130490332D01*
X116986900Y-130229168D01*
X116803319Y-129989920D01*
X116803314Y-129989914D01*
X116590085Y-129776685D01*
X116590078Y-129776679D01*
X116350831Y-129593099D01*
X116089671Y-129442318D01*
X116089661Y-129442314D01*
X115811060Y-129326913D01*
X115519766Y-129248861D01*
X115220793Y-129209501D01*
X115220788Y-129209500D01*
X115220783Y-129209500D01*
X114919217Y-129209500D01*
X114919211Y-129209500D01*
X114919206Y-129209501D01*
X114620233Y-129248861D01*
X114328939Y-129326913D01*
X114050338Y-129442314D01*
X114050328Y-129442318D01*
X113789168Y-129593099D01*
X113549921Y-129776679D01*
X113549914Y-129776685D01*
X113336685Y-129989914D01*
X113336679Y-129989921D01*
X113153099Y-130229168D01*
X113002318Y-130490328D01*
X113002314Y-130490338D01*
X112886913Y-130768939D01*
X112808861Y-131060233D01*
X112769501Y-131359206D01*
X112769500Y-131359223D01*
X110570500Y-131359223D01*
X110570500Y-111259223D01*
X152769500Y-111259223D01*
X152769500Y-111560776D01*
X152769501Y-111560793D01*
X152808861Y-111859766D01*
X152886913Y-112151060D01*
X153002314Y-112429661D01*
X153002318Y-112429671D01*
X153153099Y-112690831D01*
X153336679Y-112930078D01*
X153336685Y-112930085D01*
X153549914Y-113143314D01*
X153549921Y-113143320D01*
X153789168Y-113326900D01*
X154050328Y-113477681D01*
X154050329Y-113477681D01*
X154050332Y-113477683D01*
X154236072Y-113554619D01*
X154328939Y-113593086D01*
X154328940Y-113593086D01*
X154328942Y-113593087D01*
X154620232Y-113671138D01*
X154919217Y-113710500D01*
X154919224Y-113710500D01*
X155220776Y-113710500D01*
X155220783Y-113710500D01*
X155519768Y-113671138D01*
X155811058Y-113593087D01*
X156089668Y-113477683D01*
X156350832Y-113326900D01*
X156590080Y-113143319D01*
X156803319Y-112930080D01*
X156986900Y-112690832D01*
X157137683Y-112429668D01*
X157253087Y-112151058D01*
X157331138Y-111859768D01*
X157370500Y-111560783D01*
X157370500Y-111259217D01*
X157331138Y-110960232D01*
X157253087Y-110668942D01*
X157137683Y-110390332D01*
X156986900Y-110129168D01*
X156803319Y-109889920D01*
X156803314Y-109889914D01*
X156590085Y-109676685D01*
X156590078Y-109676679D01*
X156350831Y-109493099D01*
X156089671Y-109342318D01*
X156089661Y-109342314D01*
X155811060Y-109226913D01*
X155519766Y-109148861D01*
X155220793Y-109109501D01*
X155220788Y-109109500D01*
X155220783Y-109109500D01*
X154919217Y-109109500D01*
X154919211Y-109109500D01*
X154919206Y-109109501D01*
X154620233Y-109148861D01*
X154328939Y-109226913D01*
X154050338Y-109342314D01*
X154050328Y-109342318D01*
X153789168Y-109493099D01*
X153549921Y-109676679D01*
X153549914Y-109676685D01*
X153336685Y-109889914D01*
X153336679Y-109889921D01*
X153153099Y-110129168D01*
X153002318Y-110390328D01*
X153002314Y-110390338D01*
X152886913Y-110668939D01*
X152808861Y-110960233D01*
X152769501Y-111259206D01*
X152769500Y-111259223D01*
X110570500Y-111259223D01*
X110570500Y-107565095D01*
X167390000Y-107565095D01*
X167390000Y-107794904D01*
X167425950Y-108021884D01*
X167496966Y-108240450D01*
X167601298Y-108445210D01*
X167655975Y-108520468D01*
X167655977Y-108520469D01*
X168256611Y-107919834D01*
X168282839Y-107983154D01*
X168352879Y-108087976D01*
X168442024Y-108177121D01*
X168546846Y-108247161D01*
X168610164Y-108273387D01*
X168009529Y-108874021D01*
X168084792Y-108928703D01*
X168289549Y-109033033D01*
X168508115Y-109104049D01*
X168735096Y-109140000D01*
X168964904Y-109140000D01*
X169191884Y-109104049D01*
X169410450Y-109033033D01*
X169615206Y-108928704D01*
X169690468Y-108874021D01*
X169690469Y-108874021D01*
X169089835Y-108273388D01*
X169153154Y-108247161D01*
X169257976Y-108177121D01*
X169347121Y-108087976D01*
X169417161Y-107983154D01*
X169443388Y-107919835D01*
X170044021Y-108520469D01*
X170044021Y-108520468D01*
X170098704Y-108445206D01*
X170203033Y-108240450D01*
X170274049Y-108021884D01*
X170310000Y-107794904D01*
X170310000Y-107565095D01*
X172190000Y-107565095D01*
X172190000Y-107794904D01*
X172225950Y-108021884D01*
X172296966Y-108240450D01*
X172401298Y-108445210D01*
X172455975Y-108520468D01*
X172455977Y-108520469D01*
X173056611Y-107919834D01*
X173082839Y-107983154D01*
X173152879Y-108087976D01*
X173242024Y-108177121D01*
X173346846Y-108247161D01*
X173410164Y-108273387D01*
X172809529Y-108874021D01*
X172884792Y-108928703D01*
X173089549Y-109033033D01*
X173308115Y-109104049D01*
X173535096Y-109140000D01*
X173764904Y-109140000D01*
X173991884Y-109104049D01*
X174210450Y-109033033D01*
X174415206Y-108928704D01*
X174490468Y-108874021D01*
X174490469Y-108874021D01*
X173889835Y-108273388D01*
X173953154Y-108247161D01*
X174057976Y-108177121D01*
X174147121Y-108087976D01*
X174217161Y-107983154D01*
X174243388Y-107919835D01*
X174844021Y-108520469D01*
X174844021Y-108520468D01*
X174898704Y-108445206D01*
X175003033Y-108240450D01*
X175074049Y-108021884D01*
X175110000Y-107794904D01*
X175110000Y-107565095D01*
X175074049Y-107338115D01*
X175003033Y-107119549D01*
X174898703Y-106914792D01*
X174844021Y-106839530D01*
X174844021Y-106839529D01*
X174243387Y-107440163D01*
X174217161Y-107376846D01*
X174147121Y-107272024D01*
X174057976Y-107182879D01*
X173953154Y-107112839D01*
X173889833Y-107086611D01*
X174490469Y-106485977D01*
X174490468Y-106485975D01*
X174415210Y-106431298D01*
X174210450Y-106326966D01*
X173991884Y-106255950D01*
X173764904Y-106220000D01*
X173535096Y-106220000D01*
X173308115Y-106255950D01*
X173089549Y-106326966D01*
X172884796Y-106431294D01*
X172809530Y-106485977D01*
X172809530Y-106485978D01*
X173410164Y-107086611D01*
X173346846Y-107112839D01*
X173242024Y-107182879D01*
X173152879Y-107272024D01*
X173082839Y-107376846D01*
X173056611Y-107440164D01*
X172455978Y-106839530D01*
X172455977Y-106839530D01*
X172401294Y-106914796D01*
X172296966Y-107119549D01*
X172225950Y-107338115D01*
X172190000Y-107565095D01*
X170310000Y-107565095D01*
X170274049Y-107338115D01*
X170203033Y-107119549D01*
X170098703Y-106914792D01*
X170044021Y-106839530D01*
X170044021Y-106839529D01*
X169443387Y-107440163D01*
X169417161Y-107376846D01*
X169347121Y-107272024D01*
X169257976Y-107182879D01*
X169153154Y-107112839D01*
X169089833Y-107086611D01*
X169690469Y-106485977D01*
X169690468Y-106485975D01*
X169615210Y-106431298D01*
X169410450Y-106326966D01*
X169191884Y-106255950D01*
X168964904Y-106220000D01*
X168735096Y-106220000D01*
X168508115Y-106255950D01*
X168289549Y-106326966D01*
X168084796Y-106431294D01*
X168009530Y-106485977D01*
X168009530Y-106485978D01*
X168610164Y-107086611D01*
X168546846Y-107112839D01*
X168442024Y-107182879D01*
X168352879Y-107272024D01*
X168282839Y-107376846D01*
X168256611Y-107440164D01*
X167655978Y-106839530D01*
X167655977Y-106839530D01*
X167601294Y-106914796D01*
X167496966Y-107119549D01*
X167425950Y-107338115D01*
X167390000Y-107565095D01*
X110570500Y-107565095D01*
X110570500Y-105181263D01*
X169995500Y-105181263D01*
X169995500Y-105378736D01*
X170026389Y-105573763D01*
X170087408Y-105761558D01*
X170087409Y-105761561D01*
X170177056Y-105937501D01*
X170177058Y-105937504D01*
X170293115Y-106097246D01*
X170432753Y-106236884D01*
X170556743Y-106326966D01*
X170592499Y-106352944D01*
X170768439Y-106442591D01*
X170893637Y-106483270D01*
X170956236Y-106503610D01*
X171151264Y-106534500D01*
X171151269Y-106534500D01*
X171348736Y-106534500D01*
X171543763Y-106503610D01*
X171731561Y-106442591D01*
X171907501Y-106352944D01*
X171943257Y-106326966D01*
X172067246Y-106236884D01*
X172067248Y-106236881D01*
X172067252Y-106236879D01*
X172206879Y-106097252D01*
X172206881Y-106097248D01*
X172206884Y-106097246D01*
X172257779Y-106027192D01*
X172322944Y-105937501D01*
X172412591Y-105761561D01*
X172473610Y-105573763D01*
X172504500Y-105378736D01*
X172504500Y-105181263D01*
X172473610Y-104986236D01*
X172453270Y-104923637D01*
X172412591Y-104798439D01*
X172322944Y-104622499D01*
X172315486Y-104612234D01*
X172206884Y-104462753D01*
X172067246Y-104323115D01*
X171907505Y-104207058D01*
X171902015Y-104204260D01*
X171770491Y-104137245D01*
X171770490Y-104137244D01*
X171731565Y-104117411D01*
X171731564Y-104117410D01*
X171731561Y-104117409D01*
X171685505Y-104102444D01*
X171543763Y-104056389D01*
X171348736Y-104025500D01*
X171348731Y-104025500D01*
X171151269Y-104025500D01*
X171151264Y-104025500D01*
X170956236Y-104056389D01*
X170768441Y-104117408D01*
X170592495Y-104207058D01*
X170432753Y-104323115D01*
X170293115Y-104462753D01*
X170177058Y-104622495D01*
X170087408Y-104798441D01*
X170026389Y-104986236D01*
X169995500Y-105181263D01*
X110570500Y-105181263D01*
X110570500Y-102765095D01*
X167390000Y-102765095D01*
X167390000Y-102994904D01*
X167425950Y-103221884D01*
X167496966Y-103440450D01*
X167601298Y-103645210D01*
X167655975Y-103720468D01*
X167655977Y-103720469D01*
X168256611Y-103119834D01*
X168282839Y-103183154D01*
X168352879Y-103287976D01*
X168442024Y-103377121D01*
X168546846Y-103447161D01*
X168610164Y-103473387D01*
X168009529Y-104074021D01*
X168084792Y-104128703D01*
X168289549Y-104233033D01*
X168508115Y-104304049D01*
X168735096Y-104340000D01*
X168964904Y-104340000D01*
X169191884Y-104304049D01*
X169410450Y-104233033D01*
X169615206Y-104128704D01*
X169690468Y-104074021D01*
X169690469Y-104074021D01*
X169089835Y-103473388D01*
X169153154Y-103447161D01*
X169257976Y-103377121D01*
X169347121Y-103287976D01*
X169417161Y-103183154D01*
X169443388Y-103119835D01*
X170044021Y-103720469D01*
X170044021Y-103720468D01*
X170098704Y-103645206D01*
X170203033Y-103440450D01*
X170274049Y-103221884D01*
X170310000Y-102994904D01*
X170310000Y-102765095D01*
X172190000Y-102765095D01*
X172190000Y-102994904D01*
X172225950Y-103221884D01*
X172296966Y-103440450D01*
X172401298Y-103645210D01*
X172455975Y-103720468D01*
X172455977Y-103720469D01*
X173056611Y-103119834D01*
X173082839Y-103183154D01*
X173152879Y-103287976D01*
X173242024Y-103377121D01*
X173346846Y-103447161D01*
X173410164Y-103473387D01*
X172809529Y-104074021D01*
X172884792Y-104128703D01*
X173089549Y-104233033D01*
X173308115Y-104304049D01*
X173535096Y-104340000D01*
X173764904Y-104340000D01*
X173991884Y-104304049D01*
X174210450Y-104233033D01*
X174415206Y-104128704D01*
X174490468Y-104074021D01*
X174490469Y-104074021D01*
X173889835Y-103473388D01*
X173953154Y-103447161D01*
X174057976Y-103377121D01*
X174147121Y-103287976D01*
X174217161Y-103183154D01*
X174243388Y-103119835D01*
X174844021Y-103720469D01*
X174844021Y-103720468D01*
X174898704Y-103645206D01*
X175003033Y-103440450D01*
X175074049Y-103221884D01*
X175110000Y-102994904D01*
X175110000Y-102765095D01*
X175074049Y-102538115D01*
X175003033Y-102319549D01*
X174898703Y-102114792D01*
X174844021Y-102039530D01*
X174844021Y-102039529D01*
X174243387Y-102640163D01*
X174217161Y-102576846D01*
X174147121Y-102472024D01*
X174057976Y-102382879D01*
X173953154Y-102312839D01*
X173889833Y-102286611D01*
X174490469Y-101685977D01*
X174490468Y-101685975D01*
X174415210Y-101631298D01*
X174210450Y-101526966D01*
X173991884Y-101455950D01*
X173764904Y-101420000D01*
X173535096Y-101420000D01*
X173308115Y-101455950D01*
X173089549Y-101526966D01*
X172884796Y-101631294D01*
X172809530Y-101685977D01*
X172809530Y-101685978D01*
X173410164Y-102286611D01*
X173346846Y-102312839D01*
X173242024Y-102382879D01*
X173152879Y-102472024D01*
X173082839Y-102576846D01*
X173056611Y-102640164D01*
X172455978Y-102039530D01*
X172455977Y-102039530D01*
X172401294Y-102114796D01*
X172296966Y-102319549D01*
X172225950Y-102538115D01*
X172190000Y-102765095D01*
X170310000Y-102765095D01*
X170274049Y-102538115D01*
X170203033Y-102319549D01*
X170098703Y-102114792D01*
X170044021Y-102039530D01*
X170044021Y-102039529D01*
X169443387Y-102640163D01*
X169417161Y-102576846D01*
X169347121Y-102472024D01*
X169257976Y-102382879D01*
X169153154Y-102312839D01*
X169089833Y-102286611D01*
X169690469Y-101685977D01*
X169690468Y-101685975D01*
X169615210Y-101631298D01*
X169410450Y-101526966D01*
X169191884Y-101455950D01*
X168964904Y-101420000D01*
X168735096Y-101420000D01*
X168508115Y-101455950D01*
X168289549Y-101526966D01*
X168084796Y-101631294D01*
X168009530Y-101685977D01*
X168009530Y-101685978D01*
X168610164Y-102286611D01*
X168546846Y-102312839D01*
X168442024Y-102382879D01*
X168352879Y-102472024D01*
X168282839Y-102576846D01*
X168256611Y-102640164D01*
X167655978Y-102039530D01*
X167655977Y-102039530D01*
X167601294Y-102114796D01*
X167496966Y-102319549D01*
X167425950Y-102538115D01*
X167390000Y-102765095D01*
X110570500Y-102765095D01*
X110570500Y-102716092D01*
X110571097Y-102703938D01*
X110572143Y-102693319D01*
X110582744Y-102585680D01*
X110587483Y-102561856D01*
X110620203Y-102453990D01*
X110629499Y-102431549D01*
X110682632Y-102332144D01*
X110696133Y-102311940D01*
X110734988Y-102264595D01*
X110767635Y-102224814D01*
X110784814Y-102207635D01*
X110871942Y-102136131D01*
X110892144Y-102122632D01*
X110991549Y-102069499D01*
X111013990Y-102060203D01*
X111121856Y-102027483D01*
X111145682Y-102022744D01*
X111245730Y-102012890D01*
X111263940Y-102011097D01*
X111276093Y-102010500D01*
X111991619Y-102010500D01*
X111991622Y-102010500D01*
X112232391Y-101975883D01*
X112465782Y-101907353D01*
X112687045Y-101806306D01*
X112891675Y-101674798D01*
X112941877Y-101631298D01*
X113075504Y-101515510D01*
X113075507Y-101515507D01*
X113234798Y-101331675D01*
X113366306Y-101127045D01*
X113467353Y-100905782D01*
X113535883Y-100672391D01*
X113570500Y-100431622D01*
X113570500Y-100310000D01*
X113570500Y-100244108D01*
X113570500Y-91259223D01*
X132769500Y-91259223D01*
X132769500Y-91560776D01*
X132769501Y-91560793D01*
X132808861Y-91859766D01*
X132886913Y-92151060D01*
X133002314Y-92429661D01*
X133002318Y-92429671D01*
X133153099Y-92690831D01*
X133336679Y-92930078D01*
X133336685Y-92930085D01*
X133549914Y-93143314D01*
X133549921Y-93143320D01*
X133789168Y-93326900D01*
X134050328Y-93477681D01*
X134050329Y-93477681D01*
X134050332Y-93477683D01*
X134236072Y-93554619D01*
X134328939Y-93593086D01*
X134328940Y-93593086D01*
X134328942Y-93593087D01*
X134620232Y-93671138D01*
X134919217Y-93710500D01*
X134919224Y-93710500D01*
X135220776Y-93710500D01*
X135220783Y-93710500D01*
X135519768Y-93671138D01*
X135811058Y-93593087D01*
X136089668Y-93477683D01*
X136350832Y-93326900D01*
X136590080Y-93143319D01*
X136803319Y-92930080D01*
X136986900Y-92690832D01*
X137137683Y-92429668D01*
X137253087Y-92151058D01*
X137331138Y-91859768D01*
X137370500Y-91560783D01*
X137370500Y-91259223D01*
X172769500Y-91259223D01*
X172769500Y-91560776D01*
X172769501Y-91560793D01*
X172808861Y-91859766D01*
X172886913Y-92151060D01*
X173002314Y-92429661D01*
X173002318Y-92429671D01*
X173153099Y-92690831D01*
X173336679Y-92930078D01*
X173336685Y-92930085D01*
X173549914Y-93143314D01*
X173549921Y-93143320D01*
X173789168Y-93326900D01*
X174050328Y-93477681D01*
X174050329Y-93477681D01*
X174050332Y-93477683D01*
X174236072Y-93554619D01*
X174328939Y-93593086D01*
X174328940Y-93593086D01*
X174328942Y-93593087D01*
X174620232Y-93671138D01*
X174919217Y-93710500D01*
X174919224Y-93710500D01*
X175220776Y-93710500D01*
X175220783Y-93710500D01*
X175519768Y-93671138D01*
X175811058Y-93593087D01*
X176089668Y-93477683D01*
X176350832Y-93326900D01*
X176590080Y-93143319D01*
X176803319Y-92930080D01*
X176986900Y-92690832D01*
X177137683Y-92429668D01*
X177253087Y-92151058D01*
X177331138Y-91859768D01*
X177370500Y-91560783D01*
X177370500Y-91259217D01*
X177331138Y-90960232D01*
X177253087Y-90668942D01*
X177137683Y-90390332D01*
X176986900Y-90129168D01*
X176803319Y-89889920D01*
X176803314Y-89889914D01*
X176590085Y-89676685D01*
X176590078Y-89676679D01*
X176350831Y-89493099D01*
X176089671Y-89342318D01*
X176089661Y-89342314D01*
X175811060Y-89226913D01*
X175519766Y-89148861D01*
X175220793Y-89109501D01*
X175220788Y-89109500D01*
X175220783Y-89109500D01*
X174919217Y-89109500D01*
X174919211Y-89109500D01*
X174919206Y-89109501D01*
X174620233Y-89148861D01*
X174328939Y-89226913D01*
X174050338Y-89342314D01*
X174050328Y-89342318D01*
X173789168Y-89493099D01*
X173549921Y-89676679D01*
X173549914Y-89676685D01*
X173336685Y-89889914D01*
X173336679Y-89889921D01*
X173153099Y-90129168D01*
X173002318Y-90390328D01*
X173002314Y-90390338D01*
X172886913Y-90668939D01*
X172808861Y-90960233D01*
X172769501Y-91259206D01*
X172769500Y-91259223D01*
X137370500Y-91259223D01*
X137370500Y-91259217D01*
X137331138Y-90960232D01*
X137253087Y-90668942D01*
X137137683Y-90390332D01*
X136986900Y-90129168D01*
X136803319Y-89889920D01*
X136803314Y-89889914D01*
X136590085Y-89676685D01*
X136590078Y-89676679D01*
X136350831Y-89493099D01*
X136089671Y-89342318D01*
X136089661Y-89342314D01*
X135811060Y-89226913D01*
X135519766Y-89148861D01*
X135220793Y-89109501D01*
X135220788Y-89109500D01*
X135220783Y-89109500D01*
X134919217Y-89109500D01*
X134919211Y-89109500D01*
X134919206Y-89109501D01*
X134620233Y-89148861D01*
X134328939Y-89226913D01*
X134050338Y-89342314D01*
X134050328Y-89342318D01*
X133789168Y-89493099D01*
X133549921Y-89676679D01*
X133549914Y-89676685D01*
X133336685Y-89889914D01*
X133336679Y-89889921D01*
X133153099Y-90129168D01*
X133002318Y-90390328D01*
X133002314Y-90390338D01*
X132886913Y-90668939D01*
X132808861Y-90960233D01*
X132769501Y-91259206D01*
X132769500Y-91259223D01*
X113570500Y-91259223D01*
X113570500Y-83645095D01*
X141210000Y-83645095D01*
X141210000Y-83874904D01*
X141245950Y-84101884D01*
X141316966Y-84320450D01*
X141421298Y-84525210D01*
X141475975Y-84600468D01*
X141475977Y-84600469D01*
X142076611Y-83999834D01*
X142102839Y-84063154D01*
X142172879Y-84167976D01*
X142262024Y-84257121D01*
X142366846Y-84327161D01*
X142430164Y-84353387D01*
X141829529Y-84954021D01*
X141904792Y-85008703D01*
X142109549Y-85113033D01*
X142328115Y-85184049D01*
X142555096Y-85220000D01*
X142784904Y-85220000D01*
X143011884Y-85184049D01*
X143230450Y-85113033D01*
X143435206Y-85008704D01*
X143510468Y-84954021D01*
X143510469Y-84954021D01*
X142909835Y-84353388D01*
X142973154Y-84327161D01*
X143077976Y-84257121D01*
X143167121Y-84167976D01*
X143237161Y-84063154D01*
X143263387Y-83999835D01*
X143864021Y-84600469D01*
X143864021Y-84600468D01*
X143918704Y-84525206D01*
X144023033Y-84320450D01*
X144094049Y-84101884D01*
X144130000Y-83874904D01*
X144130000Y-83645095D01*
X146010000Y-83645095D01*
X146010000Y-83874904D01*
X146045950Y-84101884D01*
X146116966Y-84320450D01*
X146221298Y-84525210D01*
X146275975Y-84600468D01*
X146275977Y-84600469D01*
X146876611Y-83999834D01*
X146902839Y-84063154D01*
X146972879Y-84167976D01*
X147062024Y-84257121D01*
X147166846Y-84327161D01*
X147230164Y-84353387D01*
X146629529Y-84954021D01*
X146704792Y-85008703D01*
X146909549Y-85113033D01*
X147128115Y-85184049D01*
X147355096Y-85220000D01*
X147584904Y-85220000D01*
X147811884Y-85184049D01*
X148030450Y-85113033D01*
X148235206Y-85008704D01*
X148310468Y-84954021D01*
X148310469Y-84954021D01*
X147709835Y-84353388D01*
X147773154Y-84327161D01*
X147877976Y-84257121D01*
X147967121Y-84167976D01*
X148037161Y-84063154D01*
X148063388Y-83999835D01*
X148664021Y-84600469D01*
X148664021Y-84600468D01*
X148718704Y-84525206D01*
X148823033Y-84320450D01*
X148894049Y-84101884D01*
X148930000Y-83874904D01*
X148930000Y-83645095D01*
X148894049Y-83418115D01*
X148823033Y-83199549D01*
X148718703Y-82994792D01*
X148664021Y-82919530D01*
X148664021Y-82919529D01*
X148063387Y-83520163D01*
X148037161Y-83456846D01*
X147967121Y-83352024D01*
X147877976Y-83262879D01*
X147773154Y-83192839D01*
X147709833Y-83166611D01*
X148310469Y-82565977D01*
X148310468Y-82565975D01*
X148235210Y-82511298D01*
X148030450Y-82406966D01*
X147811884Y-82335950D01*
X147584904Y-82300000D01*
X147355096Y-82300000D01*
X147128115Y-82335950D01*
X146909549Y-82406966D01*
X146704796Y-82511294D01*
X146629530Y-82565977D01*
X146629530Y-82565978D01*
X147230164Y-83166611D01*
X147166846Y-83192839D01*
X147062024Y-83262879D01*
X146972879Y-83352024D01*
X146902839Y-83456846D01*
X146876611Y-83520164D01*
X146275978Y-82919530D01*
X146275977Y-82919530D01*
X146221294Y-82994796D01*
X146116966Y-83199549D01*
X146045950Y-83418115D01*
X146010000Y-83645095D01*
X144130000Y-83645095D01*
X144094049Y-83418115D01*
X144023033Y-83199549D01*
X143918703Y-82994792D01*
X143864021Y-82919530D01*
X143864021Y-82919529D01*
X143263387Y-83520163D01*
X143237161Y-83456846D01*
X143167121Y-83352024D01*
X143077976Y-83262879D01*
X142973154Y-83192839D01*
X142909833Y-83166611D01*
X143510469Y-82565977D01*
X143510468Y-82565975D01*
X143435210Y-82511298D01*
X143230450Y-82406966D01*
X143011884Y-82335950D01*
X142784904Y-82300000D01*
X142555096Y-82300000D01*
X142328115Y-82335950D01*
X142109549Y-82406966D01*
X141904796Y-82511294D01*
X141829530Y-82565977D01*
X141829530Y-82565978D01*
X142430164Y-83166611D01*
X142366846Y-83192839D01*
X142262024Y-83262879D01*
X142172879Y-83352024D01*
X142102839Y-83456846D01*
X142076611Y-83520164D01*
X141475978Y-82919530D01*
X141475977Y-82919530D01*
X141421294Y-82994796D01*
X141316966Y-83199549D01*
X141245950Y-83418115D01*
X141210000Y-83645095D01*
X113570500Y-83645095D01*
X113570500Y-82644108D01*
X113570500Y-82588378D01*
X113535883Y-82347609D01*
X113467353Y-82114218D01*
X113366306Y-81892955D01*
X113234798Y-81688325D01*
X113085051Y-81515507D01*
X113075507Y-81504492D01*
X112897339Y-81350110D01*
X112897337Y-81350108D01*
X112891682Y-81345207D01*
X112891674Y-81345201D01*
X112761064Y-81261263D01*
X143815500Y-81261263D01*
X143815500Y-81458736D01*
X143846389Y-81653763D01*
X143895954Y-81806306D01*
X143907409Y-81841561D01*
X143993489Y-82010500D01*
X143997058Y-82017504D01*
X144113115Y-82177246D01*
X144252753Y-82316884D01*
X144376743Y-82406966D01*
X144412499Y-82432944D01*
X144588439Y-82522591D01*
X144713637Y-82563270D01*
X144776236Y-82583610D01*
X144971264Y-82614500D01*
X144971269Y-82614500D01*
X145168736Y-82614500D01*
X145363763Y-82583610D01*
X145551561Y-82522591D01*
X145727501Y-82432944D01*
X145763257Y-82406966D01*
X145887246Y-82316884D01*
X145887248Y-82316881D01*
X145887252Y-82316879D01*
X146026879Y-82177252D01*
X146026881Y-82177248D01*
X146026884Y-82177246D01*
X146109345Y-82063746D01*
X146142944Y-82017501D01*
X146232591Y-81841561D01*
X146293610Y-81653763D01*
X146315508Y-81515507D01*
X146324500Y-81458736D01*
X146324500Y-81261263D01*
X146293610Y-81066236D01*
X146259026Y-80959798D01*
X146232591Y-80878439D01*
X146142944Y-80702499D01*
X146132300Y-80687849D01*
X146026884Y-80542753D01*
X145887246Y-80403115D01*
X145727505Y-80287058D01*
X145722015Y-80284260D01*
X145590491Y-80217245D01*
X145590490Y-80217244D01*
X145551565Y-80197411D01*
X145551564Y-80197410D01*
X145551561Y-80197409D01*
X145505505Y-80182444D01*
X145363763Y-80136389D01*
X145168736Y-80105500D01*
X145168731Y-80105500D01*
X144971269Y-80105500D01*
X144971264Y-80105500D01*
X144776236Y-80136389D01*
X144588441Y-80197408D01*
X144412495Y-80287058D01*
X144252753Y-80403115D01*
X144113115Y-80542753D01*
X143997058Y-80702495D01*
X143907408Y-80878441D01*
X143846389Y-81066236D01*
X143815500Y-81261263D01*
X112761064Y-81261263D01*
X112687049Y-81213696D01*
X112687044Y-81213693D01*
X112497309Y-81127045D01*
X112465782Y-81112647D01*
X112307725Y-81066237D01*
X112232396Y-81044118D01*
X112232386Y-81044116D01*
X112113365Y-81027003D01*
X111991622Y-81009500D01*
X111991620Y-81009500D01*
X111276093Y-81009500D01*
X111263939Y-81008903D01*
X111213081Y-81003893D01*
X111145688Y-80997256D01*
X111121848Y-80992514D01*
X111013997Y-80959798D01*
X110991541Y-80950496D01*
X110892150Y-80897370D01*
X110871940Y-80883866D01*
X110784820Y-80812369D01*
X110767630Y-80795179D01*
X110696133Y-80708059D01*
X110682629Y-80687849D01*
X110629501Y-80588453D01*
X110620201Y-80566002D01*
X110613147Y-80542748D01*
X110587483Y-80458145D01*
X110582744Y-80434317D01*
X110571097Y-80316061D01*
X110570500Y-80303907D01*
X110570500Y-78845095D01*
X141210000Y-78845095D01*
X141210000Y-79074904D01*
X141245950Y-79301884D01*
X141316966Y-79520450D01*
X141421298Y-79725210D01*
X141475975Y-79800468D01*
X141475977Y-79800469D01*
X142076611Y-79199834D01*
X142102839Y-79263154D01*
X142172879Y-79367976D01*
X142262024Y-79457121D01*
X142366846Y-79527161D01*
X142430164Y-79553387D01*
X141829529Y-80154021D01*
X141904792Y-80208703D01*
X142109549Y-80313033D01*
X142328115Y-80384049D01*
X142555096Y-80420000D01*
X142784904Y-80420000D01*
X143011884Y-80384049D01*
X143230450Y-80313033D01*
X143435206Y-80208704D01*
X143510468Y-80154021D01*
X143510469Y-80154021D01*
X142909835Y-79553388D01*
X142973154Y-79527161D01*
X143077976Y-79457121D01*
X143167121Y-79367976D01*
X143237161Y-79263154D01*
X143263387Y-79199835D01*
X143864021Y-79800469D01*
X143864021Y-79800468D01*
X143918704Y-79725206D01*
X144023033Y-79520450D01*
X144094049Y-79301884D01*
X144130000Y-79074904D01*
X144130000Y-78845095D01*
X146010000Y-78845095D01*
X146010000Y-79074904D01*
X146045950Y-79301884D01*
X146116966Y-79520450D01*
X146221298Y-79725210D01*
X146275975Y-79800468D01*
X146275977Y-79800469D01*
X146876611Y-79199834D01*
X146902839Y-79263154D01*
X146972879Y-79367976D01*
X147062024Y-79457121D01*
X147166846Y-79527161D01*
X147230164Y-79553387D01*
X146629529Y-80154021D01*
X146704792Y-80208703D01*
X146909549Y-80313033D01*
X147128115Y-80384049D01*
X147355096Y-80420000D01*
X147584904Y-80420000D01*
X147811884Y-80384049D01*
X148030450Y-80313033D01*
X148235206Y-80208704D01*
X148310468Y-80154021D01*
X148310469Y-80154021D01*
X147709835Y-79553388D01*
X147773154Y-79527161D01*
X147877976Y-79457121D01*
X147967121Y-79367976D01*
X148037161Y-79263154D01*
X148063388Y-79199835D01*
X148664021Y-79800469D01*
X148664021Y-79800468D01*
X148718704Y-79725206D01*
X148823033Y-79520450D01*
X148894049Y-79301884D01*
X148930000Y-79074904D01*
X148930000Y-78845095D01*
X148894049Y-78618115D01*
X148823033Y-78399549D01*
X148718703Y-78194792D01*
X148664021Y-78119530D01*
X148664021Y-78119529D01*
X148063387Y-78720163D01*
X148037161Y-78656846D01*
X147967121Y-78552024D01*
X147877976Y-78462879D01*
X147773154Y-78392839D01*
X147709833Y-78366611D01*
X148310469Y-77765977D01*
X148310468Y-77765975D01*
X148235210Y-77711298D01*
X148030450Y-77606966D01*
X147811884Y-77535950D01*
X147584904Y-77500000D01*
X147355096Y-77500000D01*
X147128115Y-77535950D01*
X146909549Y-77606966D01*
X146704796Y-77711294D01*
X146629530Y-77765977D01*
X146629530Y-77765978D01*
X147230164Y-78366611D01*
X147166846Y-78392839D01*
X147062024Y-78462879D01*
X146972879Y-78552024D01*
X146902839Y-78656846D01*
X146876611Y-78720164D01*
X146275978Y-78119530D01*
X146275977Y-78119530D01*
X146221294Y-78194796D01*
X146116966Y-78399549D01*
X146045950Y-78618115D01*
X146010000Y-78845095D01*
X144130000Y-78845095D01*
X144094049Y-78618115D01*
X144023033Y-78399549D01*
X143918703Y-78194792D01*
X143864021Y-78119530D01*
X143864021Y-78119529D01*
X143263387Y-78720163D01*
X143237161Y-78656846D01*
X143167121Y-78552024D01*
X143077976Y-78462879D01*
X142973154Y-78392839D01*
X142909833Y-78366611D01*
X143510469Y-77765977D01*
X143510468Y-77765975D01*
X143435210Y-77711298D01*
X143230450Y-77606966D01*
X143011884Y-77535950D01*
X142784904Y-77500000D01*
X142555096Y-77500000D01*
X142328115Y-77535950D01*
X142109549Y-77606966D01*
X141904796Y-77711294D01*
X141829530Y-77765977D01*
X141829530Y-77765978D01*
X142430164Y-78366611D01*
X142366846Y-78392839D01*
X142262024Y-78462879D01*
X142172879Y-78552024D01*
X142102839Y-78656846D01*
X142076611Y-78720164D01*
X141475978Y-78119530D01*
X141475977Y-78119530D01*
X141421294Y-78194796D01*
X141316966Y-78399549D01*
X141245950Y-78618115D01*
X141210000Y-78845095D01*
X110570500Y-78845095D01*
X110570500Y-71259223D01*
X152769500Y-71259223D01*
X152769500Y-71560776D01*
X152769501Y-71560793D01*
X152808861Y-71859766D01*
X152886913Y-72151060D01*
X153002314Y-72429661D01*
X153002318Y-72429671D01*
X153153099Y-72690831D01*
X153336679Y-72930078D01*
X153336685Y-72930085D01*
X153549914Y-73143314D01*
X153549921Y-73143320D01*
X153789168Y-73326900D01*
X154050328Y-73477681D01*
X154050329Y-73477681D01*
X154050332Y-73477683D01*
X154236072Y-73554619D01*
X154328939Y-73593086D01*
X154328940Y-73593086D01*
X154328942Y-73593087D01*
X154620232Y-73671138D01*
X154919217Y-73710500D01*
X154919224Y-73710500D01*
X155220776Y-73710500D01*
X155220783Y-73710500D01*
X155519768Y-73671138D01*
X155811058Y-73593087D01*
X156089668Y-73477683D01*
X156350832Y-73326900D01*
X156590080Y-73143319D01*
X156803319Y-72930080D01*
X156986900Y-72690832D01*
X157137683Y-72429668D01*
X157253087Y-72151058D01*
X157331138Y-71859768D01*
X157370500Y-71560783D01*
X157370500Y-71259217D01*
X157331138Y-70960232D01*
X157253087Y-70668942D01*
X157137683Y-70390332D01*
X156986900Y-70129168D01*
X156803319Y-69889920D01*
X156803314Y-69889914D01*
X156590085Y-69676685D01*
X156590078Y-69676679D01*
X156350831Y-69493099D01*
X156089671Y-69342318D01*
X156089661Y-69342314D01*
X155811060Y-69226913D01*
X155519766Y-69148861D01*
X155220793Y-69109501D01*
X155220788Y-69109500D01*
X155220783Y-69109500D01*
X154919217Y-69109500D01*
X154919211Y-69109500D01*
X154919206Y-69109501D01*
X154620233Y-69148861D01*
X154328939Y-69226913D01*
X154050338Y-69342314D01*
X154050328Y-69342318D01*
X153789168Y-69493099D01*
X153549921Y-69676679D01*
X153549914Y-69676685D01*
X153336685Y-69889914D01*
X153336679Y-69889921D01*
X153153099Y-70129168D01*
X153002318Y-70390328D01*
X153002314Y-70390338D01*
X152886913Y-70668939D01*
X152808861Y-70960233D01*
X152769501Y-71259206D01*
X152769500Y-71259223D01*
X110570500Y-71259223D01*
X110570500Y-51359223D01*
X112769500Y-51359223D01*
X112769500Y-51660776D01*
X112769501Y-51660793D01*
X112808861Y-51959766D01*
X112886913Y-52251060D01*
X113002314Y-52529661D01*
X113002318Y-52529671D01*
X113153099Y-52790831D01*
X113336679Y-53030078D01*
X113336685Y-53030085D01*
X113549914Y-53243314D01*
X113549921Y-53243320D01*
X113789168Y-53426900D01*
X114050328Y-53577681D01*
X114050329Y-53577681D01*
X114050332Y-53577683D01*
X114236072Y-53654619D01*
X114328939Y-53693086D01*
X114328940Y-53693086D01*
X114328942Y-53693087D01*
X114620232Y-53771138D01*
X114919217Y-53810500D01*
X114919224Y-53810500D01*
X115220776Y-53810500D01*
X115220783Y-53810500D01*
X115519768Y-53771138D01*
X115811058Y-53693087D01*
X116089668Y-53577683D01*
X116350832Y-53426900D01*
X116590080Y-53243319D01*
X116803319Y-53030080D01*
X116986900Y-52790832D01*
X117137683Y-52529668D01*
X117253087Y-52251058D01*
X117331138Y-51959768D01*
X117370500Y-51660783D01*
X117370500Y-51359223D01*
X192769500Y-51359223D01*
X192769500Y-51660776D01*
X192769501Y-51660793D01*
X192808861Y-51959766D01*
X192886913Y-52251060D01*
X193002314Y-52529661D01*
X193002318Y-52529671D01*
X193153099Y-52790831D01*
X193336679Y-53030078D01*
X193336685Y-53030085D01*
X193549914Y-53243314D01*
X193549921Y-53243320D01*
X193789168Y-53426900D01*
X194050328Y-53577681D01*
X194050329Y-53577681D01*
X194050332Y-53577683D01*
X194236072Y-53654619D01*
X194328939Y-53693086D01*
X194328940Y-53693086D01*
X194328942Y-53693087D01*
X194620232Y-53771138D01*
X194919217Y-53810500D01*
X194919224Y-53810500D01*
X195220776Y-53810500D01*
X195220783Y-53810500D01*
X195519768Y-53771138D01*
X195811058Y-53693087D01*
X196089668Y-53577683D01*
X196350832Y-53426900D01*
X196590080Y-53243319D01*
X196803319Y-53030080D01*
X196986900Y-52790832D01*
X197137683Y-52529668D01*
X197253087Y-52251058D01*
X197331138Y-51959768D01*
X197370500Y-51660783D01*
X197370500Y-51359217D01*
X197331138Y-51060232D01*
X197253087Y-50768942D01*
X197137683Y-50490332D01*
X196986900Y-50229168D01*
X196803319Y-49989920D01*
X196803314Y-49989914D01*
X196590085Y-49776685D01*
X196590078Y-49776679D01*
X196350831Y-49593099D01*
X196089671Y-49442318D01*
X196089661Y-49442314D01*
X195811060Y-49326913D01*
X195519766Y-49248861D01*
X195220793Y-49209501D01*
X195220788Y-49209500D01*
X195220783Y-49209500D01*
X194919217Y-49209500D01*
X194919211Y-49209500D01*
X194919206Y-49209501D01*
X194620233Y-49248861D01*
X194328939Y-49326913D01*
X194050338Y-49442314D01*
X194050328Y-49442318D01*
X193789168Y-49593099D01*
X193549921Y-49776679D01*
X193549914Y-49776685D01*
X193336685Y-49989914D01*
X193336679Y-49989921D01*
X193153099Y-50229168D01*
X193002318Y-50490328D01*
X193002314Y-50490338D01*
X192886913Y-50768939D01*
X192808861Y-51060233D01*
X192769501Y-51359206D01*
X192769500Y-51359223D01*
X117370500Y-51359223D01*
X117370500Y-51359217D01*
X117331138Y-51060232D01*
X117253087Y-50768942D01*
X117137683Y-50490332D01*
X116986900Y-50229168D01*
X116803319Y-49989920D01*
X116803314Y-49989914D01*
X116590085Y-49776685D01*
X116590078Y-49776679D01*
X116350831Y-49593099D01*
X116089671Y-49442318D01*
X116089661Y-49442314D01*
X115811060Y-49326913D01*
X115519766Y-49248861D01*
X115220793Y-49209501D01*
X115220788Y-49209500D01*
X115220783Y-49209500D01*
X114919217Y-49209500D01*
X114919211Y-49209500D01*
X114919206Y-49209501D01*
X114620233Y-49248861D01*
X114328939Y-49326913D01*
X114050338Y-49442314D01*
X114050328Y-49442318D01*
X113789168Y-49593099D01*
X113549921Y-49776679D01*
X113549914Y-49776685D01*
X113336685Y-49989914D01*
X113336679Y-49989921D01*
X113153099Y-50229168D01*
X113002318Y-50490328D01*
X113002314Y-50490338D01*
X112886913Y-50768939D01*
X112808861Y-51060233D01*
X112769501Y-51359206D01*
X112769500Y-51359223D01*
X110570500Y-51359223D01*
X110570500Y-47516092D01*
X110571097Y-47503938D01*
X110571097Y-47503937D01*
X110582744Y-47385678D01*
X110587483Y-47361856D01*
X110620203Y-47253990D01*
X110629499Y-47231549D01*
X110682632Y-47132144D01*
X110696133Y-47111940D01*
X110767635Y-47024814D01*
X110784814Y-47007635D01*
X110871942Y-46936131D01*
X110892144Y-46922632D01*
X110991549Y-46869499D01*
X111013990Y-46860203D01*
X111121856Y-46827483D01*
X111145682Y-46822744D01*
X111245730Y-46812890D01*
X111263940Y-46811097D01*
X111276093Y-46810500D01*
X111335892Y-46810500D01*
X143804108Y-46810500D01*
X143863907Y-46810500D01*
X143876061Y-46811097D01*
G37*
%TD.AperFunction*%
%TD*%
M02*
