%TF.GenerationSoftware,KiCad,Pcbnew,9.0.7*%
%TF.CreationDate,2026-05-06T17:16:41-03:00*%
%TF.ProjectId,pcb_antennas,7063625f-616e-4746-956e-6e61732e6b69,rev?*%
%TF.SameCoordinates,Original*%
%TF.FileFunction,Profile,NP*%
%FSLAX46Y46*%
G04 Gerber Fmt 4.6, Leading zero omitted, Abs format (unit mm)*
G04 Created by KiCad (PCBNEW 9.0.7) date 2026-05-06 17:16:41*
%MOMM*%
%LPD*%
G01*
G04 APERTURE LIST*
%TA.AperFunction,Profile*%
%ADD10C,0.050000*%
%TD*%
G04 APERTURE END LIST*
D10*
X198870000Y-136510000D02*
X166270000Y-136510000D01*
X165070000Y-47510000D02*
G75*
G02*
X166270000Y-46310000I1200000J0D01*
G01*
X111870000Y-81510000D02*
X111270000Y-81510000D01*
X143870000Y-46310000D02*
G75*
G02*
X145070000Y-47510000I0J-1200000D01*
G01*
X166270000Y-46310000D02*
X198870000Y-46310000D01*
X111870000Y-81510000D02*
G75*
G02*
X113070000Y-82710000I0J-1200000D01*
G01*
X200070000Y-47510000D02*
X200070000Y-135310000D01*
X163870000Y-133510000D02*
G75*
G02*
X165070000Y-134710000I0J-1200000D01*
G01*
X110070000Y-47510000D02*
G75*
G02*
X111270000Y-46310000I1200000J0D01*
G01*
X110070000Y-80310000D02*
X110070000Y-47510000D01*
X111270000Y-81510000D02*
G75*
G02*
X110070000Y-80310000I0J1200000D01*
G01*
X110070000Y-135310000D02*
X110070000Y-102710000D01*
X145070000Y-134710000D02*
G75*
G02*
X146270000Y-133510000I1200000J0D01*
G01*
X111270000Y-136510000D02*
G75*
G02*
X110070000Y-135310000I0J1200000D01*
G01*
X165070000Y-134710000D02*
X165070000Y-135310000D01*
X110070000Y-102710000D02*
G75*
G02*
X111270000Y-101510000I1200000J0D01*
G01*
X111270000Y-101510000D02*
X111870000Y-101510000D01*
X165070000Y-48110000D02*
G75*
G02*
X163870000Y-49310000I-1200000J0D01*
G01*
X146270000Y-133510000D02*
X163870000Y-133510000D01*
X143870000Y-136510000D02*
X111270000Y-136510000D01*
X113070000Y-100310000D02*
G75*
G02*
X111870000Y-101510000I-1200000J0D01*
G01*
X113070000Y-100310000D02*
X113070000Y-82710000D01*
X145070000Y-135310000D02*
G75*
G02*
X143870000Y-136510000I-1200000J0D01*
G01*
X165070000Y-47510000D02*
X165070000Y-48110000D01*
X166270000Y-136510000D02*
G75*
G02*
X165070000Y-135310000I0J1200000D01*
G01*
X143870000Y-46310000D02*
X111270000Y-46310000D01*
X200070000Y-135310000D02*
G75*
G02*
X198870000Y-136510000I-1200000J0D01*
G01*
X146270000Y-49310000D02*
X163870000Y-49310000D01*
X146270000Y-49310000D02*
G75*
G02*
X145070000Y-48110000I0J1200000D01*
G01*
X145070000Y-48110000D02*
X145070000Y-47510000D01*
X145070000Y-135310000D02*
X145070000Y-134710000D01*
X198870000Y-46310000D02*
G75*
G02*
X200070000Y-47510000I0J-1200000D01*
G01*
M02*
