%TF.GenerationSoftware,KiCad,Pcbnew,9.0.7*%
%TF.CreationDate,2026-05-06T17:16:41-03:00*%
%TF.ProjectId,pcb_antennas,7063625f-616e-4746-956e-6e61732e6b69,rev?*%
%TF.SameCoordinates,Original*%
%TF.FileFunction,Copper,L4,Bot*%
%TF.FilePolarity,Positive*%
%FSLAX46Y46*%
G04 Gerber Fmt 4.6, Leading zero omitted, Abs format (unit mm)*
G04 Created by KiCad (PCBNEW 9.0.7) date 2026-05-06 17:16:41*
%MOMM*%
%LPD*%
G01*
G04 APERTURE LIST*
G04 Aperture macros list*
%AMRoundRect*
0 Rectangle with rounded corners*
0 $1 Rounding radius*
0 $2 $3 $4 $5 $6 $7 $8 $9 X,Y pos of 4 corners*
0 Add a 4 corners polygon primitive as box body*
4,1,4,$2,$3,$4,$5,$6,$7,$8,$9,$2,$3,0*
0 Add four circle primitives for the rounded corners*
1,1,$1+$1,$2,$3*
1,1,$1+$1,$4,$5*
1,1,$1+$1,$6,$7*
1,1,$1+$1,$8,$9*
0 Add four rect primitives between the rounded corners*
20,1,$1+$1,$2,$3,$4,$5,0*
20,1,$1+$1,$4,$5,$6,$7,0*
20,1,$1+$1,$6,$7,$8,$9,0*
20,1,$1+$1,$8,$9,$2,$3,0*%
G04 Aperture macros list end*
%TA.AperFunction,SMDPad,CuDef*%
%ADD10RoundRect,0.237500X0.380070X-0.044194X-0.044194X0.380070X-0.380070X0.044194X0.044194X-0.380070X0*%
%TD*%
%TA.AperFunction,SMDPad,CuDef*%
%ADD11RoundRect,0.237500X0.044194X0.380070X-0.380070X-0.044194X-0.044194X-0.380070X0.380070X0.044194X0*%
%TD*%
%TA.AperFunction,ComponentPad*%
%ADD12C,3.600000*%
%TD*%
%TA.AperFunction,ConnectorPad*%
%ADD13C,5.600000*%
%TD*%
%TA.AperFunction,SMDPad,CuDef*%
%ADD14R,2.540000X1.650000*%
%TD*%
%TA.AperFunction,ComponentPad*%
%ADD15C,1.508000*%
%TD*%
%TA.AperFunction,ComponentPad*%
%ADD16C,1.920000*%
%TD*%
%TA.AperFunction,ViaPad*%
%ADD17C,0.700000*%
%TD*%
%TA.AperFunction,Conductor*%
%ADD18C,0.142000*%
%TD*%
%TA.AperFunction,Conductor*%
%ADD19C,0.400000*%
%TD*%
%TA.AperFunction,Conductor*%
%ADD20C,0.365000*%
%TD*%
G04 APERTURE END LIST*
D10*
%TO.P,C5,1*%
%TO.N,/SecA1_75ohms*%
X160999880Y-72759880D03*
%TO.P,C5,2*%
%TO.N,/SeAc21_75ohms*%
X159780120Y-71540120D03*
%TD*%
D11*
%TO.P,C6,1*%
%TO.N,/SecA2_75ohms*%
X161519880Y-110220120D03*
%TO.P,C6,2*%
%TO.N,/SecA22_75ohms*%
X160300120Y-111439880D03*
%TD*%
D12*
%TO.P,H2,1,1*%
%TO.N,/Sec22_75ohms*%
X135070000Y-91410000D03*
%TD*%
%TO.P,H3,1,1*%
%TO.N,/SeAc21_75ohms*%
X155070000Y-71410000D03*
%TD*%
%TO.P,H4,1,1*%
%TO.N,/SecA22_75ohms*%
X155070000Y-111410000D03*
%TD*%
%TO.P,H5,1*%
%TO.N,N/C*%
X195070000Y-131510000D03*
D13*
X195070000Y-131510000D03*
%TD*%
D12*
%TO.P,H6,1*%
%TO.N,N/C*%
X195070000Y-51510000D03*
D13*
X195070000Y-51510000D03*
%TD*%
D12*
%TO.P,H7,1*%
%TO.N,N/C*%
X115070000Y-51510000D03*
D13*
X115070000Y-51510000D03*
%TD*%
D12*
%TO.P,H8,1*%
%TO.N,N/C*%
X115070000Y-131510000D03*
D13*
X115070000Y-131510000D03*
%TD*%
D12*
%TO.P,H1,1,1*%
%TO.N,/Sec12_75ohms*%
X175070000Y-91410000D03*
%TD*%
D14*
%TO.P,T1,1,PRIMARY_1*%
%TO.N,GND*%
X167470000Y-88820000D03*
%TO.P,T1,2,PRIMARY_2*%
X167470000Y-91360000D03*
%TO.P,T1,3,PRIMARY_DOT_50ohm_UNBALANCED*%
%TO.N,/SMA_145*%
X167470000Y-93900000D03*
%TO.P,T1,4,SECONDARY_DOT_75ohm_BALANCED*%
%TO.N,/SecA2_75ohms*%
X162390000Y-93900000D03*
%TO.P,T1,5,NOT_USED*%
%TO.N,unconnected-(T1-NOT_USED-Pad5)*%
X162390000Y-91360000D03*
%TO.P,T1,6,SECONDARY_75ohm_BALANCED*%
%TO.N,/SecA1_75ohms*%
X162390000Y-88820000D03*
%TD*%
D15*
%TO.P,433MHz,1*%
%TO.N,/SMA_433*%
X145070000Y-81360000D03*
D16*
%TO.P,433MHz,G1*%
%TO.N,GND*%
X147470000Y-78960000D03*
%TO.P,433MHz,G2*%
X147470000Y-83760000D03*
%TO.P,433MHz,G3*%
X142670000Y-83760000D03*
%TO.P,433MHz,G4*%
X142670000Y-78960000D03*
%TD*%
D15*
%TO.P,145MHz,1*%
%TO.N,/SMA_145*%
X171250000Y-105280000D03*
D16*
%TO.P,145MHz,G1*%
%TO.N,GND*%
X168850000Y-102880000D03*
%TO.P,145MHz,G2*%
X173650000Y-102880000D03*
%TO.P,145MHz,G3*%
X173650000Y-107680000D03*
%TO.P,145MHz,G4*%
X168850000Y-107680000D03*
%TD*%
D17*
%TO.N,GND*%
X171080000Y-90610000D03*
X171030000Y-87420000D03*
X153370000Y-88560000D03*
X156280000Y-88580000D03*
%TD*%
D18*
%TO.N,/SecA1_75ohms*%
X161804213Y-73564213D02*
G75*
G02*
X162389981Y-74978427I-1414213J-1414187D01*
G01*
%TO.N,/SeAc21_75ohms*%
X159780120Y-71540120D02*
X155200120Y-71540120D01*
X155200120Y-71540120D02*
X155070000Y-71410000D01*
%TO.N,/SecA1_75ohms*%
X161804213Y-73564213D02*
X160999880Y-72759880D01*
X162390000Y-88820000D02*
X162390000Y-74978427D01*
%TO.N,/SecA22_75ohms*%
X155099880Y-111439880D02*
X155070000Y-111410000D01*
X160300120Y-111439880D02*
X155099880Y-111439880D01*
%TO.N,/SecA2_75ohms*%
X162390000Y-108521573D02*
G75*
G02*
X161804227Y-109935801I-2000000J-27D01*
G01*
X161804213Y-109935787D02*
X161519880Y-110220120D01*
X162390000Y-93900000D02*
X162390000Y-108521573D01*
D19*
%TO.N,GND*%
X170330000Y-91360000D02*
X171080000Y-90610000D01*
X167470000Y-91360000D02*
X170330000Y-91360000D01*
X169630000Y-88820000D02*
X171030000Y-87420000D01*
X167470000Y-88820000D02*
X169630000Y-88820000D01*
D20*
%TO.N,/SMA_145*%
X168321068Y-94751068D02*
G75*
G02*
X171249975Y-101822136I-7071068J-7071032D01*
G01*
X168321068Y-94751068D02*
X167470000Y-93900000D01*
X171250000Y-105280000D02*
X171250000Y-101822136D01*
%TD*%
M02*
