M48
; DRILL file {KiCad 9.0.7} date 2026-05-06T17:43:33-0300
; FORMAT={-:-/ absolute / metric / decimal}
; #@! TF.CreationDate,2026-05-06T17:43:33-03:00
; #@! TF.GenerationSoftware,Kicad,Pcbnew,9.0.7
; #@! TF.FileFunction,Plated,1,4,PTH
FMAT,2
METRIC
; #@! TA.AperFunction,Plated,PTH,ViaDrill
T1C0.300
; #@! TA.AperFunction,Plated,PTH,ComponentDrill
T2C1.000
; #@! TA.AperFunction,Plated,PTH,ComponentDrill
T3C1.280
; #@! TA.AperFunction,Plated,PTH,ComponentDrill
T4C1.430
; #@! TA.AperFunction,Plated,PTH,ComponentDrill
T5C3.200
%
G90
G05
T1
X107.59Y-105.47
X107.792Y-110.36
X107.96Y-62.1
X108.46Y-95.35
X109.772Y-109.57
X109.81Y-95.44
X110.93Y-67.23
X110.99Y-60.56
X111.29Y-59.62
X111.63Y-79.08
X112.86Y-128.05
X113.08Y-84.32
X113.73Y-86.32
X113.74Y-85.03
X114.11Y-123.13
X114.14Y-71.31
X114.21Y-128.0
X114.62Y-100.69
X114.64Y-101.98
X115.27Y-84.28
X115.47Y-64.5
X115.55Y-110.622
X115.98Y-85.34
X115.99Y-97.24
X116.44Y-64.48
X116.48Y-128.02
X116.63Y-104.19
X117.19Y-63.49
X118.09Y-97.25
X118.62Y-128.13
X118.97Y-80.12
X119.71Y-71.61
X119.76Y-69.68
X120.23Y-97.19
X121.58Y-110.41
X122.72Y-97.745
X126.39Y-82.49
X129.98Y-60.5
X131.857Y-91.355
X136.417Y-91.565
X138.97Y-67.3
X139.03Y-113.25
X139.09Y-82.56
X139.26Y-68.38
X140.16Y-75.38
X140.2Y-113.22
X140.95Y-74.65
X141.23Y-65.58
X142.2Y-117.55
X143.52Y-117.58
X145.09Y-88.45
X145.441Y-87.53
X145.727Y-95.745
X145.727Y-96.745
X145.727Y-98.745
X145.727Y-99.745
X145.727Y-100.745
X145.727Y-101.745
X145.727Y-102.745
X145.727Y-103.745
X145.727Y-104.745
X145.727Y-105.745
X145.727Y-106.745
X145.727Y-107.745
X145.727Y-108.745
X145.727Y-109.745
X145.727Y-110.745
X145.727Y-111.745
X145.87Y-89.74
X146.44Y-83.83
X146.727Y-95.745
X146.727Y-111.745
X146.754Y-89.908
X147.01Y-58.1
X147.56Y-91.37
X147.727Y-95.745
X147.727Y-111.745
X147.849Y-69.17
X147.87Y-70.07
X147.91Y-58.12
X147.932Y-63.5
X147.96Y-64.4
X148.727Y-95.745
X148.73Y-111.76
X149.137Y-121.347
X149.72Y-112.7
X149.727Y-95.745
X150.4Y-71.4
X150.452Y-113.43
X150.59Y-66.42
X150.59Y-67.32
X150.727Y-95.745
X151.06Y-72.13
X151.16Y-114.14
X151.727Y-95.745
X151.727Y-96.745
X151.727Y-97.745
X151.727Y-98.745
X151.727Y-99.745
X151.727Y-100.745
X151.727Y-101.745
X151.727Y-102.745
X151.73Y-103.75
X151.73Y-104.75
X151.73Y-105.75
X151.73Y-106.75
X151.732Y-107.755
X151.74Y-108.76
X151.783Y-72.67
X151.875Y-114.86
X152.06Y-109.84
X152.61Y-115.59
X152.745Y-72.875
X152.792Y-110.57
X153.5Y-111.28
X153.56Y-84.45
X153.827Y-126.387
X154.0Y-115.9
X154.215Y-112.0
X154.25Y-67.045
X154.382Y-85.044
X154.425Y-90.175
X154.52Y-88.78
X154.875Y-67.775
X154.95Y-112.73
X155.0Y-115.9
X155.16Y-76.18
X155.55Y-68.45
X156.0Y-113.05
X156.0Y-115.9
X156.12Y-126.48
X156.131Y-69.137
X156.475Y-60.02
X156.75Y-76.22
X156.751Y-80.178
X156.755Y-83.87
X156.755Y-84.87
X156.755Y-86.87
X156.755Y-87.87
X156.755Y-88.87
X156.755Y-89.87
X156.909Y-81.064
X157.0Y-113.05
X157.0Y-115.9
X157.288Y-79.456
X157.34Y-126.47
X157.359Y-129.178
X157.4Y-130.077
X157.755Y-83.87
X157.755Y-89.87
X157.777Y-78.7
X157.777Y-81.303
X157.936Y-82.189
X157.973Y-66.927
X158.0Y-113.05
X158.0Y-115.9
X158.185Y-77.855
X158.19Y-74.33
X158.26Y-60.09
X158.55Y-82.88
X158.623Y-77.055
X158.63Y-66.09
X158.72Y-75.17
X158.728Y-76.081
X158.755Y-83.87
X158.755Y-89.87
X159.0Y-113.05
X159.0Y-115.9
X159.755Y-83.87
X159.755Y-89.87
X159.925Y-63.99
X159.95Y-60.11
X160.0Y-113.05
X160.0Y-115.9
X160.651Y-68.37
X160.651Y-70.37
X160.651Y-72.37
X160.673Y-64.49
X160.755Y-83.87
X160.755Y-89.87
X161.0Y-113.05
X161.0Y-115.9
X161.755Y-83.87
X161.755Y-89.87
X162.0Y-113.05
X162.0Y-115.9
X162.2Y-64.525
X162.6Y-60.12
X162.651Y-68.37
X162.651Y-70.37
X162.651Y-72.37
X162.726Y-65.705
X162.755Y-75.87
X162.755Y-76.87
X162.755Y-77.87
X162.755Y-78.87
X162.755Y-79.87
X162.755Y-80.87
X162.755Y-81.87
X162.755Y-82.87
X162.755Y-83.87
X162.755Y-89.87
X162.755Y-91.87
X162.755Y-92.87
X162.755Y-93.87
X162.755Y-94.87
X162.913Y-63.976
X163.005Y-113.055
X163.005Y-115.905
X163.225Y-64.8
X163.51Y-58.13
X163.61Y-59.23
X163.755Y-94.87
X163.985Y-60.13
X164.005Y-113.055
X164.005Y-115.905
X164.651Y-68.37
X164.651Y-70.37
X164.651Y-72.37
X164.755Y-94.87
X164.91Y-65.37
X165.005Y-113.055
X165.005Y-115.905
X165.755Y-94.87
X165.801Y-65.499
X166.005Y-113.055
X166.005Y-115.905
X166.532Y-61.36
X166.66Y-74.77
X166.66Y-75.77
X166.68Y-65.793
X166.755Y-94.87
X167.005Y-113.055
X167.005Y-115.905
X167.41Y-66.32
X167.545Y-71.495
X167.66Y-74.77
X167.66Y-75.77
X167.675Y-73.575
X167.755Y-94.87
X167.974Y-70.632
X168.005Y-113.055
X168.005Y-115.905
X168.135Y-61.32
X168.25Y-65.76
X168.66Y-74.77
X168.66Y-75.77
X168.755Y-94.87
X168.8Y-66.59
X169.005Y-113.055
X169.005Y-115.905
X169.66Y-75.77
X169.755Y-94.87
X170.005Y-113.055
X170.005Y-115.905
X170.45Y-65.18
X170.655Y-75.77
X170.655Y-94.77
X171.0Y-113.05
X171.0Y-115.9
X171.24Y-65.62
X171.3Y-61.08
X171.655Y-75.77
X171.655Y-94.77
X172.005Y-113.055
X172.005Y-115.905
X172.15Y-68.975
X172.18Y-60.26
X172.205Y-70.47
X172.317Y-73.6
X172.655Y-75.77
X172.655Y-94.77
X173.005Y-113.055
X173.005Y-115.905
X173.655Y-75.77
X173.655Y-94.77
X174.005Y-113.055
X174.005Y-115.905
X174.255Y-70.27
X174.655Y-75.77
X174.655Y-94.77
X175.005Y-113.055
X175.005Y-115.905
X175.655Y-75.77
X175.655Y-94.77
X175.78Y-96.45
X176.005Y-113.055
X176.005Y-115.905
X176.655Y-75.77
X176.655Y-94.77
X176.9Y-96.47
X176.905Y-68.92
X177.005Y-113.055
X177.005Y-115.905
X177.655Y-75.77
X177.655Y-94.77
X177.946Y-66.55
X178.0Y-113.05
X178.005Y-115.905
X178.655Y-75.77
X178.655Y-94.77
X179.65Y-81.775
X179.65Y-88.775
X179.65Y-89.775
X179.65Y-90.775
X179.65Y-91.775
X179.65Y-92.775
X179.65Y-93.775
X179.655Y-75.77
X179.655Y-76.77
X179.655Y-77.77
X179.655Y-78.77
X179.655Y-79.77
X179.655Y-80.77
X179.655Y-94.77
X179.71Y-68.352
X184.61Y-99.0
T2
X122.06Y-51.95
X122.06Y-54.49
X124.6Y-51.95
X124.6Y-54.49
X127.14Y-51.95
X127.14Y-54.49
X129.68Y-51.95
X129.68Y-54.49
X132.22Y-51.95
X132.22Y-54.49
X134.76Y-51.95
X134.76Y-54.49
X137.3Y-51.95
X137.3Y-54.49
X139.84Y-51.95
X139.84Y-54.49
X142.38Y-51.95
X142.38Y-54.49
X144.92Y-51.95
X144.92Y-54.49
X147.46Y-51.95
X147.46Y-54.49
X150.0Y-51.95
X150.0Y-54.49
X152.54Y-51.95
X152.54Y-54.49
X155.08Y-51.95
X155.08Y-54.49
X157.62Y-51.95
X157.62Y-54.49
X160.16Y-51.95
X160.16Y-54.49
X162.7Y-51.95
X162.7Y-54.49
X165.24Y-51.95
X165.24Y-54.49
X167.78Y-51.95
X167.78Y-54.49
X170.32Y-51.95
X170.32Y-54.49
X182.56Y-114.48
X183.925Y-85.275
T3
X180.16Y-112.08
X180.16Y-116.88
X181.525Y-82.875
X181.525Y-87.675
X184.96Y-112.08
X184.96Y-116.88
X186.325Y-82.875
X186.325Y-87.675
T4
X109.3Y-68.64
X109.3Y-76.54
T5
X106.2Y-51.35
X106.2Y-131.35
X186.2Y-51.35
X186.2Y-131.35
M30
