%TF.GenerationSoftware,KiCad,Pcbnew,9.0.7*%
%TF.CreationDate,2026-05-06T17:43:38-03:00*%
%TF.ProjectId,pcb_comms_board,7063625f-636f-46d6-9d73-5f626f617264,rev?*%
%TF.SameCoordinates,Original*%
%TF.FileFunction,Soldermask,Top*%
%TF.FilePolarity,Negative*%
%FSLAX46Y46*%
G04 Gerber Fmt 4.6, Leading zero omitted, Abs format (unit mm)*
G04 Created by KiCad (PCBNEW 9.0.7) date 2026-05-06 17:43:38*
%MOMM*%
%LPD*%
G01*
G04 APERTURE LIST*
G04 Aperture macros list*
%AMRoundRect*
0 Rectangle with rounded corners*
0 $1 Rounding radius*
0 $2 $3 $4 $5 $6 $7 $8 $9 X,Y pos of 4 corners*
0 Add a 4 corners polygon primitive as box body*
4,1,4,$2,$3,$4,$5,$6,$7,$8,$9,$2,$3,0*
0 Add four circle primitives for the rounded corners*
1,1,$1+$1,$2,$3*
1,1,$1+$1,$4,$5*
1,1,$1+$1,$6,$7*
1,1,$1+$1,$8,$9*
0 Add four rect primitives between the rounded corners*
20,1,$1+$1,$2,$3,$4,$5,0*
20,1,$1+$1,$4,$5,$6,$7,0*
20,1,$1+$1,$6,$7,$8,$9,0*
20,1,$1+$1,$8,$9,$2,$3,0*%
%AMFreePoly0*
4,1,23,0.500000,-0.750000,0.000000,-0.750000,0.000000,-0.745722,-0.065263,-0.745722,-0.191342,-0.711940,-0.304381,-0.646677,-0.396677,-0.554381,-0.461940,-0.441342,-0.495722,-0.315263,-0.495722,-0.250000,-0.500000,-0.250000,-0.500000,0.250000,-0.495722,0.250000,-0.495722,0.315263,-0.461940,0.441342,-0.396677,0.554381,-0.304381,0.646677,-0.191342,0.711940,-0.065263,0.745722,0.000000,0.745722,
0.000000,0.750000,0.500000,0.750000,0.500000,-0.750000,0.500000,-0.750000,$1*%
%AMFreePoly1*
4,1,23,0.000000,0.745722,0.065263,0.745722,0.191342,0.711940,0.304381,0.646677,0.396677,0.554381,0.461940,0.441342,0.495722,0.315263,0.495722,0.250000,0.500000,0.250000,0.500000,-0.250000,0.495722,-0.250000,0.495722,-0.315263,0.461940,-0.441342,0.396677,-0.554381,0.304381,-0.646677,0.191342,-0.711940,0.065263,-0.745722,0.000000,-0.745722,0.000000,-0.750000,-0.500000,-0.750000,
-0.500000,0.750000,0.000000,0.750000,0.000000,0.745722,0.000000,0.745722,$1*%
G04 Aperture macros list end*
%ADD10FreePoly0,90.000000*%
%ADD11FreePoly1,90.000000*%
%ADD12R,1.020000X1.780000*%
%ADD13R,1.498600X1.104900*%
%ADD14RoundRect,0.250001X-1.074999X0.462499X-1.074999X-0.462499X1.074999X-0.462499X1.074999X0.462499X0*%
%ADD15R,0.500000X1.100000*%
%ADD16RoundRect,0.250000X0.450000X-0.350000X0.450000X0.350000X-0.450000X0.350000X-0.450000X-0.350000X0*%
%ADD17RoundRect,0.250000X-0.350000X-0.450000X0.350000X-0.450000X0.350000X0.450000X-0.350000X0.450000X0*%
%ADD18RoundRect,0.237500X0.237500X-0.300000X0.237500X0.300000X-0.237500X0.300000X-0.237500X-0.300000X0*%
%ADD19RoundRect,0.250000X-0.475000X0.337500X-0.475000X-0.337500X0.475000X-0.337500X0.475000X0.337500X0*%
%ADD20R,2.960000X1.270000*%
%ADD21R,0.812800X0.254000*%
%ADD22R,0.254000X0.812800*%
%ADD23R,5.689600X5.689600*%
%ADD24RoundRect,0.237500X-0.300000X-0.237500X0.300000X-0.237500X0.300000X0.237500X-0.300000X0.237500X0*%
%ADD25RoundRect,0.250000X0.275000X0.350000X-0.275000X0.350000X-0.275000X-0.350000X0.275000X-0.350000X0*%
%ADD26RoundRect,0.250000X-0.450000X0.350000X-0.450000X-0.350000X0.450000X-0.350000X0.450000X0.350000X0*%
%ADD27C,1.712000*%
%ADD28C,2.124000*%
%ADD29RoundRect,0.250000X0.337500X0.475000X-0.337500X0.475000X-0.337500X-0.475000X0.337500X-0.475000X0*%
%ADD30RoundRect,0.250000X-0.275000X-0.350000X0.275000X-0.350000X0.275000X0.350000X-0.275000X0.350000X0*%
%ADD31RoundRect,0.237500X0.300000X0.237500X-0.300000X0.237500X-0.300000X-0.237500X0.300000X-0.237500X0*%
%ADD32RoundRect,0.250000X0.350000X0.450000X-0.350000X0.450000X-0.350000X-0.450000X0.350000X-0.450000X0*%
%ADD33C,3.600000*%
%ADD34C,5.600000*%
%ADD35RoundRect,0.250000X-0.350000X0.275000X-0.350000X-0.275000X0.350000X-0.275000X0.350000X0.275000X0*%
%ADD36RoundRect,0.250000X-0.337500X-0.475000X0.337500X-0.475000X0.337500X0.475000X-0.337500X0.475000X0*%
%ADD37RoundRect,0.102000X1.235000X-0.940000X1.235000X0.940000X-1.235000X0.940000X-1.235000X-0.940000X0*%
%ADD38RoundRect,0.102000X0.940000X-1.235000X0.940000X1.235000X-0.940000X1.235000X-0.940000X-1.235000X0*%
%ADD39RoundRect,0.102000X3.300000X-0.900000X3.300000X0.900000X-3.300000X0.900000X-3.300000X-0.900000X0*%
%ADD40RoundRect,0.102000X4.000000X-0.900000X4.000000X0.900000X-4.000000X0.900000X-4.000000X-0.900000X0*%
%ADD41RoundRect,0.237500X-0.237500X0.300000X-0.237500X-0.300000X0.237500X-0.300000X0.237500X0.300000X0*%
%ADD42RoundRect,0.250001X1.074999X-0.462499X1.074999X0.462499X-1.074999X0.462499X-1.074999X-0.462499X0*%
%ADD43RoundRect,0.250000X0.475000X-0.337500X0.475000X0.337500X-0.475000X0.337500X-0.475000X-0.337500X0*%
%ADD44RoundRect,0.250000X-0.362500X-0.700000X0.362500X-0.700000X0.362500X0.700000X-0.362500X0.700000X0*%
%ADD45R,1.700000X1.700000*%
%ADD46C,1.700000*%
%ADD47RoundRect,0.150000X0.625000X-0.150000X0.625000X0.150000X-0.625000X0.150000X-0.625000X-0.150000X0*%
%ADD48RoundRect,0.250000X0.650000X-0.350000X0.650000X0.350000X-0.650000X0.350000X-0.650000X-0.350000X0*%
%ADD49RoundRect,0.250000X-1.412500X-0.550000X1.412500X-0.550000X1.412500X0.550000X-1.412500X0.550000X0*%
%ADD50R,1.050000X0.800000*%
%ADD51R,1.380000X0.450000*%
%ADD52C,2.145000*%
%ADD53R,1.550000X1.425000*%
%ADD54R,1.900000X0.875000*%
%ADD55R,0.250000X0.250000*%
%ADD56R,0.950000X2.750000*%
%ADD57R,3.250000X2.750000*%
%ADD58RoundRect,0.237500X0.287500X0.237500X-0.287500X0.237500X-0.287500X-0.237500X0.287500X-0.237500X0*%
%ADD59R,0.750000X0.850000*%
%ADD60RoundRect,0.237500X-0.237500X0.250000X-0.237500X-0.250000X0.237500X-0.250000X0.237500X0.250000X0*%
%ADD61R,1.104900X1.498600*%
%ADD62RoundRect,0.250000X0.450000X-0.325000X0.450000X0.325000X-0.450000X0.325000X-0.450000X-0.325000X0*%
%ADD63R,0.800000X0.400000*%
%ADD64R,1.200000X0.600000*%
G04 APERTURE END LIST*
%TO.C,SB3*%
G36*
X148110000Y-67220000D02*
G01*
X149610000Y-67220000D01*
X149610000Y-66920000D01*
X148110000Y-66920000D01*
X148110000Y-67220000D01*
G37*
%TD*%
D10*
%TO.C,SB3*%
X148860000Y-67720000D03*
D11*
X148860000Y-66420000D03*
%TD*%
D12*
%TO.C,L8*%
X168220000Y-85630000D03*
X166440000Y-85630000D03*
%TD*%
D13*
%TO.C,CR1*%
X116490000Y-76813450D03*
X116490000Y-73930550D03*
%TD*%
D14*
%TO.C,L10*%
X113130000Y-93492500D03*
X113130000Y-96467500D03*
%TD*%
D15*
%TO.C,D3*%
X150680000Y-81705000D03*
X150680000Y-84055000D03*
%TD*%
D16*
%TO.C,R8*%
X120440000Y-102770000D03*
X120440000Y-100770000D03*
%TD*%
D17*
%TO.C,R10*%
X113020000Y-62890000D03*
X115020000Y-62890000D03*
%TD*%
D18*
%TO.C,C11*%
X158260000Y-62752500D03*
X158260000Y-61027500D03*
%TD*%
D16*
%TO.C,R2*%
X151555000Y-124872500D03*
X151555000Y-122872500D03*
%TD*%
D19*
%TO.C,C20*%
X153805000Y-122835000D03*
X153805000Y-124910000D03*
%TD*%
D20*
%TO.C,JTAG*%
X144760000Y-64780000D03*
X141180000Y-67320000D03*
X144760000Y-69860000D03*
X141180000Y-72400000D03*
X144760000Y-74940000D03*
X141180000Y-77480000D03*
%TD*%
D21*
%TO.C,STM*%
X159196200Y-67620000D03*
X159196200Y-68119999D03*
X159196200Y-68620001D03*
X159196200Y-69120000D03*
X159196200Y-69619999D03*
X159196200Y-70120000D03*
X159196200Y-70620000D03*
X159196200Y-71120001D03*
X159196200Y-71620000D03*
X159196200Y-72119999D03*
X159196200Y-72620001D03*
X159196200Y-73120000D03*
D22*
X159900600Y-73824400D03*
X160400599Y-73824400D03*
X160900601Y-73824400D03*
X161400600Y-73824400D03*
X161900599Y-73824400D03*
X162400600Y-73824400D03*
X162900600Y-73824400D03*
X163400601Y-73824400D03*
X163900600Y-73824400D03*
X164400599Y-73824400D03*
X164900601Y-73824400D03*
X165400600Y-73824400D03*
D21*
X166105000Y-73120000D03*
X166105000Y-72620001D03*
X166105000Y-72119999D03*
X166105000Y-71620000D03*
X166105000Y-71120001D03*
X166105000Y-70620000D03*
X166105000Y-70120000D03*
X166105000Y-69619999D03*
X166105000Y-69120000D03*
X166105000Y-68620001D03*
X166105000Y-68119999D03*
X166105000Y-67620000D03*
D22*
X165400600Y-66915600D03*
X164900601Y-66915600D03*
X164400599Y-66915600D03*
X163900600Y-66915600D03*
X163400601Y-66915600D03*
X162900600Y-66915600D03*
X162400600Y-66915600D03*
X161900599Y-66915600D03*
X161400600Y-66915600D03*
X160900601Y-66915600D03*
X160400599Y-66915600D03*
X159900600Y-66915600D03*
D23*
X162650600Y-70370000D03*
%TD*%
D16*
%TO.C,R12*%
X120927500Y-126545000D03*
X120927500Y-124545000D03*
%TD*%
D19*
%TO.C,C8*%
X107930000Y-58672500D03*
X107930000Y-60747500D03*
%TD*%
D24*
%TO.C,C24*%
X166525000Y-87620000D03*
X168250000Y-87620000D03*
%TD*%
D25*
%TO.C,L12*%
X149552500Y-103820000D03*
X147252500Y-103820000D03*
%TD*%
D19*
%TO.C,C37*%
X120250000Y-115882500D03*
X120250000Y-117957500D03*
%TD*%
D18*
%TO.C,C1*%
X155147500Y-74927500D03*
X155147500Y-73202500D03*
%TD*%
D24*
%TO.C,C21*%
X175662500Y-77920000D03*
X177387500Y-77920000D03*
%TD*%
D19*
%TO.C,C46*%
X118110000Y-93732500D03*
X118110000Y-95807500D03*
%TD*%
D26*
%TO.C,R11*%
X118702500Y-124570000D03*
X118702500Y-126570000D03*
%TD*%
D16*
%TO.C,R7*%
X107780000Y-109050000D03*
X107780000Y-107050000D03*
%TD*%
D26*
%TO.C,R5*%
X156130000Y-122897500D03*
X156130000Y-124897500D03*
%TD*%
D24*
%TO.C,C34*%
X169240000Y-68970000D03*
X170965000Y-68970000D03*
%TD*%
%TO.C,C32*%
X169250000Y-70475000D03*
X170975000Y-70475000D03*
%TD*%
D18*
%TO.C,C2*%
X156750000Y-74930000D03*
X156750000Y-73205000D03*
%TD*%
D27*
%TO.C,SMA1*%
X183925000Y-85275000D03*
D28*
X181525000Y-82875000D03*
X181525000Y-87675000D03*
X186325000Y-87675000D03*
X186325000Y-82875000D03*
%TD*%
D16*
%TO.C,R20*%
X165125000Y-92287500D03*
X165125000Y-90287500D03*
%TD*%
D29*
%TO.C,C52*%
X149465000Y-109995000D03*
X147390000Y-109995000D03*
%TD*%
D25*
%TO.C,L3*%
X169220000Y-81370000D03*
X166920000Y-81370000D03*
%TD*%
D18*
%TO.C,C28*%
X177575000Y-87000000D03*
X177575000Y-85275000D03*
%TD*%
%TO.C,C6*%
X168132500Y-64205000D03*
X168132500Y-62480000D03*
%TD*%
D19*
%TO.C,C36*%
X115550000Y-107092500D03*
X115550000Y-109167500D03*
%TD*%
%TO.C,C12*%
X147900000Y-81802500D03*
X147900000Y-83877500D03*
%TD*%
D30*
%TO.C,L11*%
X147252500Y-99720000D03*
X149552500Y-99720000D03*
%TD*%
D18*
%TO.C,C10*%
X156512500Y-62785000D03*
X156512500Y-61060000D03*
%TD*%
D31*
%TO.C,C31*%
X176672500Y-66550000D03*
X174947500Y-66550000D03*
%TD*%
D32*
%TO.C,R9*%
X118120000Y-71680000D03*
X116120000Y-71680000D03*
%TD*%
D33*
%TO.C,H2*%
X186200000Y-51350000D03*
D34*
X186200000Y-51350000D03*
%TD*%
D35*
%TO.C,L7*%
X175900000Y-88175000D03*
X175900000Y-90475000D03*
%TD*%
D36*
%TO.C,C47*%
X135342500Y-82570000D03*
X137417500Y-82570000D03*
%TD*%
D37*
%TO.C,DRA818V*%
X125280000Y-124600000D03*
X125280000Y-120150000D03*
X125280000Y-115700000D03*
X125280000Y-111250000D03*
X125280000Y-106800000D03*
X125280000Y-102350000D03*
X125280000Y-97900000D03*
D38*
X127205000Y-94125000D03*
X131805000Y-94125000D03*
X136405000Y-94125000D03*
X141005000Y-94125000D03*
D37*
X142930000Y-97900000D03*
X142930000Y-102350000D03*
X142930000Y-106800000D03*
X142930000Y-111250000D03*
X142930000Y-115700000D03*
X142930000Y-120150000D03*
X142930000Y-124600000D03*
D39*
X127905000Y-128375000D03*
D40*
X139605000Y-128375000D03*
%TD*%
D36*
%TO.C,C30*%
X166335000Y-83350000D03*
X168410000Y-83350000D03*
%TD*%
D41*
%TO.C,C26*%
X178410000Y-68527500D03*
X178410000Y-70252500D03*
%TD*%
D36*
%TO.C,C18*%
X166360000Y-77230000D03*
X168435000Y-77230000D03*
%TD*%
%TO.C,C39*%
X115492500Y-80160000D03*
X117567500Y-80160000D03*
%TD*%
D42*
%TO.C,L1*%
X147360000Y-130077500D03*
X147360000Y-127102500D03*
%TD*%
D43*
%TO.C,C41*%
X146880000Y-124960000D03*
X146880000Y-122885000D03*
%TD*%
%TO.C,C35*%
X169725000Y-92337500D03*
X169725000Y-90262500D03*
%TD*%
D44*
%TO.C,FB2*%
X165462500Y-58600000D03*
X168787500Y-58600000D03*
%TD*%
D29*
%TO.C,C50*%
X149477500Y-101770000D03*
X147402500Y-101770000D03*
%TD*%
D18*
%TO.C,C7*%
X166490000Y-64222500D03*
X166490000Y-62497500D03*
%TD*%
D45*
%TO.C,J2*%
X122060000Y-51950000D03*
D46*
X122060000Y-54490000D03*
X124600000Y-51950000D03*
X124600000Y-54490000D03*
X127140000Y-51950000D03*
X127140000Y-54490000D03*
X129680000Y-51950000D03*
X129680000Y-54490000D03*
X132220000Y-51950000D03*
X132220000Y-54490000D03*
X134760000Y-51950000D03*
X134760000Y-54490000D03*
X137300000Y-51950000D03*
X137300000Y-54490000D03*
X139840000Y-51950000D03*
X139840000Y-54490000D03*
X142380000Y-51950000D03*
X142380000Y-54490000D03*
X144920000Y-51950000D03*
X144920000Y-54490000D03*
X147460000Y-51950000D03*
X147460000Y-54490000D03*
X150000000Y-51950000D03*
X150000000Y-54490000D03*
X152540000Y-51950000D03*
X152540000Y-54490000D03*
X155080000Y-51950000D03*
X155080000Y-54490000D03*
X157620000Y-51950000D03*
X157620000Y-54490000D03*
X160160000Y-51950000D03*
X160160000Y-54490000D03*
X162700000Y-51950000D03*
X162700000Y-54490000D03*
X165240000Y-51950000D03*
X165240000Y-54490000D03*
X167780000Y-51950000D03*
X167780000Y-54490000D03*
X170320000Y-51950000D03*
X170320000Y-54490000D03*
%TD*%
D47*
%TO.C,GPS*%
X111365000Y-89320000D03*
X111365000Y-88320000D03*
X111365000Y-87320000D03*
X111365000Y-86320000D03*
X111365000Y-85320000D03*
X111365000Y-84320000D03*
D48*
X108840000Y-90620000D03*
X108840000Y-83020000D03*
%TD*%
D24*
%TO.C,C33*%
X169210000Y-73570000D03*
X170935000Y-73570000D03*
%TD*%
D43*
%TO.C,C44*%
X117840000Y-117980000D03*
X117840000Y-115905000D03*
%TD*%
D49*
%TO.C,C9*%
X122002500Y-60540000D03*
X127077500Y-60540000D03*
%TD*%
D36*
%TO.C,C19*%
X175485000Y-80140000D03*
X177560000Y-80140000D03*
%TD*%
D50*
%TO.C,S1*%
X179300000Y-97250000D03*
X179300000Y-100750000D03*
X183300000Y-99000000D03*
%TD*%
D33*
%TO.C,H3*%
X106200000Y-131350000D03*
D34*
X106200000Y-131350000D03*
%TD*%
D51*
%TO.C,USB*%
X111960000Y-73890000D03*
X111960000Y-73240000D03*
X111960000Y-72590000D03*
X111960000Y-71940000D03*
X111960000Y-71290000D03*
D52*
X109300000Y-76540000D03*
X109300000Y-68640000D03*
D53*
X111875000Y-75077000D03*
X111875000Y-70103000D03*
D54*
X109300000Y-73778000D03*
X109300000Y-71402000D03*
%TD*%
D42*
%TO.C,L9*%
X118540000Y-109460000D03*
X118540000Y-106485000D03*
%TD*%
D19*
%TO.C,C42*%
X121602500Y-106795000D03*
X121602500Y-108870000D03*
%TD*%
D55*
%TO.C,IC4*%
X172465000Y-87380000D03*
X172065000Y-87380000D03*
X171665000Y-87380000D03*
X171665000Y-87780000D03*
X172065000Y-87780000D03*
X172465000Y-87780000D03*
%TD*%
D56*
%TO.C,IC1*%
X128360000Y-82490000D03*
X130660000Y-82490000D03*
X132960000Y-82490000D03*
D57*
X130660000Y-77290000D03*
%TD*%
D58*
%TO.C,L5*%
X174235000Y-83200000D03*
X172485000Y-83200000D03*
%TD*%
D19*
%TO.C,C49*%
X120310000Y-93732500D03*
X120310000Y-95807500D03*
%TD*%
D16*
%TO.C,R3*%
X114102500Y-126495000D03*
X114102500Y-124495000D03*
%TD*%
D19*
%TO.C,C45*%
X115970000Y-93752500D03*
X115970000Y-95827500D03*
%TD*%
D43*
%TO.C,C23*%
X161325000Y-88025000D03*
X161325000Y-85950000D03*
%TD*%
D12*
%TO.C,L4*%
X171555000Y-80040000D03*
X173335000Y-80040000D03*
%TD*%
D26*
%TO.C,R6*%
X113250000Y-107130000D03*
X113250000Y-109130000D03*
%TD*%
D43*
%TO.C,C27*%
X167455000Y-92307500D03*
X167455000Y-90232500D03*
%TD*%
D30*
%TO.C,L2*%
X156160000Y-58140000D03*
X158460000Y-58140000D03*
%TD*%
D43*
%TO.C,C25*%
X163755000Y-88007500D03*
X163755000Y-85932500D03*
%TD*%
D59*
%TO.C,Y3*%
X176080000Y-70270000D03*
X176080000Y-68920000D03*
X175030000Y-68920000D03*
X175030000Y-70270000D03*
%TD*%
D60*
%TO.C,L6*%
X165240000Y-79157500D03*
X165240000Y-80982500D03*
%TD*%
D18*
%TO.C,C16*%
X159897500Y-62760000D03*
X159897500Y-61035000D03*
%TD*%
D24*
%TO.C,C17*%
X171610000Y-77750000D03*
X173335000Y-77750000D03*
%TD*%
D36*
%TO.C,C38*%
X147420000Y-97620000D03*
X149495000Y-97620000D03*
%TD*%
D18*
%TO.C,C29*%
X174175000Y-92195000D03*
X174175000Y-90470000D03*
%TD*%
D61*
%TO.C,CR2*%
X134248550Y-63360000D03*
X137131450Y-63360000D03*
%TD*%
D43*
%TO.C,C40*%
X149180000Y-124947500D03*
X149180000Y-122872500D03*
%TD*%
D24*
%TO.C,C22*%
X172485000Y-84790000D03*
X174210000Y-84790000D03*
%TD*%
D19*
%TO.C,C43*%
X116550000Y-100732500D03*
X116550000Y-102807500D03*
%TD*%
D43*
%TO.C,C13*%
X171955000Y-92307500D03*
X171955000Y-90232500D03*
%TD*%
D26*
%TO.C,R14*%
X117190000Y-60040000D03*
X117190000Y-62040000D03*
%TD*%
D62*
%TO.C,D6*%
X115850000Y-69580000D03*
X115850000Y-67530000D03*
%TD*%
D19*
%TO.C,C48*%
X118262500Y-67535000D03*
X118262500Y-69610000D03*
%TD*%
D33*
%TO.C,H4*%
X106200000Y-51350000D03*
D34*
X106200000Y-51350000D03*
%TD*%
D36*
%TO.C,C15*%
X167020000Y-79405000D03*
X169095000Y-79405000D03*
%TD*%
D16*
%TO.C,R19*%
X159011250Y-87943750D03*
X159011250Y-85943750D03*
%TD*%
D29*
%TO.C,C51*%
X149502500Y-105870000D03*
X147427500Y-105870000D03*
%TD*%
D63*
%TO.C,Q1*%
X109780000Y-107500000D03*
X109780000Y-108500000D03*
X111380000Y-108000000D03*
%TD*%
D64*
%TO.C,IC2*%
X112680000Y-58660000D03*
X112680000Y-59610000D03*
X112680000Y-60560000D03*
X115180000Y-60560000D03*
X115180000Y-59610000D03*
X115180000Y-58660000D03*
%TD*%
D26*
%TO.C,R1*%
X176940000Y-98420000D03*
X176940000Y-100420000D03*
%TD*%
D24*
%TO.C,C14*%
X160207500Y-58120000D03*
X161932500Y-58120000D03*
%TD*%
D27*
%TO.C,SMA2*%
X182560000Y-114480000D03*
D28*
X180160000Y-112080000D03*
X180160000Y-116880000D03*
X184960000Y-116880000D03*
X184960000Y-112080000D03*
%TD*%
D26*
%TO.C,R4*%
X116477500Y-124495000D03*
X116477500Y-126495000D03*
%TD*%
D41*
%TO.C,C3*%
X162600000Y-61062500D03*
X162600000Y-62787500D03*
%TD*%
D33*
%TO.C,H1*%
X186200000Y-131350000D03*
D34*
X186200000Y-131350000D03*
%TD*%
D25*
%TO.C,L13*%
X149577500Y-107945000D03*
X147277500Y-107945000D03*
%TD*%
M02*
